<svg width="70" height="97" viewBox="0 0 70 97" fill="none" xmlns="http://www.w3.org/2000/svg">
<path d="M3.08533 2.93217C3.08533 3.48164 2.94346 3.9503 2.65972 4.33816C2.37598 4.72602 2.03312 4.91995 1.62525 4.91995C1.22328 4.91995 0.880428 4.72602 0.596687 4.33816C0.312946 3.9503 0.171076 3.47356 0.171076 2.92409C0.171076 2.37462 0.312946 1.90595 0.596687 1.51809C0.88634 1.13023 1.22919 0.936303 1.63116 0.936303C2.03312 0.936303 2.37598 1.13023 2.65972 1.51809C2.94346 1.90595 3.08533 2.3827 3.08533 2.93217ZM17.0655 0.936303C16.6635 0.936303 16.3207 1.13023 16.031 1.51809C15.7473 1.90595 15.6054 2.37462 15.6054 2.92409C15.6054 3.47356 15.7473 3.9503 16.031 4.33816C16.3147 4.72602 16.6576 4.91995 17.0596 4.91995C17.4674 4.91995 17.8103 4.72602 18.094 4.33816C18.3778 3.9503 18.5196 3.48164 18.5196 2.93217C18.5196 2.3827 18.3778 1.90595 18.094 1.51809C17.8103 1.13023 17.4674 0.936303 17.0655 0.936303ZM32.4998 0.936303C32.0978 0.936303 31.7491 1.13023 31.4653 1.51809C31.1816 1.90595 31.0397 2.37462 31.0397 2.93217C31.0397 3.48164 31.1816 3.9503 31.4653 4.33816C31.7491 4.72602 32.0978 4.91995 32.4998 4.91995C32.9018 4.91995 33.2446 4.72602 33.5283 4.33816C33.8121 3.9503 33.9599 3.48164 33.9599 2.93217C33.9599 2.37462 33.8121 1.90595 33.5283 1.51809C33.2446 1.13023 32.9018 0.936303 32.4998 0.936303ZM47.94 0.936303C47.538 0.936303 47.1952 1.13023 46.9115 1.51809C46.6218 1.90595 46.4799 2.37462 46.4799 2.93217C46.4799 3.48164 46.6218 3.9503 46.9115 4.33816C47.1952 4.72602 47.538 4.91995 47.94 4.91995C48.342 4.91995 48.6848 4.72602 48.9745 4.33816C49.2582 3.9503 49.4001 3.48164 49.4001 2.93217C49.4001 2.37462 49.2582 1.90595 48.9745 1.51809C48.6848 1.13023 48.342 0.936303 47.94 0.936303ZM63.3743 0.936303C62.9724 0.936303 62.6295 1.13023 62.3458 1.51809C62.062 1.90595 61.9142 2.37462 61.9142 2.93217C61.9142 3.48164 62.062 3.9503 62.3458 4.33816C62.6295 4.72602 62.9724 4.91995 63.3743 4.91995C63.7763 4.91995 64.1251 4.72602 64.4088 4.33816C64.6925 3.9503 64.8344 3.48164 64.8344 2.93217C64.8344 2.37462 64.6925 1.90595 64.4029 1.51809C64.1192 1.12215 63.7704 0.928223 63.3684 0.936303H63.3743ZM78.8027 0.936303C78.4008 0.936303 78.0579 1.13023 77.7683 1.51809C77.4845 1.90595 77.3427 2.37462 77.3427 2.92409C77.3427 3.47356 77.4845 3.9503 77.7683 4.33816C78.052 4.72602 78.3949 4.91995 78.7968 4.91995C79.1988 4.91995 79.5476 4.72602 79.8313 4.33816C80.115 3.9503 80.2569 3.48164 80.2569 2.93217C80.2569 2.3827 80.115 1.90595 79.8313 1.51809C79.5476 1.13023 79.2047 0.936303 78.8027 0.936303ZM94.2371 0.936303C93.8351 0.936303 93.4922 1.13831 93.2085 1.52617C92.9307 1.92212 92.7888 2.39078 92.7888 2.94025C92.7947 3.48972 92.9366 3.95838 93.2203 4.34624C93.51 4.7341 93.8528 4.92803 94.2548 4.91995C94.6568 4.91995 94.9996 4.72602 95.2833 4.33816C95.5671 3.9503 95.709 3.48164 95.709 2.93217C95.709 2.37462 95.5671 1.90595 95.2774 1.51001C94.9878 1.12215 94.6449 0.928223 94.2371 0.936303ZM109.671 0.936303C109.269 0.936303 108.921 1.13023 108.637 1.51809C108.353 1.90595 108.211 2.37462 108.211 2.93217C108.211 3.48164 108.353 3.9503 108.637 4.33816C108.921 4.72602 109.269 4.91995 109.671 4.91995C110.073 4.91995 110.416 4.72602 110.7 4.33816C110.984 3.9503 111.131 3.48164 111.131 2.93217C111.131 2.37462 110.984 1.90595 110.7 1.51809C110.416 1.13023 110.073 0.936303 109.671 0.936303ZM125.106 0.936303C124.704 0.936303 124.355 1.13023 124.071 1.51809C123.787 1.90595 123.646 2.37462 123.646 2.93217C123.646 3.48164 123.787 3.9503 124.071 4.33816C124.355 4.72602 124.704 4.91995 125.106 4.91995C125.508 4.91995 125.85 4.72602 126.134 4.33816C126.424 3.9503 126.566 3.48164 126.566 2.93217C126.566 2.37462 126.424 1.90595 126.134 1.51809C125.85 1.13023 125.508 0.936303 125.106 0.936303ZM140.54 4.91995C140.942 4.91995 141.285 4.72602 141.574 4.33008C141.858 3.94222 142 3.47356 142 2.92409C142 2.37462 141.858 1.89787 141.569 1.51001C141.285 1.12215 140.942 0.928223 140.54 0.928223C140.132 0.928223 139.789 1.12215 139.506 1.51809C139.222 1.90595 139.08 2.37462 139.08 2.93217C139.08 3.48164 139.222 3.9503 139.511 4.33816C139.795 4.72602 140.138 4.91995 140.54 4.91995ZM1.63116 21.3394C1.22919 21.3394 0.88634 21.5333 0.596687 21.9212C0.312946 22.309 0.171076 22.7777 0.171076 23.3272C0.171076 23.8847 0.312946 24.3534 0.596687 24.7412C0.880428 25.1291 1.22328 25.3311 1.62525 25.3311C2.03312 25.3311 2.37598 25.1372 2.65972 24.7412C2.94346 24.3534 3.08533 23.8847 3.08533 23.3352C3.08533 22.7858 2.94346 22.3171 2.65972 21.9292C2.37598 21.5333 2.03312 21.3394 1.63116 21.3394ZM17.0655 21.3394C16.6635 21.3394 16.3207 21.5333 16.031 21.9212C15.7473 22.309 15.6054 22.7777 15.6054 23.3272C15.6054 23.8847 15.7473 24.3534 16.031 24.7412C16.3147 25.1291 16.6576 25.3311 17.0596 25.3311C17.4674 25.3311 17.8103 25.1372 18.094 24.7412C18.3778 24.3534 18.5196 23.8847 18.5196 23.3352C18.5196 22.7858 18.3778 22.3171 18.094 21.9292C17.8103 21.5333 17.4674 21.3394 17.0655 21.3394ZM32.4998 21.3394C32.0978 21.3394 31.7491 21.5333 31.4653 21.9212C31.1816 22.309 31.0397 22.7858 31.0397 23.3352C31.0397 23.8847 31.1816 24.3534 31.4653 24.7412C31.7491 25.1372 32.0978 25.3311 32.4998 25.3311C32.9018 25.3311 33.2446 25.1372 33.5283 24.7412C33.8121 24.3534 33.9599 23.8847 33.9599 23.3352C33.9599 22.7858 33.8121 22.309 33.5283 21.9212C33.2446 21.5333 32.9018 21.3394 32.4998 21.3394ZM47.94 21.3394C47.538 21.3394 47.1952 21.5333 46.9115 21.9212C46.6218 22.309 46.4799 22.7858 46.4799 23.3352C46.4799 23.8847 46.6218 24.3534 46.9115 24.7412C47.1952 25.1372 47.538 25.3311 47.94 25.3311C48.342 25.3311 48.6848 25.1372 48.9745 24.7412C49.2582 24.3534 49.4001 23.8847 49.4001 23.3352C49.4001 22.7858 49.2582 22.309 48.9745 21.9212C48.6848 21.5333 48.342 21.3394 47.94 21.3394ZM63.3743 21.3394C62.9724 21.3394 62.6295 21.5333 62.3458 21.9212C62.062 22.309 61.9142 22.7858 61.9142 23.3352C61.9142 23.8847 62.062 24.3534 62.3458 24.7412C62.6295 25.1372 62.9724 25.3311 63.3743 25.3311C63.7763 25.3311 64.1251 25.1372 64.4088 24.7412C64.6925 24.3534 64.8344 23.8847 64.8344 23.3352C64.8344 22.7777 64.6925 22.309 64.4029 21.9212C64.1192 21.5333 63.7704 21.3394 63.3684 21.3394H63.3743ZM78.8086 21.3394C78.4067 21.3394 78.0638 21.5333 77.7801 21.9212C77.4904 22.309 77.3486 22.7777 77.3486 23.3272C77.3486 23.8847 77.4904 24.3534 77.7742 24.7412C78.0579 25.1291 78.4008 25.3311 78.8086 25.3311C79.2106 25.3311 79.5535 25.1372 79.8372 24.7412C80.1209 24.3534 80.2687 23.8847 80.2687 23.3352C80.2687 22.7858 80.1209 22.309 79.8372 21.9212C79.5535 21.5333 79.2047 21.3394 78.8027 21.3394H78.8086ZM94.243 21.3394C93.841 21.3394 93.4981 21.5333 93.2144 21.9212C92.9248 22.309 92.7829 22.7777 92.7829 23.3272C92.7829 23.8847 92.9248 24.3534 93.2085 24.7412C93.4922 25.1291 93.8351 25.3311 94.243 25.3311C94.6449 25.3311 94.9878 25.1372 95.2715 24.7412C95.5612 24.3534 95.703 23.8847 95.703 23.3352C95.703 22.7858 95.5612 22.309 95.2715 21.9212C94.9878 21.5333 94.6449 21.3394 94.2371 21.3394H94.243ZM109.677 21.3394C109.275 21.3394 108.932 21.5333 108.643 21.9212C108.359 22.309 108.217 22.7858 108.217 23.3352C108.217 23.8847 108.359 24.3534 108.643 24.7412C108.932 25.1372 109.275 25.3311 109.677 25.3311C110.079 25.3311 110.422 25.1372 110.712 24.7412C110.995 24.3534 111.137 23.8847 111.137 23.3352C111.137 22.7777 110.995 22.309 110.706 21.9212C110.422 21.5333 110.073 21.3394 109.671 21.3394H109.677ZM125.112 21.3394C124.71 21.3394 124.367 21.5333 124.083 21.9212C123.793 22.309 123.652 22.7858 123.652 23.3352C123.652 23.8847 123.793 24.3534 124.083 24.7412C124.367 25.1372 124.71 25.3311 125.112 25.3311C125.514 25.3311 125.856 25.1372 126.146 24.7412C126.43 24.3534 126.572 23.8847 126.572 23.3352C126.572 22.7777 126.43 22.309 126.14 21.9212C125.856 21.5333 125.508 21.3394 125.106 21.3394H125.112ZM140.546 21.3394C140.144 21.3313 139.795 21.5171 139.506 21.905C139.216 22.2929 139.068 22.7615 139.068 23.311C139.062 23.8605 139.198 24.3372 139.482 24.7331C139.766 25.121 140.108 25.323 140.51 25.3311C140.918 25.3311 141.261 25.1453 141.551 24.7574C141.835 24.3695 141.982 23.8928 141.982 23.3433C141.988 22.7938 141.846 22.3252 141.563 21.9373C141.285 21.5414 140.942 21.3475 140.54 21.3394H140.546ZM1.63116 41.7667C1.22919 41.7667 0.886339 41.9606 0.602598 42.3485C0.312945 42.7363 0.171076 43.205 0.171076 43.7545C0.165165 44.3039 0.307035 44.7726 0.590776 45.1685C0.874516 45.5564 1.21737 45.7584 1.61934 45.7584C2.0213 45.7665 2.36416 45.5726 2.6479 45.1847C2.93755 44.8049 3.08533 44.3363 3.08533 43.7868C3.09124 43.2292 2.94937 42.7606 2.66563 42.3646C2.38189 41.9687 2.03904 41.7748 1.63116 41.7667ZM17.0655 41.7667C16.6635 41.7667 16.3207 41.9606 16.031 42.3485C15.7473 42.7444 15.6054 43.2131 15.6054 43.7625C15.6054 44.312 15.7473 44.7888 16.031 45.1766C16.3147 45.5645 16.6635 45.7584 17.0655 45.7584C17.4674 45.7584 17.8103 45.5645 18.094 45.1685C18.3837 44.7807 18.5256 44.312 18.5196 43.7625C18.5196 43.2131 18.3778 42.7444 18.094 42.3566C17.8103 41.9687 17.4674 41.7748 17.0655 41.7667ZM32.4998 41.7667C32.0978 41.7667 31.755 41.9606 31.4712 42.3485C31.1816 42.7363 31.0397 43.205 31.0397 43.7545C31.0397 44.3039 31.1757 44.7807 31.4594 45.1685C31.7431 45.5564 32.086 45.7584 32.488 45.7584C32.8899 45.7665 33.2328 45.5726 33.5224 45.1847C33.8062 44.8049 33.954 44.3363 33.9599 43.7868C33.9599 43.5201 33.9244 43.2616 33.8535 43.0191C33.7766 42.7687 33.6702 42.5505 33.5343 42.3646C33.3983 42.1707 33.2387 42.0253 33.0614 41.9202C32.8781 41.8232 32.6949 41.7667 32.4998 41.7667ZM47.9341 41.7667C47.5321 41.7667 47.1834 41.9687 46.8996 42.3566C46.6159 42.7444 46.474 43.2131 46.474 43.7625C46.474 44.3201 46.6159 44.7888 46.9055 45.1766C47.1893 45.5645 47.5321 45.7584 47.9341 45.7584C48.3361 45.7584 48.6848 45.5645 48.9686 45.1685C49.2523 44.7807 49.3942 44.312 49.3942 43.7625C49.3942 43.2131 49.2523 42.7444 48.9686 42.3566C48.6848 41.9687 48.342 41.7748 47.94 41.7667H47.9341ZM63.3684 41.7667C62.9665 41.7667 62.6236 41.9687 62.334 42.3566C62.0502 42.7444 61.9083 43.2131 61.9083 43.7625C61.9083 44.3201 62.0502 44.7888 62.3399 45.1766C62.6236 45.5645 62.9665 45.7584 63.3684 45.7584C63.7763 45.7584 64.1192 45.5645 64.4029 45.1685C64.6866 44.7807 64.8285 44.312 64.8285 43.7625C64.8285 43.2131 64.6807 42.7444 64.397 42.3485C64.1132 41.9606 63.7704 41.7667 63.3684 41.7667ZM78.8027 41.7667C78.4008 41.7667 78.0579 41.9606 77.7683 42.3485C77.4845 42.7444 77.3427 43.2131 77.3427 43.7625C77.3427 44.312 77.4845 44.7888 77.7683 45.1766C78.052 45.5645 78.3949 45.7584 78.8027 45.7584C79.2047 45.7584 79.5476 45.5645 79.8313 45.1685C80.115 44.7807 80.2569 44.312 80.2569 43.7625C80.2569 43.2131 80.115 42.7444 79.8313 42.3566C79.5476 41.9687 79.2047 41.7748 78.8027 41.7667ZM94.2371 41.7667C93.8351 41.7748 93.4981 41.9687 93.2144 42.3646C92.9307 42.7525 92.7888 43.2212 92.7888 43.7706C92.7888 44.3201 92.9307 44.7888 93.2144 45.1766C93.4981 45.5645 93.841 45.7584 94.243 45.7584C94.6449 45.7584 94.9878 45.5726 95.2715 45.1847C95.5612 44.7968 95.703 44.3363 95.709 43.7868C95.709 43.5201 95.6735 43.2616 95.6026 43.0111C95.5257 42.7606 95.4193 42.5424 95.2833 42.3566C95.1474 42.1626 94.9878 42.0172 94.8045 41.9202C94.6213 41.8152 94.4321 41.7667 94.2371 41.7667ZM109.671 41.7667C109.269 41.7667 108.921 41.9687 108.637 42.3566C108.353 42.7444 108.211 43.2131 108.211 43.7625C108.211 44.3201 108.353 44.7888 108.637 45.1766C108.927 45.5645 109.269 45.7584 109.671 45.7584C110.073 45.7584 110.422 45.5645 110.706 45.1685C110.99 44.7807 111.131 44.312 111.131 43.7625C111.126 43.2131 110.984 42.7444 110.7 42.3485C110.416 41.9606 110.073 41.7667 109.671 41.7667ZM125.106 41.7667C124.704 41.7667 124.355 41.9687 124.071 42.3566C123.787 42.7444 123.646 43.2131 123.646 43.7625C123.646 44.3201 123.787 44.7888 124.077 45.1766C124.361 45.5645 124.704 45.7584 125.106 45.7584C125.508 45.7584 125.856 45.5645 126.14 45.1685C126.424 44.7807 126.566 44.312 126.566 43.7625C126.566 43.2131 126.418 42.7444 126.134 42.3485C125.85 41.9606 125.508 41.7667 125.106 41.7667ZM140.54 41.7667C140.138 41.7667 139.789 41.9525 139.506 42.3404C139.216 42.7282 139.068 43.1969 139.068 43.7464C139.062 44.2958 139.198 44.7645 139.482 45.1605C139.766 45.5564 140.108 45.7503 140.51 45.7584C140.912 45.7665 141.261 45.5726 141.545 45.1928C141.835 44.8049 141.982 44.3363 141.982 43.7868C141.988 43.2373 141.846 42.7606 141.569 42.3646C141.285 41.9768 140.942 41.7748 140.54 41.7667ZM1.63116 62.1778C1.22919 62.1697 0.886339 62.3637 0.602598 62.7515C0.312945 63.1394 0.171076 63.6081 0.171076 64.1575C0.165165 64.707 0.307035 65.1837 0.590776 65.5716C0.874516 65.9595 1.21737 66.1615 1.61934 66.1615C2.0213 66.1696 2.36416 65.9756 2.6479 65.5958C2.93755 65.208 3.08533 64.7393 3.08533 64.1899C3.09124 63.6404 2.94937 63.1636 2.66563 62.7758C2.38189 62.3798 2.03312 62.1859 1.63116 62.1859V62.1778ZM17.0655 62.1778C16.6635 62.1697 16.3207 62.3637 16.031 62.7596C15.7473 63.1475 15.6054 63.6161 15.6054 64.1656C15.6054 64.7151 15.7473 65.1918 16.031 65.5797C16.3147 65.9675 16.6576 66.1615 17.0596 66.1615C17.4674 66.1615 17.8103 65.9675 18.094 65.5797C18.3778 65.1918 18.5196 64.7232 18.5196 64.1737C18.5196 63.6242 18.3778 63.1556 18.094 62.7677C17.8103 62.3798 17.4674 62.1859 17.0655 62.1859V62.1778ZM32.4998 62.1778C32.0978 62.1778 31.755 62.3718 31.4712 62.7596C31.1816 63.1475 31.0397 63.6161 31.0397 64.1656C31.0397 64.7151 31.1757 65.1837 31.4594 65.5716C31.7431 65.9595 32.086 66.1615 32.488 66.1615C32.8899 66.1696 33.2328 65.9756 33.5224 65.5958C33.8062 65.208 33.954 64.7393 33.9599 64.1899C33.9599 63.6404 33.818 63.1636 33.5343 62.7758C33.2446 62.3798 32.9018 62.1859 32.4998 62.1859V62.1778ZM47.9341 62.1778C47.5321 62.1778 47.1893 62.3718 46.8996 62.7596C46.6159 63.1475 46.474 63.6161 46.474 64.1737C46.474 64.7232 46.6159 65.1918 46.8996 65.5797C47.1893 65.9675 47.5321 66.1615 47.9341 66.1615C48.3361 66.1615 48.6789 65.9675 48.9627 65.5797C49.2523 65.1918 49.3942 64.7232 49.3942 64.1737C49.3883 63.6242 49.2464 63.1556 48.9627 62.7677C48.6848 62.3798 48.342 62.1859 47.94 62.1859L47.9341 62.1778ZM63.3684 62.1778C62.9665 62.1778 62.6236 62.3718 62.334 62.7596C62.0502 63.1475 61.9083 63.6161 61.9083 64.1737C61.9083 64.7232 62.0502 65.1918 62.334 65.5797C62.6236 65.9675 62.9665 66.1615 63.3684 66.1615C63.7704 66.1615 64.1132 65.9675 64.4029 65.5797C64.6866 65.1918 64.8285 64.7232 64.8285 64.1737C64.8226 63.6242 64.6807 63.1556 64.397 62.7677C64.1132 62.3798 63.7704 62.1859 63.3684 62.1859V62.1778ZM78.8027 62.1778C78.4008 62.1697 78.0579 62.3637 77.7683 62.7596C77.4845 63.1475 77.3427 63.6161 77.3427 64.1656C77.3427 64.7151 77.4845 65.1918 77.7683 65.5797C78.052 65.9675 78.3949 66.1615 78.7968 66.1615C79.1988 66.1615 79.5476 65.9675 79.8313 65.5797C80.115 65.1918 80.2569 64.7232 80.2569 64.1737C80.2569 63.6242 80.115 63.1556 79.8313 62.7677C79.5476 62.3798 79.2047 62.1859 78.8027 62.1859V62.1778ZM94.2371 62.1778C93.8351 62.1778 93.4981 62.3798 93.2144 62.7677C92.9307 63.1556 92.7888 63.6242 92.7888 64.1737C92.7888 64.7232 92.9307 65.1918 93.2144 65.5797C93.4981 65.9675 93.841 66.1615 94.243 66.1615C94.6449 66.1696 94.9878 65.9756 95.2715 65.5878C95.5612 65.208 95.703 64.7393 95.709 64.1899C95.709 63.9232 95.6735 63.6646 95.5966 63.4222C95.5257 63.1717 95.4193 62.9535 95.2774 62.7677C95.1415 62.5818 94.9819 62.4364 94.8045 62.3314C94.6213 62.2344 94.4321 62.1859 94.2371 62.1859V62.1778ZM109.671 62.1778C109.269 62.1778 108.921 62.3718 108.637 62.7596C108.353 63.1475 108.211 63.6161 108.211 64.1737C108.211 64.7232 108.353 65.1918 108.637 65.5797C108.921 65.9675 109.269 66.1615 109.671 66.1615C110.073 66.1615 110.416 65.9675 110.7 65.5797C110.984 65.1918 111.131 64.7232 111.131 64.1737C111.126 63.6242 110.984 63.1556 110.7 62.7677C110.416 62.3798 110.073 62.1859 109.671 62.1859V62.1778ZM125.106 62.1778C124.704 62.1778 124.355 62.3718 124.071 62.7596C123.787 63.1475 123.646 63.6161 123.646 64.1737C123.646 64.7232 123.787 65.1918 124.071 65.5797C124.355 65.9675 124.704 66.1615 125.106 66.1615C125.508 66.1615 125.85 65.9675 126.134 65.5797C126.424 65.1918 126.566 64.7232 126.566 64.1737C126.56 63.6242 126.418 63.1556 126.134 62.7677C125.85 62.3798 125.508 62.1859 125.106 62.1859V62.1778ZM140.54 62.1778C140.138 62.1697 139.789 62.3556 139.506 62.7435C139.216 63.1313 139.068 63.6 139.068 64.1495C139.062 64.6989 139.198 65.1757 139.482 65.5635C139.766 65.9595 140.108 66.1615 140.51 66.1615C140.912 66.1696 141.261 65.9837 141.545 65.5958C141.835 65.208 141.982 64.7393 141.982 64.1899C141.988 63.6404 141.846 63.1717 141.563 62.7839C141.285 62.3879 140.942 62.194 140.54 62.1859V62.1778ZM1.63116 82.6051C1.22919 82.6051 0.88634 82.7991 0.596687 83.1869C0.312946 83.5748 0.171076 84.0434 0.171076 84.601C0.171076 85.1505 0.312946 85.6191 0.596687 86.007C0.880428 86.4029 1.22328 86.5969 1.63116 86.5969C2.03312 86.5969 2.37598 86.4029 2.65972 86.007C2.94937 85.6191 3.09124 85.1505 3.08533 84.5929C3.08533 84.0434 2.94346 83.5748 2.65972 83.1869C2.37598 82.7991 2.03312 82.6051 1.63116 82.6051ZM17.0655 82.6051C16.6635 82.6051 16.3207 82.7991 16.031 83.1869C15.7473 83.5748 15.6054 84.0434 15.6054 84.601C15.6054 85.1505 15.7473 85.6191 16.031 86.007C16.3147 86.4029 16.6635 86.5969 17.0655 86.5969C17.4674 86.5969 17.8103 86.4029 18.094 86.007C18.3837 85.6191 18.5256 85.1505 18.5196 84.5929C18.5196 84.0434 18.3778 83.5748 18.094 83.1869C17.8103 82.7991 17.4674 82.6051 17.0655 82.6051ZM32.4998 82.6051C32.0978 82.6051 31.7491 82.7991 31.4653 83.1869C31.1816 83.5829 31.0397 84.0515 31.0397 84.601C31.0397 85.1505 31.1816 85.6272 31.4653 86.0151C31.755 86.4029 32.0978 86.5969 32.4998 86.5969C32.9018 86.5969 33.2505 86.3949 33.5343 86.007C33.818 85.6191 33.9599 85.1424 33.9599 84.5929C33.954 84.0434 33.8121 83.5748 33.5283 83.1869C33.2446 82.7991 32.9018 82.6051 32.4998 82.6051ZM47.9341 82.6051C47.5321 82.6051 47.1834 82.7991 46.8996 83.1869C46.6159 83.5829 46.474 84.0515 46.474 84.601C46.474 85.1505 46.6159 85.6272 46.9055 86.0151C47.1893 86.4029 47.5321 86.5969 47.9341 86.5969C48.3361 86.5969 48.6848 86.3949 48.9686 86.007C49.2523 85.6191 49.3942 85.1424 49.3942 84.5929C49.3942 84.0434 49.2523 83.5829 48.9686 83.195C48.6848 82.8071 48.342 82.6051 47.94 82.6051H47.9341ZM63.3684 82.6051C62.9665 82.6051 62.6236 82.7991 62.334 83.1869C62.0502 83.5829 61.9083 84.0515 61.9083 84.601C61.9083 85.1505 62.0502 85.6272 62.3399 86.0151C62.6236 86.4029 62.9665 86.5969 63.3684 86.5969C63.7763 86.5969 64.1192 86.3949 64.4029 86.007C64.6866 85.6191 64.8285 85.1424 64.8285 84.5929C64.8285 84.0434 64.6807 83.5748 64.397 83.1869C64.1132 82.7991 63.7704 82.6051 63.3684 82.6051ZM78.8027 82.6051C78.4008 82.6051 78.0579 82.7991 77.7683 83.1869C77.4845 83.5748 77.3427 84.0434 77.3427 84.601C77.3427 85.1505 77.4845 85.6191 77.7683 86.007C78.052 86.4029 78.3949 86.5969 78.8027 86.5969C79.2047 86.5969 79.5476 86.4029 79.8313 86.007C80.115 85.6191 80.2569 85.1505 80.2569 84.5929C80.2569 84.0434 80.115 83.5748 79.8313 83.1869C79.5476 82.7991 79.2047 82.6051 78.8027 82.6051ZM94.2371 82.6051C93.8351 82.6132 93.4922 82.8072 93.2085 83.2031C92.9307 83.591 92.7888 84.0596 92.7888 84.6091C92.7947 85.1586 92.9366 85.6272 93.2203 86.0151C93.51 86.4029 93.8528 86.5969 94.2548 86.5969C94.6568 86.5888 94.9996 86.3949 95.2833 86.007C95.5671 85.6191 95.709 85.1424 95.709 84.5929C95.709 84.0434 95.5612 83.5748 95.2774 83.1788C94.9878 82.791 94.6449 82.6051 94.2371 82.6051ZM109.671 82.6051C109.269 82.6051 108.921 82.7991 108.637 83.1869C108.353 83.5829 108.211 84.0515 108.211 84.601C108.211 85.1505 108.353 85.6272 108.637 86.0151C108.927 86.4029 109.269 86.5969 109.671 86.5969C110.073 86.5969 110.422 86.3949 110.706 86.007C110.99 85.6191 111.131 85.1424 111.131 84.5929C111.126 84.0434 110.984 83.5748 110.7 83.1869C110.416 82.7991 110.073 82.6051 109.671 82.6051ZM125.106 82.6051C124.704 82.6051 124.355 82.7991 124.071 83.1869C123.787 83.5829 123.646 84.0515 123.646 84.601C123.646 85.1505 123.787 85.6272 124.077 86.0151C124.361 86.4029 124.704 86.5969 125.106 86.5969C125.508 86.5969 125.856 86.3949 126.14 86.007C126.424 85.6191 126.566 85.1424 126.566 84.5929C126.566 84.0434 126.418 83.5748 126.134 83.1869C125.85 82.7991 125.508 82.6051 125.106 82.6051ZM140.54 82.6051C140.138 82.5971 139.789 82.791 139.5 83.1788C139.216 83.5667 139.068 84.0354 139.068 84.5848C139.062 85.1424 139.204 85.6111 139.488 86.007C139.772 86.3949 140.12 86.5969 140.522 86.5969C140.924 86.5969 141.273 86.4029 141.557 86.007C141.84 85.6191 141.982 85.1505 141.982 84.5929C141.982 84.0515 141.84 83.5829 141.563 83.195C141.279 82.8071 140.942 82.6132 140.54 82.6051ZM1.63116 103.008C1.22919 103.008 0.88634 103.202 0.596687 103.59C0.312946 103.986 0.171076 104.455 0.171076 105.004C0.171076 105.554 0.312946 106.022 0.596687 106.418C0.880428 106.806 1.22328 107 1.63116 107C2.03312 107 2.37598 106.806 2.65972 106.41C2.94937 106.022 3.09124 105.554 3.08533 105.004C3.08533 104.455 2.94346 103.986 2.65972 103.598C2.37598 103.218 2.03312 103.024 1.63116 103.024V103.008ZM17.0655 103.008C16.6635 103.008 16.3207 103.202 16.031 103.59C15.7473 103.978 15.6054 104.455 15.6054 105.004C15.6054 105.554 15.7473 106.022 16.031 106.418C16.3147 106.806 16.6576 107 17.0596 107C17.4674 107 17.8103 106.806 18.094 106.418C18.3778 106.03 18.5196 105.554 18.5196 105.004C18.5196 104.455 18.3778 103.994 18.094 103.606C17.8103 103.218 17.4674 103.024 17.0655 103.024V103.008ZM32.4998 103.008C32.0978 103.008 31.7491 103.202 31.4653 103.598C31.1816 103.986 31.0397 104.455 31.0397 105.004C31.0397 105.562 31.1816 106.03 31.4653 106.418C31.755 106.806 32.0978 107 32.4998 107C32.9018 107 33.2505 106.806 33.5343 106.41C33.818 106.022 33.9599 105.554 33.9599 105.004C33.954 104.455 33.8121 103.986 33.5283 103.598C33.2446 103.21 32.9018 103.024 32.4998 103.024V103.008ZM47.9341 103.008C47.5321 103.008 47.1893 103.202 46.8996 103.598C46.6159 103.986 46.474 104.455 46.474 105.004C46.474 105.554 46.6159 106.03 46.8996 106.418C47.1893 106.806 47.5321 107 47.9341 107C48.3361 107 48.6789 106.806 48.9627 106.418C49.2523 106.03 49.3942 105.554 49.3942 105.004C49.3883 104.463 49.2464 103.994 48.9627 103.606C48.6848 103.218 48.342 103.024 47.94 103.024L47.9341 103.008ZM63.3684 103.008C62.9665 103.008 62.6236 103.202 62.334 103.598C62.0502 103.986 61.9083 104.455 61.9083 105.004C61.9083 105.554 62.0502 106.03 62.334 106.418C62.6236 106.806 62.9665 107 63.3684 107C63.7704 107 64.1132 106.806 64.4029 106.418C64.6866 106.03 64.8285 105.554 64.8285 105.004C64.8226 104.455 64.6807 103.986 64.397 103.598C64.1132 103.218 63.7704 103.024 63.3684 103.024V103.008ZM78.8027 103.008C78.4008 103.008 78.0579 103.202 77.7683 103.59C77.4845 103.978 77.3427 104.455 77.3427 105.004C77.3427 105.554 77.4845 106.022 77.7683 106.418C78.052 106.806 78.3949 107 78.7968 107C79.1988 107 79.5476 106.806 79.8313 106.418C80.115 106.03 80.2569 105.554 80.2569 105.004C80.2569 104.455 80.115 103.994 79.8313 103.606C79.5476 103.218 79.2047 103.024 78.8027 103.024V103.008ZM94.2371 103.008C93.8351 103.016 93.4922 103.21 93.2085 103.606C92.9307 103.994 92.7888 104.471 92.7888 105.02C92.7947 105.57 92.9366 106.038 93.2203 106.426C93.51 106.814 93.8528 107 94.2548 107C94.6568 107 94.9996 106.798 95.2833 106.41C95.5671 106.022 95.709 105.554 95.709 105.004C95.703 104.447 95.5612 103.978 95.2715 103.598C94.9878 103.21 94.639 103.016 94.2371 103.024V103.008ZM109.671 103.008C109.269 103.008 108.921 103.202 108.637 103.598C108.353 103.986 108.211 104.455 108.211 105.004C108.211 105.554 108.353 106.03 108.637 106.418C108.921 106.806 109.269 107 109.671 107C110.073 107 110.416 106.806 110.7 106.418C110.984 106.03 111.131 105.554 111.131 105.004C111.126 104.455 110.984 103.986 110.7 103.598C110.416 103.218 110.073 103.024 109.671 103.024V103.008ZM125.106 103.008C124.704 103.008 124.355 103.202 124.071 103.598C123.787 103.986 123.646 104.455 123.646 105.004C123.646 105.554 123.787 106.03 124.071 106.418C124.355 106.806 124.704 107 125.106 107C125.508 107 125.85 106.806 126.134 106.418C126.424 106.03 126.566 105.554 126.566 105.004C126.56 104.455 126.418 103.986 126.134 103.598C125.85 103.218 125.508 103.024 125.106 103.024V103.008ZM140.54 103.008C140.138 103.008 139.789 103.194 139.5 103.582C139.216 103.97 139.068 104.438 139.068 104.996C139.062 105.545 139.204 106.022 139.488 106.41C139.772 106.806 140.12 107 140.522 107C140.924 107 141.273 106.806 141.557 106.418C141.84 106.022 141.982 105.554 141.982 105.004C141.982 104.455 141.84 103.994 141.557 103.606C141.279 103.218 140.936 103.024 140.54 103.024V103.008Z" fill="#503B29"/>
</svg>
