<svg width="128" height="128" viewBox="0 0 128 128" fill="none" xmlns="http://www.w3.org/2000/svg">
<g clip-path="url(#clip0_245_12)">
<mask id="mask0_245_12" style="mask-type:alpha" maskUnits="userSpaceOnUse" x="0" y="0" width="128" height="128">
<path d="M128 0H0V128H128V0Z" fill="#D9D9D9"/>
</mask>
<g mask="url(#mask0_245_12)">
<path d="M80.56 26.9214C79.0374 26.9214 77.7512 26.3956 76.7014 25.344C75.6516 24.2925 75.1267 23.0054 75.1267 21.4828C75.1267 19.96 75.6525 18.6739 76.704 17.624C77.7556 16.5752 79.0427 16.0508 80.5656 16.0508C82.088 16.0508 83.3744 16.5765 84.424 17.628C85.4736 18.6788 85.9984 19.9659 85.9984 21.4894C85.9984 23.012 85.4728 24.2983 84.4216 25.348C83.3696 26.397 82.0824 26.9214 80.56 26.9214ZM80.4056 111.946C78.8828 111.946 77.597 111.421 76.548 110.37C75.4983 109.318 74.9734 108.031 74.9734 106.508C74.9734 104.986 75.4992 103.699 76.5508 102.65C77.6023 101.601 78.8894 101.076 80.412 101.076C81.9344 101.076 83.2208 101.602 84.2704 102.654C85.3192 103.705 85.844 104.992 85.844 106.514C85.844 108.038 85.3184 109.323 84.268 110.374C83.2168 111.422 81.9288 111.946 80.4056 111.946ZM101.738 44.9734C100.216 44.9734 98.9304 44.4476 97.8816 43.396C96.8312 42.3445 96.3064 41.0574 96.3064 39.5348C96.3064 38.012 96.8328 36.7259 97.884 35.676C98.9352 34.6263 100.222 34.1014 101.746 34.1014C103.268 34.1014 104.554 34.6271 105.604 35.6787C106.653 36.7303 107.178 38.0174 107.178 39.54C107.178 41.0628 106.652 42.349 105.602 43.3988C104.55 44.4485 103.262 44.9734 101.738 44.9734ZM101.586 94.0496C100.062 94.0496 98.7768 93.5232 97.7264 92.472C96.6768 91.4216 96.152 90.1344 96.152 88.6104C96.152 87.088 96.6776 85.8016 97.7296 84.752C98.7808 83.7032 100.068 83.1784 101.59 83.1784C103.114 83.1784 104.401 83.7048 105.45 84.756C106.499 85.8064 107.024 87.0936 107.024 88.6176C107.024 90.14 106.498 91.4264 105.446 92.476C104.395 93.5248 103.108 94.0496 101.586 94.0496ZM109.226 69.4348C107.704 69.4348 106.418 68.909 105.368 67.8574C104.318 66.8059 103.794 65.5187 103.794 63.996C103.794 62.4734 104.319 61.1872 105.37 60.1374C106.422 59.0876 107.71 58.5628 109.232 58.5628C110.754 58.5628 112.041 59.0885 113.09 60.14C114.141 61.1916 114.666 62.4787 114.666 64.0014C114.666 65.524 114.139 66.8103 113.088 67.86C112.037 68.9099 110.75 69.4348 109.226 69.4348ZM63.9987 114.666C56.997 114.666 50.4129 113.335 44.2467 110.676C38.0805 108.017 32.7169 104.407 28.156 99.848C23.5952 95.2888 19.984 89.9272 17.3228 83.764C14.6623 77.6005 13.332 71.0152 13.332 64.008C13.332 57 14.6623 50.4129 17.3228 44.2467C19.9823 38.0805 23.592 32.7169 28.152 28.156C32.712 23.5952 38.0743 19.984 44.2388 17.3228C50.4032 14.6623 56.9899 13.332 63.9987 13.332V21.332C52.0876 21.332 41.9987 25.4654 33.732 33.732C25.4654 41.9987 21.332 52.0876 21.332 63.9987C21.332 75.9099 25.4654 85.9984 33.732 94.2656C41.9987 102.532 52.0876 106.666 63.9987 106.666V114.666ZM63.9987 73.332C61.4076 73.332 59.204 72.4245 57.388 70.6094C55.573 68.7934 54.6654 66.5899 54.6654 63.9987C54.6654 63.452 54.705 62.917 54.784 62.3934C54.8623 61.8708 55.0245 61.3699 55.2708 60.8908L44.5628 50.132L50.132 44.5628L60.8908 55.2708C61.281 55.1134 62.317 54.9116 63.9987 54.6654C66.5899 54.6654 68.7934 55.573 70.6094 57.388C72.4245 59.204 73.332 61.4076 73.332 63.9987C73.332 66.5899 72.4245 68.7934 70.6094 70.6094C68.7934 72.4245 66.5899 73.332 63.9987 73.332Z" fill="#B38D22"/>
</g>
</g>
<defs>
<clipPath id="clip0_245_12">
<rect width="128" height="128" fill="white"/>
</clipPath>
</defs>
</svg>
