<svg width="512" height="512" viewBox="0 0 512 512" fill="none" xmlns="http://www.w3.org/2000/svg">
<path d="M178.898 426.381C177.221 426.381 175.557 426.546 173.919 426.876C172.267 427.206 170.667 427.689 169.117 428.324C167.567 428.972 166.094 429.76 164.709 430.687C163.312 431.627 162.016 432.681 160.834 433.863C159.64 435.057 158.586 436.34 157.646 437.737C156.719 439.135 155.931 440.608 155.296 442.158C154.648 443.708 154.165 445.308 153.835 446.96C153.505 448.598 153.34 450.262 153.34 451.939C153.34 453.616 153.505 455.28 153.835 456.932C154.165 458.57 154.648 460.171 155.296 461.721C155.931 463.27 156.719 464.744 157.646 466.141C158.586 467.539 159.64 468.822 160.834 470.016C162.016 471.197 163.312 472.252 164.709 473.192C166.094 474.119 167.567 474.907 169.117 475.554C170.667 476.19 172.267 476.672 173.919 477.003C175.557 477.333 177.221 477.498 178.898 477.498C180.575 477.498 182.239 477.333 183.891 477.003C185.529 476.672 187.13 476.19 188.68 475.554C190.23 474.907 191.703 474.119 193.1 473.192C194.498 472.252 195.781 471.197 196.975 470.016C198.156 468.822 199.223 467.539 200.151 466.141C201.078 464.744 201.866 463.27 202.513 461.721C203.161 460.171 203.644 458.57 203.974 456.932C204.292 455.28 204.457 453.616 204.457 451.939C204.457 450.262 204.292 448.598 203.962 446.96C203.631 445.308 203.149 443.708 202.501 442.158C201.866 440.608 201.078 439.147 200.138 437.75C199.211 436.353 198.156 435.057 196.962 433.875C195.781 432.694 194.485 431.627 193.1 430.7C191.703 429.76 190.23 428.972 188.68 428.337C187.13 427.689 185.529 427.206 183.891 426.876C182.239 426.546 180.575 426.381 178.898 426.381ZM178.898 460.463C177.768 460.463 176.688 460.247 175.646 459.815C174.592 459.383 173.677 458.761 172.877 457.961C172.077 457.16 171.467 456.246 171.035 455.204C170.603 454.162 170.387 453.07 170.387 451.939C170.387 450.809 170.603 449.729 171.035 448.675C171.467 447.633 172.077 446.718 172.877 445.918C173.677 445.118 174.592 444.495 175.646 444.063C176.688 443.631 177.768 443.415 178.898 443.415C180.029 443.415 181.121 443.631 182.163 444.063C183.205 444.495 184.132 445.118 184.92 445.918C185.72 446.718 186.342 447.633 186.774 448.675C187.206 449.729 187.422 450.809 187.422 451.939C187.422 453.07 187.206 454.15 186.774 455.204C186.342 456.246 185.72 457.16 184.92 457.961C184.119 458.761 183.205 459.371 182.163 459.803C181.121 460.247 180.029 460.463 178.898 460.463ZM374.844 426.381C373.167 426.381 371.503 426.546 369.852 426.876C368.213 427.206 366.613 427.689 365.063 428.324C363.513 428.972 362.039 429.76 360.642 430.687C359.245 431.627 357.962 432.681 356.768 433.863C355.586 435.057 354.519 436.34 353.592 437.737C352.665 439.135 351.877 440.608 351.229 442.158C350.594 443.708 350.099 445.308 349.781 446.96C349.451 448.598 349.286 450.262 349.286 451.939C349.286 453.616 349.451 455.28 349.781 456.932C350.099 458.57 350.594 460.171 351.229 461.721C351.877 463.27 352.665 464.744 353.592 466.141C354.519 467.539 355.586 468.822 356.768 470.016C357.962 471.197 359.245 472.252 360.642 473.192C362.039 474.119 363.513 474.907 365.063 475.554C366.613 476.19 368.213 476.672 369.852 477.003C371.503 477.333 373.167 477.498 374.844 477.498C376.521 477.498 378.185 477.333 379.824 477.003C381.475 476.672 383.076 476.19 384.626 475.554C386.175 474.907 387.649 474.119 389.046 473.192C390.431 472.252 391.727 471.197 392.908 470.016C394.102 468.822 395.157 467.539 396.097 466.141C397.024 464.744 397.812 463.27 398.459 461.721C399.095 460.171 399.577 458.57 399.908 456.932C400.238 455.28 400.403 453.616 400.403 451.939C400.403 450.262 400.238 448.598 399.908 446.96C399.577 445.308 399.095 443.708 398.447 442.158C397.799 440.608 397.011 439.147 396.084 437.75C395.157 436.353 394.089 435.057 392.908 433.875C391.714 432.694 390.431 431.627 389.034 430.7C387.636 429.76 386.163 428.972 384.613 428.337C383.063 427.689 381.475 427.206 379.824 426.876C378.185 426.546 376.521 426.381 374.844 426.381ZM374.844 460.463C373.714 460.463 372.621 460.247 371.58 459.815C370.538 459.383 369.623 458.761 368.823 457.961C368.023 457.16 367.4 456.246 366.968 455.204C366.536 454.162 366.32 453.07 366.32 451.939C366.32 450.809 366.536 449.729 366.968 448.675C367.4 447.633 368.023 446.718 368.823 445.918C369.623 445.118 370.538 444.495 371.58 444.063C372.621 443.631 373.714 443.415 374.844 443.415C375.975 443.415 377.055 443.631 378.096 444.063C379.151 444.495 380.065 445.118 380.866 445.918C381.666 446.718 382.276 447.633 382.707 448.675C383.139 449.729 383.355 450.809 383.355 451.939C383.355 453.07 383.139 454.15 382.707 455.204C382.276 456.246 381.666 457.16 380.866 457.961C380.065 458.761 379.151 459.371 378.096 459.803C377.055 460.247 375.975 460.463 374.844 460.463ZM315.203 221.924C318.836 221.924 322.456 221.746 326.064 221.39C329.672 221.034 333.254 220.501 336.811 219.789C340.368 219.091 343.887 218.202 347.355 217.16C350.823 216.106 354.24 214.886 357.593 213.489C360.947 212.104 364.212 210.554 367.413 208.839C370.614 207.137 373.726 205.27 376.737 203.263C379.748 201.243 382.657 199.083 385.464 196.784C388.271 194.485 390.952 192.046 393.518 189.48C396.084 186.914 398.523 184.233 400.822 181.426C403.121 178.631 405.281 175.722 407.288 172.699C409.308 169.688 411.175 166.576 412.877 163.375C414.592 160.186 416.142 156.909 417.527 153.555C418.911 150.202 420.131 146.797 421.185 143.317C422.24 139.849 423.116 136.343 423.828 132.786C424.539 129.216 425.072 125.634 425.428 122.026C425.784 118.418 425.962 114.798 425.962 111.178C425.962 107.545 425.784 103.924 425.428 100.316C425.072 96.7087 424.539 93.1264 423.828 89.5696C423.116 86.0127 422.24 82.4939 421.185 79.026C420.131 75.558 418.911 72.1409 417.527 68.7872C416.142 65.4463 414.592 62.1689 412.877 58.9677C411.175 55.7665 409.308 52.6542 407.288 49.6436C405.281 46.633 403.121 43.7239 400.822 40.9166C398.523 38.1092 396.084 35.4288 393.518 32.8628C390.952 30.2967 388.271 27.8704 385.464 25.5585C382.657 23.2592 379.748 21.0997 376.737 19.0926C373.726 17.0728 370.614 15.2054 367.413 13.5032C364.212 11.7883 360.947 10.2385 357.593 8.85383C354.24 7.46919 350.823 6.24969 347.355 5.19533C343.887 4.14097 340.368 3.26445 336.811 2.55307C333.254 1.8417 329.672 1.30817 326.064 0.952477C322.456 0.596789 318.836 0.418945 315.203 0.418945C311.583 0.418945 307.962 0.596789 304.355 0.952477C300.747 1.30817 297.165 1.8417 293.608 2.55307C290.051 3.26445 286.532 4.14097 283.064 5.19533C279.583 6.24969 276.179 7.46919 272.825 8.85383C269.472 10.2385 266.194 11.7883 263.006 13.5032C259.805 15.2054 256.692 17.0728 253.682 19.0926C250.658 21.0997 247.749 23.2592 244.955 25.5585C242.147 27.8704 239.467 30.2967 236.901 32.8628C234.335 35.4288 231.896 38.1092 229.597 40.9166C227.297 43.7239 225.138 46.633 223.118 49.6436C221.111 52.6542 219.243 55.7665 217.541 58.9677C215.826 62.1689 214.277 65.4463 212.892 68.7872C211.507 72.1409 210.275 75.558 209.233 79.026C208.179 82.4939 207.29 86.0127 206.591 89.5696C205.88 93.1264 205.346 96.7087 204.991 100.316C204.635 103.924 204.457 107.545 204.457 111.178C204.47 114.798 204.648 118.418 205.003 122.026C205.359 125.634 205.892 129.216 206.604 132.773C207.315 136.33 208.204 139.836 209.259 143.304C210.313 146.772 211.533 150.189 212.93 153.53C214.315 156.884 215.864 160.161 217.579 163.349C219.282 166.551 221.149 169.663 223.169 172.674C225.176 175.684 227.335 178.593 229.635 181.401C231.934 184.195 234.373 186.888 236.939 189.442C239.492 192.008 242.185 194.447 244.98 196.746C247.787 199.045 250.696 201.205 253.707 203.225C256.718 205.232 259.83 207.099 263.031 208.814C266.22 210.516 269.497 212.066 272.851 213.463C276.192 214.848 279.609 216.067 283.077 217.122C286.545 218.176 290.051 219.065 293.608 219.777C297.165 220.488 300.747 221.022 304.355 221.377C307.962 221.733 311.583 221.924 315.203 221.924ZM315.203 17.4666C318.277 17.4666 321.339 17.619 324.387 17.9112C327.449 18.216 330.485 18.6607 333.496 19.2577C336.506 19.8675 339.479 20.6042 342.413 21.4935C345.348 22.3827 348.231 23.4243 351.064 24.593C353.909 25.7744 356.679 27.0828 359.385 28.531C362.09 29.9791 364.72 31.5543 367.273 33.2566C369.826 34.9588 372.291 36.788 374.654 38.7316C377.029 40.6752 379.303 42.7458 381.475 44.9053C383.648 47.0776 385.705 49.3514 387.649 51.7269C389.593 54.1024 391.422 56.5541 393.124 59.1074C394.826 61.6608 396.401 64.2903 397.85 66.9961C399.298 69.7019 400.606 72.4711 401.788 75.3166C402.956 78.1494 403.998 81.0331 404.887 83.9675C405.776 86.9019 406.526 89.8871 407.123 92.8851C407.72 95.8957 408.165 98.9318 408.469 101.993C408.774 105.042 408.914 108.103 408.914 111.178C408.914 114.239 408.774 117.301 408.469 120.362C408.165 123.411 407.72 126.447 407.123 129.457C406.513 132.468 405.776 135.441 404.887 138.375C403.998 141.309 402.956 144.206 401.788 147.039C400.606 149.871 399.298 152.641 397.85 155.346C396.401 158.052 394.826 160.682 393.124 163.235C391.422 165.788 389.593 168.253 387.649 170.628C385.705 172.991 383.648 175.265 381.475 177.437C379.303 179.609 377.029 181.667 374.654 183.611C372.291 185.554 369.826 187.384 367.273 189.086C364.72 190.801 362.09 192.376 359.385 193.824C356.679 195.26 353.909 196.581 351.064 197.749C348.231 198.931 345.348 199.96 342.413 200.849C339.479 201.738 336.506 202.488 333.496 203.085C330.485 203.682 327.449 204.126 324.387 204.431C321.339 204.736 318.277 204.889 315.203 204.889C312.142 204.889 309.08 204.736 306.019 204.431C302.97 204.126 299.934 203.682 296.923 203.085C293.913 202.488 290.94 201.738 288.006 200.849C285.071 199.96 282.188 198.931 279.342 197.749C276.509 196.581 273.74 195.26 271.034 193.824C268.328 192.376 265.699 190.801 263.146 189.086C260.592 187.384 258.128 185.554 255.765 183.611C253.39 181.667 251.116 179.609 248.943 177.437C246.771 175.265 244.713 172.991 242.77 170.628C240.826 168.253 238.997 165.788 237.295 163.235C235.58 160.682 234.005 158.052 232.569 155.346C231.121 152.641 229.8 149.871 228.631 147.039C227.462 144.206 226.421 141.309 225.532 138.375C224.642 135.441 223.893 132.468 223.296 129.457C222.699 126.447 222.254 123.411 221.949 120.362C221.644 117.301 221.492 114.239 221.492 111.178C221.505 108.103 221.657 105.042 221.962 101.993C222.267 98.9445 222.711 95.9084 223.321 92.8978C223.918 89.8871 224.668 86.9146 225.557 83.9802C226.446 81.0458 227.488 78.1622 228.657 75.3294C229.838 72.4966 231.146 69.7273 232.594 67.0215C234.043 64.3157 235.618 61.6862 237.32 59.1329C239.022 56.5795 240.852 54.1278 242.795 51.7523C244.751 49.3768 246.809 47.1157 248.982 44.9434C251.141 42.7712 253.415 40.7133 255.79 38.7697C258.153 36.8261 260.618 34.9969 263.171 33.2947C265.724 31.5797 268.354 30.0046 271.06 28.5564C273.765 27.1082 276.535 25.7998 279.367 24.6184C282.2 23.4497 285.084 22.4081 288.018 21.5189C290.953 20.6296 293.925 19.8802 296.936 19.2831C299.947 18.6861 302.97 18.2287 306.031 17.9239C309.08 17.619 312.142 17.4666 315.203 17.4666ZM487.61 102.654H451.52C450.39 102.654 449.297 102.87 448.256 103.302C447.214 103.734 446.287 104.356 445.486 105.144C444.686 105.944 444.076 106.871 443.644 107.913C443.213 108.955 442.997 110.047 442.997 111.178C442.997 112.308 443.213 113.388 443.644 114.43C444.076 115.471 444.686 116.399 445.486 117.199C446.287 117.999 447.214 118.609 448.256 119.041C449.297 119.473 450.39 119.689 451.52 119.689H487.61C488.461 119.689 489.3 119.854 490.087 120.184C490.887 120.527 491.586 120.997 492.209 121.607C492.818 122.217 493.288 122.915 493.619 123.716C493.949 124.503 494.114 125.342 494.114 126.193C494.114 126.777 494.038 127.349 493.873 127.908L450.136 288.285C449.399 290.991 448.243 293.506 446.68 295.818C445.118 298.142 443.213 300.162 440.989 301.852C438.766 303.554 436.327 304.862 433.672 305.752C431.018 306.654 428.299 307.111 425.492 307.111H190.674L139.569 119.689H178.898C180.029 119.689 181.121 119.473 182.163 119.041C183.205 118.609 184.132 117.999 184.92 117.199C185.72 116.399 186.342 115.471 186.774 114.43C187.206 113.388 187.422 112.308 187.422 111.178C187.422 110.047 187.206 108.955 186.774 107.913C186.342 106.871 185.72 105.944 184.92 105.144C184.132 104.356 183.205 103.734 182.163 103.302C181.121 102.87 180.029 102.654 178.898 102.654H134.933L115.611 31.8211C115.002 29.5854 114.214 27.4131 113.248 25.3044C112.27 23.1957 111.14 21.1759 109.844 19.2577C108.548 17.3268 107.1 15.523 105.512 13.8335C103.924 12.1439 102.209 10.5942 100.368 9.19681C98.5128 7.78676 96.5693 6.52915 94.5241 5.43668C92.4789 4.35692 90.3574 3.42959 88.1598 2.69281C85.9621 1.94332 83.7137 1.38438 81.4271 1.00329C79.1406 0.622194 76.8413 0.431648 74.5166 0.418945H25.5587C23.8819 0.418945 22.2178 0.584088 20.5664 0.914368C18.9277 1.24465 17.3271 1.72737 15.7773 2.37523C14.2275 3.01038 12.754 3.79798 11.3566 4.73801C9.95926 5.66534 8.67625 6.7197 7.48215 7.9138C6.30076 9.09519 5.23369 10.3909 4.30636 11.7883C3.37903 13.1729 2.59144 14.6465 1.94358 16.1962C1.30842 17.746 0.813003 19.3466 0.495422 20.998C0.165142 22.6367 0 24.3008 0 25.9777C0 27.6545 0.165142 29.3186 0.495422 30.97C0.813003 32.6087 1.30842 34.2093 1.94358 35.7591C2.59144 37.3089 3.37903 38.7824 4.30636 40.1798C5.23369 41.5771 6.30076 42.8728 7.48215 44.0542C8.67625 45.2356 9.95926 46.3027 11.3566 47.23C12.754 48.17 14.2275 48.9576 15.7773 49.5928C17.3271 50.2407 18.9277 50.7234 20.5664 51.0537C22.2178 51.3712 23.8819 51.5364 25.5587 51.5364H68.0126L128.53 273.473C126.396 273.727 124.275 274.07 122.166 274.515C120.057 274.959 117.987 275.505 115.929 276.153C113.884 276.788 111.864 277.525 109.882 278.364C107.9 279.202 105.957 280.129 104.064 281.146C102.171 282.162 100.329 283.267 98.5383 284.461C96.7471 285.643 95.0195 286.926 93.3427 288.272C91.6786 289.631 90.078 291.067 88.5409 292.578C87.0038 294.077 85.5429 295.653 84.1583 297.304C82.7737 298.943 81.4779 300.658 80.2457 302.423C79.0262 304.189 77.8829 306.018 76.8413 307.898C75.7869 309.766 74.8342 311.697 73.9577 313.653C73.0939 315.622 72.319 317.629 71.633 319.674C70.9597 321.707 70.3754 323.777 69.8927 325.873C69.41 327.969 69.0289 330.091 68.7494 332.212C68.4572 334.346 68.2794 336.493 68.2032 338.64C68.1142 340.787 68.1396 342.934 68.2667 345.08C68.381 347.227 68.6097 349.374 68.9399 351.496C69.2575 353.617 69.6894 355.726 70.2103 357.809C70.7311 359.892 71.3535 361.95 72.0776 363.983C72.789 366.003 73.6147 367.997 74.5166 369.941C75.4185 371.897 76.4221 373.802 77.5146 375.657C78.5943 377.512 79.763 379.315 81.0333 381.056C82.2909 382.796 83.6248 384.486 85.0348 386.099C86.4576 387.712 87.9438 389.262 89.5063 390.736C91.0688 392.222 92.7075 393.619 94.397 394.94C96.0993 396.261 97.8523 397.494 99.6688 398.662C101.473 399.818 103.34 400.885 105.258 401.864C107.176 402.842 109.133 403.731 111.127 404.518C113.121 405.319 115.154 406.017 117.225 406.614C119.282 407.224 121.378 407.72 123.487 408.126C125.596 408.533 127.73 408.838 129.864 409.041C132.011 409.244 134.158 409.346 136.305 409.346H137.245C135.847 410.718 134.514 412.153 133.243 413.652C131.986 415.164 130.804 416.713 129.686 418.339C128.581 419.965 127.552 421.63 126.612 423.357C125.672 425.072 124.808 426.838 124.046 428.642C123.271 430.446 122.598 432.288 122.001 434.168C121.417 436.035 120.921 437.928 120.527 439.859C120.121 441.777 119.816 443.708 119.613 445.664C119.397 447.62 119.282 449.577 119.27 451.533C119.257 453.502 119.333 455.458 119.511 457.414C119.689 459.371 119.968 461.314 120.337 463.245C120.705 465.163 121.163 467.069 121.721 468.962C122.28 470.842 122.928 472.684 123.665 474.513C124.415 476.329 125.24 478.108 126.155 479.835C127.07 481.576 128.073 483.265 129.153 484.904C130.233 486.543 131.389 488.118 132.633 489.642C133.866 491.167 135.187 492.627 136.559 494.012C137.943 495.409 139.392 496.731 140.903 497.988C142.415 499.233 143.99 500.402 145.616 501.507C147.255 502.599 148.932 503.616 150.659 504.543C152.387 505.47 154.153 506.309 155.969 507.071C157.786 507.82 159.628 508.494 161.508 509.065C163.388 509.637 165.281 510.107 167.211 510.501C169.13 510.882 171.073 511.174 173.029 511.365C174.986 511.555 176.942 511.657 178.898 511.657C180.867 511.657 182.824 511.555 184.78 511.365C186.736 511.174 188.667 510.882 190.598 510.501C192.516 510.107 194.422 509.637 196.302 509.065C198.182 508.494 200.024 507.82 201.84 507.071C203.644 506.309 205.422 505.47 207.15 504.543C208.878 503.616 210.555 502.599 212.181 501.507C213.807 500.402 215.382 499.233 216.893 497.988C218.405 496.731 219.853 495.409 221.238 494.012C222.623 492.627 223.931 491.167 225.176 489.642C226.408 488.118 227.564 486.543 228.657 484.904C229.736 483.265 230.74 481.576 231.654 479.835C232.569 478.108 233.395 476.329 234.132 474.513C234.868 472.684 235.529 470.842 236.075 468.962C236.634 467.069 237.104 465.163 237.472 463.245C237.841 461.314 238.108 459.371 238.285 457.414C238.463 455.458 238.552 453.502 238.54 451.533C238.514 449.577 238.4 447.62 238.197 445.664C237.993 443.708 237.688 441.777 237.282 439.859C236.875 437.928 236.393 436.035 235.796 434.168C235.211 432.288 234.538 430.446 233.763 428.642C232.988 426.838 232.137 425.072 231.197 423.357C230.244 421.63 229.228 419.965 228.11 418.339C227.005 416.713 225.824 415.164 224.553 413.652C223.296 412.153 221.962 410.718 220.552 409.346H333.191C331.781 410.718 330.447 412.153 329.189 413.652C327.919 415.164 326.737 416.713 325.632 418.339C324.527 419.965 323.498 421.63 322.545 423.357C321.605 425.072 320.754 426.838 319.979 428.642C319.217 430.446 318.531 432.288 317.947 434.168C317.363 436.035 316.867 437.928 316.461 439.859C316.067 441.777 315.762 443.708 315.546 445.664C315.343 447.62 315.228 449.577 315.216 451.533C315.19 453.502 315.279 455.458 315.457 457.414C315.635 459.371 315.902 461.314 316.27 463.245C316.638 465.163 317.108 467.069 317.667 468.962C318.226 470.842 318.874 472.684 319.611 474.513C320.348 476.329 321.173 478.108 322.088 479.835C323.015 481.576 324.006 483.265 325.086 484.904C326.179 486.543 327.334 488.118 328.567 489.642C329.812 491.167 331.12 492.627 332.505 494.012C333.889 495.409 335.337 496.731 336.849 497.988C338.361 499.233 339.936 500.402 341.562 501.507C343.188 502.599 344.865 503.616 346.592 504.543C348.333 505.47 350.099 506.309 351.915 507.071C353.719 507.82 355.561 508.494 357.441 509.065C359.321 509.637 361.226 510.107 363.145 510.501C365.076 510.882 367.019 511.174 368.963 511.365C370.919 511.555 372.875 511.657 374.844 511.657C376.801 511.657 378.77 511.555 380.713 511.365C382.669 511.174 384.613 510.882 386.531 510.501C388.462 510.107 390.367 509.637 392.235 509.065C394.115 508.494 395.957 507.82 397.773 507.071C399.59 506.309 401.356 505.47 403.083 504.543C404.811 503.616 406.5 502.599 408.126 501.507C409.752 500.402 411.328 499.233 412.839 497.988C414.351 496.731 415.799 495.409 417.184 494.012C418.568 492.627 419.877 491.167 421.109 489.642C422.354 488.118 423.51 486.543 424.59 484.904C425.669 483.265 426.673 481.576 427.588 479.835C428.502 478.108 429.341 476.329 430.077 474.513C430.814 472.684 431.462 470.842 432.021 468.962C432.58 467.069 433.037 465.163 433.406 463.245C433.787 461.314 434.054 459.371 434.231 457.414C434.409 455.458 434.485 453.502 434.473 451.533C434.46 449.577 434.346 447.62 434.142 445.664C433.927 443.708 433.622 441.777 433.228 439.859C432.821 437.928 432.326 436.035 431.742 434.168C431.157 432.288 430.471 430.446 429.709 428.642C428.934 426.838 428.083 425.072 427.13 423.357C426.19 421.63 425.161 419.965 424.056 418.339C422.951 416.713 421.757 415.164 420.499 413.652C419.229 412.153 417.895 410.718 416.498 409.346H434.473C436.15 409.346 437.814 409.181 439.465 408.85C441.104 408.52 442.704 408.037 444.254 407.402C445.804 406.754 447.278 405.967 448.675 405.039C450.072 404.099 451.368 403.045 452.549 401.864C453.731 400.669 454.798 399.386 455.725 397.989C456.665 396.592 457.44 395.118 458.088 393.568C458.736 392.019 459.218 390.418 459.549 388.767C459.866 387.128 460.031 385.464 460.031 383.787C460.031 382.11 459.866 380.446 459.549 378.795C459.218 377.156 458.736 375.555 458.088 374.006C457.44 372.456 456.665 370.982 455.725 369.585C454.798 368.188 453.731 366.904 452.549 365.71C451.368 364.529 450.072 363.475 448.675 362.535C447.278 361.607 445.804 360.82 444.254 360.172C442.704 359.537 441.104 359.041 439.465 358.724C437.814 358.393 436.15 358.228 434.473 358.228H136.305C135.187 358.228 134.082 358.114 132.976 357.898C131.884 357.682 130.817 357.364 129.788 356.933C128.746 356.501 127.768 355.98 126.841 355.357C125.914 354.735 125.05 354.024 124.262 353.236C123.462 352.448 122.763 351.585 122.141 350.657C121.518 349.73 120.997 348.739 120.565 347.71C120.134 346.681 119.816 345.614 119.6 344.509C119.371 343.416 119.27 342.311 119.27 341.193C119.27 340.075 119.371 338.958 119.6 337.865C119.816 336.773 120.134 335.706 120.565 334.677C120.997 333.635 121.518 332.657 122.141 331.729C122.763 330.789 123.462 329.938 124.262 329.138C125.05 328.35 125.914 327.639 126.841 327.029C127.768 326.407 128.746 325.873 129.788 325.454C130.817 325.022 131.884 324.692 132.976 324.476C134.082 324.26 135.187 324.158 136.305 324.158H425.492C427.816 324.146 430.116 323.955 432.402 323.574C434.689 323.193 436.937 322.634 439.135 321.885C441.332 321.148 443.454 320.233 445.499 319.141C447.544 318.048 449.488 316.791 451.33 315.393C453.172 313.983 454.887 312.433 456.487 310.744C458.075 309.054 459.511 307.251 460.806 305.332C462.115 303.401 463.245 301.382 464.211 299.286C465.176 297.177 465.964 295.005 466.586 292.769L510.311 132.43C510.793 130.677 511.06 128.898 511.136 127.095C511.2 125.278 511.06 123.487 510.717 121.709C510.374 119.93 509.828 118.215 509.091 116.564C508.342 114.912 507.427 113.363 506.322 111.927C505.229 110.479 503.984 109.183 502.587 108.027C501.19 106.884 499.678 105.906 498.052 105.093C496.426 104.293 494.736 103.683 492.971 103.276C491.205 102.857 489.414 102.654 487.61 102.654ZM221.492 451.939C221.492 454.734 221.225 457.503 220.679 460.247C220.133 462.991 219.32 465.659 218.253 468.237C217.186 470.829 215.877 473.281 214.315 475.605C212.765 477.93 210.999 480.077 209.017 482.058C207.048 484.04 204.889 485.806 202.564 487.356C200.24 488.905 197.788 490.227 195.196 491.294C192.618 492.361 189.95 493.174 187.206 493.72C184.475 494.266 181.693 494.533 178.898 494.533C176.104 494.533 173.334 494.266 170.59 493.72C167.847 493.174 165.179 492.361 162.6 491.294C160.021 490.227 157.557 488.905 155.232 487.356C152.908 485.806 150.761 484.04 148.779 482.058C146.81 480.077 145.044 477.93 143.482 475.605C141.932 473.281 140.624 470.829 139.544 468.237C138.477 465.659 137.664 462.991 137.13 460.247C136.584 457.503 136.305 454.734 136.305 451.939C136.305 449.145 136.584 446.375 137.13 443.631C137.664 440.888 138.477 438.22 139.544 435.641C140.624 433.05 141.932 430.598 143.482 428.273C145.044 425.949 146.81 423.802 148.779 421.82C150.761 419.838 152.908 418.073 155.232 416.523C157.557 414.973 160.021 413.652 162.6 412.585C165.179 411.518 167.847 410.705 170.59 410.159C173.334 409.612 176.104 409.346 178.898 409.346C181.693 409.346 184.462 409.625 187.206 410.171C189.95 410.718 192.618 411.531 195.196 412.598C197.775 413.677 200.227 414.986 202.552 416.536C204.876 418.098 207.036 419.864 209.005 421.833C210.986 423.815 212.752 425.961 214.302 428.286C215.852 430.611 217.173 433.062 218.24 435.641C219.307 438.233 220.12 440.888 220.666 443.631C221.212 446.375 221.492 449.145 221.492 451.939ZM417.438 451.939C417.438 454.734 417.171 457.503 416.625 460.247C416.079 462.991 415.266 465.659 414.199 468.237C413.131 470.829 411.81 473.281 410.261 475.605C408.711 477.93 406.945 480.077 404.963 482.058C402.982 484.04 400.835 485.806 398.51 487.356C396.186 488.905 393.721 490.227 391.142 491.294C388.564 492.361 385.896 493.174 383.152 493.72C380.408 494.266 377.639 494.533 374.844 494.533C372.05 494.533 369.28 494.266 366.536 493.72C363.793 493.174 361.125 492.361 358.546 491.294C355.955 490.227 353.503 488.905 351.178 487.356C348.854 485.806 346.694 484.04 344.725 482.058C342.743 480.077 340.978 477.93 339.428 475.605C337.865 473.281 336.557 470.829 335.49 468.237C334.423 465.659 333.61 462.991 333.064 460.247C332.517 457.503 332.251 454.734 332.251 451.939C332.251 449.145 332.517 446.375 333.064 443.631C333.61 440.888 334.423 438.22 335.49 435.641C336.557 433.05 337.865 430.598 339.428 428.273C340.978 425.949 342.743 423.802 344.725 421.82C346.694 419.838 348.854 418.073 351.178 416.523C353.503 414.973 355.955 413.652 358.546 412.585C361.125 411.518 363.793 410.705 366.536 410.159C369.28 409.612 372.05 409.346 374.844 409.346C377.639 409.346 380.408 409.625 383.152 410.171C385.896 410.718 388.551 411.531 391.13 412.598C393.721 413.677 396.173 414.986 398.497 416.536C400.822 418.098 402.969 419.864 404.951 421.833C406.92 423.815 408.685 425.961 410.248 428.286C411.798 430.611 413.106 433.062 414.186 435.641C415.253 438.233 416.066 440.888 416.612 443.631C417.158 446.375 417.438 449.145 417.438 451.939ZM136.305 307.111C134.069 307.111 131.859 307.327 129.661 307.771C127.463 308.203 125.329 308.851 123.271 309.702C121.201 310.566 119.232 311.608 117.377 312.853C115.51 314.098 113.795 315.508 112.207 317.095C110.632 318.671 109.222 320.398 107.977 322.253C106.732 324.12 105.677 326.077 104.826 328.147C103.962 330.218 103.315 332.352 102.883 334.537C102.451 336.735 102.235 338.958 102.235 341.193C102.235 343.429 102.451 345.639 102.883 347.837C103.315 350.035 103.962 352.169 104.826 354.227C105.677 356.297 106.732 358.266 107.977 360.121C109.222 361.988 110.632 363.703 112.207 365.291C113.795 366.866 115.51 368.276 117.377 369.521C119.232 370.766 121.201 371.821 123.271 372.672C125.329 373.536 127.463 374.171 129.661 374.615C131.859 375.047 134.069 375.263 136.305 375.263H434.473C435.603 375.263 436.696 375.479 437.737 375.911C438.779 376.343 439.706 376.965 440.494 377.766C441.294 378.566 441.917 379.481 442.349 380.522C442.781 381.564 442.997 382.656 442.997 383.787C442.997 384.918 442.781 385.997 442.349 387.052C441.917 388.093 441.294 389.008 440.494 389.808C439.706 390.609 438.779 391.231 437.737 391.663C436.696 392.095 435.603 392.311 434.473 392.311H136.305C132.951 392.311 129.623 391.98 126.333 391.32C123.043 390.672 119.841 389.694 116.742 388.411C113.642 387.128 110.695 385.553 107.913 383.685C105.118 381.831 102.54 379.709 100.164 377.334C97.7888 374.958 95.6673 372.38 93.8 369.585C91.9453 366.803 90.3701 363.856 89.0871 360.756C87.7914 357.657 86.826 354.455 86.1781 351.165C85.5175 347.875 85.1873 344.547 85.1873 341.193C85.1873 337.84 85.5175 334.511 86.1781 331.221C86.826 327.931 87.7914 324.73 89.0871 321.631C90.3701 318.531 91.9453 315.584 93.8 312.789C95.6673 310.007 97.7888 307.416 100.164 305.053C102.54 302.677 105.118 300.556 107.913 298.689C110.695 296.821 113.642 295.246 116.742 293.963C119.841 292.68 123.043 291.715 126.333 291.054C129.623 290.406 132.951 290.076 136.305 290.076H139.557C140.217 290.076 140.865 290 141.5 289.86C142.135 289.708 142.745 289.492 143.342 289.199C143.927 288.907 144.473 288.552 144.981 288.132C145.476 287.726 145.934 287.256 146.327 286.735C146.734 286.214 147.064 285.655 147.331 285.058C147.598 284.461 147.801 283.839 147.928 283.191C148.042 282.556 148.093 281.908 148.068 281.247C148.055 280.599 147.953 279.952 147.776 279.316L82.7355 40.7768C82.4942 39.8749 82.1131 39.0365 81.5796 38.2616C81.0587 37.4867 80.4363 36.8134 79.6868 36.2545C78.95 35.6829 78.137 35.251 77.2478 34.9461C76.3586 34.6539 75.4566 34.5015 74.5166 34.5015H25.5587C24.4281 34.5015 23.3357 34.2855 22.294 33.8536C21.2524 33.4217 20.3377 32.7992 19.5374 32.0117C18.7371 31.2114 18.1147 30.284 17.6828 29.2424C17.2509 28.2007 17.0349 27.1082 17.0349 25.9777C17.0349 24.8471 17.2509 23.7673 17.6828 22.7257C18.1147 21.684 18.7371 20.7567 19.5374 19.9564C20.3377 19.1561 21.2524 18.5463 22.294 18.1144C23.3357 17.6825 24.4281 17.4666 25.5587 17.4666H74.5166C77.324 17.4666 80.0425 17.9239 82.6974 18.8131C85.3524 19.715 87.7914 21.0234 90.0271 22.7257C92.2502 24.4279 94.143 26.435 95.7182 28.7596C97.2806 31.0843 98.4366 33.5995 99.1734 36.2926L173.017 307.111H136.305ZM249.553 117.199C248.74 116.399 248.118 115.484 247.673 114.43C247.228 113.388 247.013 112.295 247 111.152C247 110.022 247.216 108.929 247.648 107.875C248.08 106.82 248.689 105.893 249.502 105.093C250.303 104.293 251.23 103.67 252.272 103.238C253.326 102.806 254.418 102.59 255.562 102.603C256.692 102.603 257.785 102.832 258.826 103.276C259.881 103.708 260.795 104.343 261.596 105.156L298.168 141.729L368.823 71.0738C369.611 70.2608 370.538 69.6383 371.58 69.2064C372.634 68.7618 373.714 68.5459 374.857 68.5459C375.988 68.5332 377.08 68.7491 378.122 69.181C379.176 69.6129 380.103 70.2354 380.904 71.0357C381.704 71.836 382.326 72.7633 382.758 73.8177C383.19 74.8593 383.406 75.9518 383.393 77.0824C383.393 78.2257 383.177 79.3054 382.733 80.3598C382.301 81.4015 381.679 82.3288 380.866 83.1164L304.189 159.793C303.389 160.593 302.474 161.203 301.433 161.634C300.391 162.066 299.299 162.282 298.168 162.282C297.038 162.282 295.958 162.066 294.903 161.634C293.862 161.203 292.947 160.593 292.147 159.793L249.553 117.199Z" fill="white"/>
</svg>
