<svg xmlns="http://www.w3.org/2000/svg" width="49" height="52" viewBox="0 0 49 52" fill="none">
    <path d="M43.6726 7.44309L43.673 7.44424L47.93 20.2536C47.9846 20.4174 47.9898 20.5936 47.945 20.7603L47.945 20.7604L42.4762 41.0729C42.4258 41.2601 42.3151 41.4254 42.1612 41.5433C42.0073 41.6612 41.8188 41.7251 41.625 41.725H41.6249C41.5477 41.7249 41.4709 41.7149 41.3963 41.6951L41.3959 41.695C41.2841 41.665 41.1793 41.6132 41.0875 41.5426C40.9957 41.472 40.9187 41.3841 40.861 41.2837C40.8032 41.1834 40.7657 41.0727 40.7508 40.9578C40.7358 40.843 40.7436 40.7264 40.7738 40.6146L46.1738 20.5577L42.004 8.00945C42.0039 8.00923 42.0038 8.00901 42.0038 8.00879C41.9047 7.7245 41.7494 7.46306 41.5472 7.24003C41.3448 7.01683 41.0995 6.83668 40.826 6.71031L32.0562 2.6625H24.4375C24.0496 2.6625 23.6776 2.81659 23.4034 3.09086C23.1291 3.36513 22.975 3.73712 22.975 4.125C22.975 4.51288 23.1291 4.88487 23.4034 5.15915C23.6776 5.43342 24.0496 5.5875 24.4375 5.5875H31.4688H31.4688C31.7025 5.58755 31.9266 5.68043 32.0918 5.8457L32.0918 5.84571M43.6726 7.44309L32.0211 5.91641L32.0918 5.84571M43.6726 7.44309C43.496 6.93244 43.2182 6.46265 42.8559 6.06179C42.4936 5.66093 42.0542 5.33723 41.5639 5.11005L41.5638 5.10999M43.6726 7.44309L41.5638 5.10999M32.0918 5.84571L37.5605 11.3144M32.0918 5.84571L37.5605 11.3144M37.5605 11.3144C37.5605 11.3144 37.5606 11.3144 37.5606 11.3144C37.7258 11.4797 37.8187 11.7038 37.8188 11.9375V25.2188C37.8188 25.4525 37.7259 25.6766 37.5606 25.8419C37.3954 26.0072 37.1712 26.1 36.9375 26.1C36.7038 26.1 36.4796 26.0072 36.3144 25.8419C36.1491 25.6766 36.0563 25.4525 36.0563 25.2188V12.3024L31.1039 7.35M37.5605 11.3144L31.1039 7.35M41.5638 5.10999L32.6194 0.981151M41.5638 5.10999L32.6194 0.981151M32.6194 0.981151C32.5036 0.927482 32.3775 0.899785 32.2499 0.900001M32.6194 0.981151L32.2499 0.900001M32.2499 0.900001H32.25V1L32.2498 0.900001C32.2499 0.900001 32.2499 0.900001 32.2499 0.900001ZM32.2499 0.900001H24.4375M32.2499 0.900001H24.4375M24.4375 0.900001C23.5822 0.900001 22.7619 1.23978 22.1571 1.84458M24.4375 0.900001L22.1571 1.84458M22.1571 1.84458C21.5523 2.44939 21.2125 3.26968 21.2125 4.125M22.1571 1.84458L21.2125 4.125M21.2125 4.125C21.2125 4.98032 21.5523 5.80062 22.1571 6.40542M21.2125 4.125L22.1571 6.40542M22.1571 6.40542C22.7619 7.01023 23.5822 7.35 24.4375 7.35M22.1571 6.40542L24.4375 7.35M24.4375 7.35H31.1039M24.4375 7.35H31.1039" fill="url(#paint0_linear_9252_411577)" stroke="url(#paint1_linear_9252_411577)" stroke-width="0.2"/>
    <path d="M21.3976 28.8848L21.3976 28.8847C21.2775 28.73 21.2123 28.5396 21.2125 28.3437M21.3976 28.8848L21.3125 17.4063C21.3125 16.3702 21.7241 15.3767 22.4566 14.6441C23.1892 13.9116 24.1827 13.5 25.2188 13.5C26.2548 13.5 27.2483 13.9116 27.9809 14.6441C28.7135 15.3767 29.125 16.3702 29.125 17.4063V22.875M21.3976 28.8848L26.6813 35.6773M21.3976 28.8848L26.7813 35.643M21.2125 28.3437C21.2125 28.3437 21.2125 28.3437 21.2125 28.3437L21.3125 28.3438H21.2125V28.3437ZM21.2125 28.3437V17.4063C21.2125 16.3437 21.6346 15.3247 22.3859 14.5734C23.1372 13.8221 24.1562 13.4 25.2188 13.4C26.2813 13.4 27.3003 13.8221 28.0516 14.5734C28.8029 15.3247 29.225 16.3437 29.225 17.4063V22.8749M29.225 22.8749L29.125 22.875M29.225 22.8749V22.875H29.125M29.225 22.8749C29.2262 23.884 29.6276 24.8515 30.3412 25.5651C31.0548 26.2786 32.0222 26.68 33.0314 26.6813H35.375C35.6087 26.6813 35.8329 26.7741 35.9981 26.9394C36.1634 27.1046 36.2563 27.3288 36.2563 27.5625C36.2563 27.7962 36.1634 28.0204 35.9981 28.1856C35.8329 28.3509 35.6087 28.4438 35.375 28.4438H33.0313H33.0311C31.5548 28.4421 30.1393 27.8548 29.0954 26.8109C28.0514 25.7669 27.4642 24.3515 27.4625 22.8751V22.875V17.4063C27.4625 16.8112 27.2261 16.2405 26.8053 15.8197C26.3845 15.3989 25.8138 15.1625 25.2188 15.1625C24.6237 15.1625 24.053 15.3989 23.6322 15.8197C23.2114 16.2405 22.975 16.8112 22.975 17.4063V28.0415L28.2586 34.8339L28.2587 34.834C28.3788 34.9888 28.4439 35.1792 28.4438 35.3751M29.125 22.875L28.3438 40.8438C28.3438 41.051 28.2614 41.2497 28.1149 41.3962C27.9684 41.5427 27.7697 41.625 27.5625 41.625C27.3553 41.625 27.1566 41.5427 27.0101 41.3962C26.8636 41.2497 26.7813 41.051 26.7813 40.8438V35.643M28.4438 35.3751L28.3438 35.375H28.4438V35.3751ZM28.4438 35.3751V40.8438C28.4438 41.0775 28.3509 41.3016 28.1856 41.4669C28.0204 41.6322 27.7962 41.725 27.5625 41.725C27.3288 41.725 27.1046 41.6322 26.9394 41.4669C26.7741 41.3016 26.6813 41.0775 26.6813 40.8438V35.6773M26.6813 35.6773L26.7023 35.7044L26.7813 35.643M26.6813 35.6773V35.643H26.7813" fill="url(#paint2_linear_9252_411577)" stroke="url(#paint3_linear_9252_411577)" stroke-width="0.2"/>
    <path d="M17.4062 15.1625H17.4063C18.3531 15.1625 19.2787 14.8817 20.066 14.3557C20.8533 13.8296 21.467 13.0819 21.8293 12.2071C22.1917 11.3323 22.2865 10.3697 22.1018 9.44101C21.917 8.51232 21.4611 7.65927 20.7915 6.98973C20.122 6.32018 19.2689 5.86422 18.3402 5.67949C17.4116 5.49477 16.449 5.58957 15.5742 5.95193C14.6994 6.31428 13.9516 6.92791 13.4256 7.71521C12.8995 8.50251 12.6187 9.42812 12.6187 10.375L12.6188 10.3751C12.62 11.6444 13.1248 12.8614 14.0223 13.7589C14.9199 14.6564 16.1368 15.1612 17.4062 15.1625ZM17.4063 7.35C18.0045 7.35 18.5894 7.52742 19.0869 7.85981C19.5843 8.1922 19.972 8.66464 20.201 9.21738C20.4299 9.77013 20.4898 10.3784 20.3731 10.9652C20.2564 11.5519 19.9683 12.0909 19.5452 12.514C19.1222 12.9371 18.5832 13.2252 17.9964 13.3419C17.4096 13.4586 16.8014 13.3987 16.2486 13.1697C15.6959 12.9408 15.2234 12.5531 14.8911 12.0556C14.5587 11.5581 14.3813 10.9733 14.3813 10.375C14.3813 9.57272 14.7 8.8033 15.2673 8.236C15.8346 7.66871 16.604 7.35 17.4063 7.35Z" fill="url(#paint4_linear_9252_411577)" stroke="url(#paint5_linear_9252_411577)" stroke-width="0.2"/>
    <path d="M8.16698 41.7205C8.12233 41.7231 8.07677 41.725 8.03143 41.725C8.03137 41.725 8.03131 41.725 8.03125 41.725V41.625C7.15824 41.6266 6.30222 41.3838 5.55997 40.9243C4.81771 40.4647 4.21884 39.8066 3.83105 39.0245C3.44327 38.2423 3.28204 37.3673 3.3656 36.4983C3.44916 35.6293 3.77418 34.801 4.30391 34.1071L8.16698 41.7205ZM8.16698 41.7205C7.85381 42.6847 7.8551 43.7251 8.17294 44.6905C8.5066 45.704 9.1699 46.5767 10.0571 47.1694C10.9444 47.7622 12.0045 48.0409 13.0685 47.9611C14.0669 47.8863 15.0148 47.5 15.7797 46.8592L8.16698 41.7205ZM0.9 22.0938C0.9 27.8482 2.59698 31.7305 4.18129 34.1038L20.5313 41.625L20.5312 41.525C20.5312 41.525 20.5312 41.525 20.5312 41.525C19.4094 41.5253 18.326 41.9216 17.4703 42.6405C17.3403 41.51 16.8113 40.4602 15.9749 39.6822C15.0903 38.8593 13.9271 38.4012 12.7189 38.4H12.7188C12.6733 38.4 12.6277 38.402 12.5829 38.4046C12.876 37.5003 12.8931 36.528 12.6303 35.6121C12.3535 34.6476 11.7802 33.7947 10.9917 33.1741C10.2032 32.5536 9.23939 32.1969 8.23687 32.1546C7.26801 32.1137 6.31046 32.3684 5.49086 32.8837C4.10318 30.7147 2.6625 27.2296 2.6625 22.0938C2.6625 18.2096 4.187 15.9038 5.73776 14.5598C7.291 13.2137 8.87733 12.8271 9.0057 12.7976C9.23368 12.7466 9.43209 12.6071 9.5573 12.4099C9.68258 12.2126 9.72433 11.9735 9.67338 11.7454C9.62243 11.5173 9.48295 11.3188 9.28562 11.1935C9.08829 11.0682 8.84928 11.0265 8.62117 11.0774L8.64297 11.175L8.62202 11.0773C8.57434 11.0875 6.64655 11.5435 4.72866 13.1458C2.80686 14.7513 0.9 17.5041 0.9 22.0938ZM5.00625 36.9375C5.00625 36.3393 5.18366 35.7544 5.51606 35.2569C5.84845 34.7595 6.32089 34.3718 6.87363 34.1428C7.42638 33.9139 8.03461 33.8539 8.6214 33.9707C9.20819 34.0874 9.7472 34.3755 10.1702 34.7985C10.5933 35.2216 10.8814 35.7606 10.9981 36.3474C11.1148 36.9342 11.0549 37.5424 10.826 38.0952C10.597 38.6479 10.2093 39.1203 9.71185 39.4527C9.21439 39.7851 8.62954 39.9625 8.03125 39.9625C7.22897 39.9625 6.45955 39.6438 5.89225 39.0765C5.32495 38.5092 5.00625 37.7398 5.00625 36.9375ZM12.7188 46.2125C12.1205 46.2125 11.5356 46.0351 11.0382 45.7027C10.5407 45.3703 10.153 44.8979 9.92402 44.3452C9.69506 43.7924 9.63516 43.1842 9.75188 42.5974C9.8686 42.0106 10.1567 41.4716 10.5798 41.0485C11.0028 40.6255 11.5418 40.3374 12.1286 40.2207C12.7154 40.1039 13.3236 40.1639 13.8764 40.3928C14.4291 40.6218 14.9016 41.0095 15.2339 41.5069C15.5663 42.0044 15.7438 42.5893 15.7438 43.1875C15.7438 43.9898 15.425 44.7592 14.8577 45.3265C14.2905 45.8938 13.521 46.2125 12.7188 46.2125ZM20.5313 49.3375C19.933 49.3375 19.3481 49.1601 18.8507 48.8277C18.3532 48.4953 17.9655 48.0229 17.7365 47.4702C17.5076 46.9174 17.4477 46.3092 17.5644 45.7224C17.6811 45.1356 17.9692 44.5966 18.3923 44.1735C18.8153 43.7505 19.3543 43.4624 19.9411 43.3457C20.5279 43.2289 21.1361 43.2888 21.6889 43.5178C22.2416 43.7468 22.7141 44.1345 23.0464 44.6319C23.3788 45.1294 23.5563 45.7143 23.5563 46.3125C23.5563 47.1148 23.2375 47.8842 22.6702 48.4515C22.103 49.0188 21.3335 49.3375 20.5313 49.3375Z" fill="url(#paint6_linear_9252_411577)" stroke="url(#paint7_linear_9252_411577)" stroke-width="0.2"/>
    <defs>
        <linearGradient id="paint0_linear_9252_411577" x1="14.4974" y1="1.88315" x2="33.4364" y2="22.3819" gradientUnits="userSpaceOnUse">
            <stop stop-color="#FFE7B9"/>
            <stop offset="1" stop-color="#CAA969"/>
        </linearGradient>
        <linearGradient id="paint1_linear_9252_411577" x1="14.4974" y1="1.88315" x2="33.4364" y2="22.3819" gradientUnits="userSpaceOnUse">
            <stop stop-color="#FFE7B9"/>
            <stop offset="1" stop-color="#CAA969"/>
        </linearGradient>
        <linearGradient id="paint2_linear_9252_411577" x1="17.5041" y1="14.1114" x2="30.5377" y2="25.4984" gradientUnits="userSpaceOnUse">
            <stop stop-color="#FFE7B9"/>
            <stop offset="1" stop-color="#CAA969"/>
        </linearGradient>
        <linearGradient id="paint3_linear_9252_411577" x1="17.5041" y1="14.1114" x2="30.5377" y2="25.4984" gradientUnits="userSpaceOnUse">
            <stop stop-color="#FFE7B9"/>
            <stop offset="1" stop-color="#CAA969"/>
        </linearGradient>
        <linearGradient id="paint4_linear_9252_411577" x1="10.3134" y1="5.8913" x2="14.1942" y2="12.3154" gradientUnits="userSpaceOnUse">
            <stop stop-color="#FFE7B9"/>
            <stop offset="1" stop-color="#CAA969"/>
        </linearGradient>
        <linearGradient id="paint5_linear_9252_411577" x1="10.3134" y1="5.8913" x2="14.1942" y2="12.3154" gradientUnits="userSpaceOnUse">
            <stop stop-color="#FFE7B9"/>
            <stop offset="1" stop-color="#CAA969"/>
        </linearGradient>
        <linearGradient id="paint6_linear_9252_411577" x1="-5.21492" y1="12.0224" x2="13.4177" y2="30.7741" gradientUnits="userSpaceOnUse">
            <stop stop-color="#FFE7B9"/>
            <stop offset="1" stop-color="#CAA969"/>
        </linearGradient>
        <linearGradient id="paint7_linear_9252_411577" x1="-5.21492" y1="12.0224" x2="13.4177" y2="30.7741" gradientUnits="userSpaceOnUse">
            <stop stop-color="#FFE7B9"/>
            <stop offset="1" stop-color="#CAA969"/>
        </linearGradient>
    </defs>
</svg>