<svg width="512" height="513" viewBox="0 0 512 513" fill="none" xmlns="http://www.w3.org/2000/svg">
<path d="M339.617 115.728C338.373 119.487 339.72 123.613 343.036 125.908L382.513 153.756L367.42 198.804C366.177 202.564 367.558 206.656 370.839 208.985C374.12 211.314 378.576 211.314 381.857 208.985L421.369 181.138L460.88 208.985C462.504 210.15 464.438 210.715 466.372 210.715C468.306 210.715 470.24 210.15 471.898 208.985C475.179 206.656 476.561 202.564 475.317 198.804L460.224 153.756L499.701 125.908C503.017 123.613 504.364 119.487 503.12 115.728C501.877 112.001 498.251 109.44 494.21 109.44H445.373L430.279 64.3912C429.036 60.6649 425.444 58.103 421.369 58.103C417.293 58.103 413.701 60.6649 412.458 64.3912L397.365 109.44H348.528C344.487 109.44 340.86 112.001 339.617 115.728ZM404.169 127.672C408.244 127.672 411.836 125.11 413.114 121.35L421.369 96.6636L429.623 121.35C430.901 125.11 434.493 127.672 438.569 127.672H465.301L443.68 142.91C440.365 145.239 439.018 149.331 440.261 153.09L448.516 177.777L426.895 162.539C425.237 161.375 423.303 160.776 421.369 160.776C419.434 160.776 417.5 161.375 415.842 162.539L394.222 177.777L402.476 153.09C403.72 149.331 402.338 145.239 399.057 142.91L377.402 127.672H404.169Z" fill="white"/>
<path d="M131.178 209.222C132.843 210.39 134.784 210.957 136.726 210.957C138.668 210.957 140.609 210.39 142.274 209.222C145.568 206.887 146.955 202.784 145.672 199.015L130.554 153.848L170.186 125.927C173.48 123.625 174.867 119.489 173.619 115.719C172.371 111.983 168.73 109.415 164.673 109.415H115.644L100.492 64.2478C99.2437 60.5117 95.6377 57.9431 91.5462 57.9431C87.4547 57.9431 83.8486 60.5117 82.5657 64.2478L67.448 109.415H18.4193C14.3278 109.415 10.7218 111.983 9.47352 115.719C8.19059 119.489 9.57754 123.625 12.8715 125.927L52.5383 153.848L37.3859 199.015C36.1376 202.784 37.5245 206.887 40.8186 209.222C44.1126 211.558 48.5855 211.558 51.8795 209.222L91.5462 181.302L131.178 209.222ZM64.258 177.932L72.5797 153.181C73.8279 149.411 72.441 145.308 69.147 142.973L47.4066 127.695H74.2787C78.3702 127.695 81.9762 125.126 83.2245 121.357L91.5462 96.6052L99.8332 121.357C101.116 125.126 104.722 127.695 108.814 127.695H135.651L113.945 142.973C110.617 145.308 109.264 149.411 110.513 153.181L118.8 177.932L97.094 162.654C95.4296 161.487 93.4879 160.886 91.5462 160.886C89.6045 160.886 87.6627 161.487 85.9984 162.654L64.258 177.932Z" fill="white"/>
<path d="M177.959 67.984L217.625 95.9048L202.473 141.072C201.19 144.808 202.577 148.944 205.871 151.246C209.2 153.581 213.673 153.581 216.967 151.246L256.599 123.359L296.265 151.246C297.93 152.413 299.871 153.014 301.813 153.014C303.755 153.014 305.697 152.413 307.326 151.246C310.655 148.944 312.007 144.808 310.759 141.072L295.606 95.9048L335.273 67.984C338.567 65.6489 339.954 61.5458 338.706 57.7764C337.423 54.0069 333.817 51.4717 329.725 51.4717H280.731L265.579 6.3047C264.296 2.53522 260.69 0 256.599 0C252.542 0 248.901 2.53522 247.653 6.3047L232.5 51.4717H183.506C179.415 51.4717 175.809 54.0069 174.526 57.7764C173.278 61.5458 174.665 65.6489 177.959 67.984ZM239.366 69.7186C243.423 69.7186 247.063 67.1834 248.312 63.4139L256.599 38.6621L264.92 63.4139C266.169 67.1834 269.775 69.7186 273.866 69.7186H300.738L278.998 85.03C275.704 87.3317 274.317 91.4681 275.565 95.2376L283.887 119.989L262.146 104.678C260.482 103.51 258.54 102.943 256.599 102.943C254.657 102.943 252.715 103.51 251.085 104.678L229.345 119.989L237.632 95.2376C238.915 91.4681 237.528 87.3317 234.234 85.03L212.494 69.7186H239.366Z" fill="white"/>
<path d="M382.56 385.454C380.271 382.252 377.844 379.116 375.313 376.08L357.698 357.834C354.751 355.232 351.7 352.696 348.545 350.261C338.593 342.589 327.81 336.051 316.437 330.747C323.337 323.108 328.885 314.501 333.011 305.094C338.143 293.285 340.778 280.743 340.778 267.833C340.778 254.924 338.143 242.381 333.011 230.572C328.018 219.164 320.91 208.923 311.825 200.149C302.775 191.343 292.2 184.438 280.445 179.634C268.24 174.63 255.307 172.095 241.958 172.095C228.643 172.095 215.71 174.63 203.504 179.634C191.75 184.438 181.175 191.343 172.125 200.149C163.04 208.923 155.932 219.164 150.939 230.572C145.807 242.381 143.172 254.924 143.172 267.833C143.172 280.743 145.807 293.285 150.939 305.094C155.169 314.735 160.925 323.575 168.103 331.381C157.18 336.584 146.848 342.889 137.243 350.295C124.206 360.369 112.729 372.211 103.228 385.487C83.4988 413.075 73.062 445.465 73.062 479.157V479.391C73.062 497.471 88.2491 512.182 106.904 512.182H378.884C397.573 512.182 412.76 497.471 412.76 479.391V479.157C412.76 470.084 411.998 461.144 410.507 452.337L406.554 434.924C404.543 427.852 402.012 420.947 399.03 414.209L389.564 396.062C387.379 392.459 385.056 388.923 382.56 385.454ZM163.907 267.833C163.907 247.618 172.021 228.637 186.757 214.327C201.528 200.049 221.119 192.177 241.958 192.177C262.831 192.177 282.422 200.049 297.193 214.327C311.929 228.637 320.043 247.618 320.043 267.833C320.043 288.015 311.929 307.029 297.193 321.306C282.422 335.617 262.831 343.456 241.958 343.456C221.119 343.456 201.528 335.617 186.757 321.306C172.021 307.029 163.907 288.015 163.907 267.833ZM392.025 479.391C392.025 486.396 386.131 492.1 378.884 492.1H106.904C99.6914 492.1 93.7969 486.396 93.7969 479.391V479.157C93.7969 449.569 102.951 421.147 120.253 396.929C128.609 385.254 138.665 374.846 150.142 366.006C160.786 357.8 172.472 351.095 184.919 345.991C190.71 349.961 196.916 353.33 203.504 356.032C215.71 361.036 228.643 363.538 241.958 363.538C255.307 363.538 268.24 361.036 280.445 356.032C287.276 353.23 293.725 349.694 299.724 345.524C312.588 350.662 324.689 357.533 335.646 365.973C347.123 374.846 357.178 385.254 365.535 396.929C382.872 421.114 392.025 449.569 392.025 479.157V479.391Z" fill="white"/>
<path d="M289.003 387.934C282.824 381.927 274.654 378.623 265.968 378.623C257.283 378.623 249.147 381.894 243.003 387.867C236.858 381.894 228.722 378.623 220.071 378.623C211.351 378.623 203.181 381.927 197.036 387.967C190.891 393.974 187.493 401.983 187.493 410.492C187.493 419.035 190.891 427.044 197.036 433.051L236.583 471.76C238.265 473.429 240.6 474.363 243.003 474.363C245.406 474.363 247.774 473.429 249.456 471.76L289.003 433.051C295.148 427.044 298.546 419.035 298.546 410.492C298.546 401.983 295.148 393.974 289.003 387.934ZM280.352 410.492C280.352 414.263 278.842 417.8 276.13 420.436L243.037 452.873L209.91 420.436C207.198 417.8 205.687 414.263 205.687 410.492C205.687 406.755 207.198 403.217 209.91 400.548C212.622 397.878 216.226 396.41 220.071 396.41C223.916 396.41 227.52 397.878 230.267 400.548L236.583 406.755C238.3 408.39 240.634 409.357 243.037 409.357C245.44 409.357 247.774 408.39 249.456 406.755L255.807 400.548C258.519 397.878 262.124 396.41 265.968 396.41C269.813 396.41 273.418 397.878 276.13 400.548C278.842 403.184 280.352 406.721 280.352 410.492Z" fill="white"/>
</svg>
