<svg xmlns="http://www.w3.org/2000/svg" width="48" height="50" viewBox="0 0 48 50" fill="none">
    <path d="M29.0525 50.0001C26.6441 50.0001 25.7324 46.7978 24.6763 43.09C23.6619 39.5272 22.3991 35.0927 19.9685 35.0161C17.4979 35.0933 16.2346 39.5278 15.2201 43.0906C14.1646 46.7979 13.2523 49.9995 10.8445 50.0001C10.7601 50.0001 10.674 49.9957 10.5868 49.9868C4.16781 49.3051 3.83448 40.1122 3.59059 33.4C3.5717 32.8783 3.55336 32.3733 3.53281 31.8916C3.43781 29.6788 2.66058 27.8971 1.83724 26.011C0.933897 23.9421 0 21.8032 0 19.0732C0 12.8998 5.02282 7.87695 11.1962 7.87695C13.3501 7.87695 14.8679 8.59307 16.2079 9.22474C17.4274 9.79975 18.4813 10.297 19.948 10.2975C21.4141 10.297 22.4674 9.79975 23.6874 9.22474C25.0269 8.59307 26.5458 7.87695 28.6991 7.87695C34.8731 7.87695 39.8959 12.8998 39.8959 19.0732C39.8959 21.8032 38.962 23.9426 38.0587 26.011C37.2359 27.8977 36.4581 29.6788 36.3631 31.8916C36.3425 32.3733 36.3242 32.8777 36.3053 33.4C36.062 40.1122 35.7281 49.3056 29.3091 49.9868C29.2236 49.9957 29.1375 50.0001 29.0536 50.0001C29.053 50.0001 29.0525 50.0001 29.0525 50.0001ZM19.9485 32.7933L20.0368 32.7949C24.0919 32.9233 25.5374 38.0017 26.8136 42.4817C27.3408 44.3328 28.3219 47.7779 29.0525 47.7779L29.0764 47.7762C33.5786 47.299 33.872 39.2189 34.0864 33.3188C34.1053 32.7922 34.1236 32.2827 34.1447 31.7961C34.257 29.1694 35.1553 27.1116 36.0237 25.1221C36.8731 23.1765 37.6753 21.3387 37.6753 19.0726C37.6753 14.1242 33.6492 10.0986 28.7008 10.0986C27.0452 10.0986 25.8752 10.6503 24.6374 11.2342C23.2985 11.8659 21.9141 12.5187 19.9496 12.5192C17.9846 12.5187 16.6001 11.8659 15.2618 11.2342C14.0235 10.6503 12.8534 10.0986 11.1979 10.0986C6.2495 10.0986 2.22391 14.1242 2.22391 19.0726C2.22391 21.3387 3.02558 23.1765 3.87559 25.1221C4.74393 27.1116 5.64227 29.1694 5.7545 31.7961C5.77561 32.2827 5.79394 32.7922 5.81283 33.3188C6.02728 39.2189 6.32061 47.299 10.8229 47.7762C11.5757 47.7762 12.5573 44.3328 13.084 42.4828C14.3607 38.0022 15.8063 32.9238 19.8596 32.7949C19.8702 32.7944 19.9363 32.7933 19.9485 32.7933Z" fill="url(#paint0_linear_9252_411583)"/>
    <path d="M7.61105 27.7532C7.16104 27.7532 6.73826 27.4782 6.57104 27.0321C6.21326 26.081 5.82437 25.1899 5.48103 24.4037C5.37936 24.1721 5.28325 23.9504 5.19158 23.736C4.94991 23.1715 5.21158 22.5193 5.77603 22.277C6.34048 22.0365 6.99326 22.2971 7.23493 22.8615L7.51771 23.5137C7.87272 24.326 8.27383 25.2454 8.65161 26.2515C8.86773 26.826 8.57661 27.4671 8.00216 27.6821C7.87327 27.7299 7.74105 27.7532 7.61105 27.7532Z" fill="url(#paint1_linear_9252_411583)"/>
    <path d="M5.02348 20.4023C4.43514 20.4023 3.94458 19.94 3.91458 19.3462C3.90903 19.2295 3.90625 19.1112 3.90625 18.9917C3.90625 15.41 6.82016 12.4961 10.4019 12.4961C11.0152 12.4961 11.513 12.9939 11.513 13.6072C11.513 14.2206 11.0152 14.7183 10.4019 14.7183C8.04573 14.7183 6.12849 16.6356 6.12849 18.9917C6.12849 19.0739 6.13016 19.1556 6.13405 19.2362C6.1646 19.8495 5.69238 20.3706 5.07959 20.4012C5.0607 20.4017 5.04182 20.4023 5.02348 20.4023Z" fill="url(#paint2_linear_9252_411583)"/>
    <path d="M35.4627 6.98062C34.8493 6.98062 34.3516 6.48283 34.3516 5.86949V1.11112C34.3516 0.497782 34.8493 0 35.4627 0C36.076 0 36.5738 0.497782 36.5738 1.11112V5.86949C36.5738 6.48339 36.076 6.98062 35.4627 6.98062Z" fill="url(#paint3_linear_9252_411583)"/>
    <path d="M46.7883 13.4527H41.7205C41.1072 13.4527 40.6094 12.9549 40.6094 12.3416C40.6094 11.7283 41.1072 11.2305 41.7205 11.2305H46.7883C47.4017 11.2305 47.8994 11.7283 47.8994 12.3416C47.8994 12.9549 47.4022 13.4527 46.7883 13.4527Z" fill="url(#paint4_linear_9252_411583)"/>
    <path d="M40.4227 8.96656L38.8516 7.39544L42.7694 3.47707C43.2033 3.04429 43.9072 3.04373 44.3411 3.47762C44.7744 3.91152 44.7744 4.61541 44.3405 5.0493L40.4227 8.96656Z" fill="url(#paint5_linear_9252_411583)"/>
    <defs>
        <linearGradient id="paint0_linear_9252_411583" x1="-10.236" y1="8.79267" x2="7.6262" y2="36.7976" gradientUnits="userSpaceOnUse">
            <stop stop-color="#FFE7B9"/>
            <stop offset="1" stop-color="#CAA969"/>
        </linearGradient>
        <linearGradient id="paint1_linear_9252_411583" x1="4.17242" y1="22.3085" x2="6.76807" y2="25.1043" gradientUnits="userSpaceOnUse">
            <stop stop-color="#FFE7B9"/>
            <stop offset="1" stop-color="#CAA969"/>
        </linearGradient>
        <linearGradient id="paint2_linear_9252_411583" x1="1.95461" y1="12.668" x2="5.28473" y2="17.9717" gradientUnits="userSpaceOnUse">
            <stop stop-color="#FFE7B9"/>
            <stop offset="1" stop-color="#CAA969"/>
        </linearGradient>
        <linearGradient id="paint3_linear_9252_411583" x1="33.7814" y1="0.151753" x2="36.4742" y2="1.5708" gradientUnits="userSpaceOnUse">
            <stop stop-color="#FFE7B9"/>
            <stop offset="1" stop-color="#CAA969"/>
        </linearGradient>
        <linearGradient id="paint4_linear_9252_411583" x1="38.739" y1="11.2788" x2="39.1092" y2="13.2891" gradientUnits="userSpaceOnUse">
            <stop stop-color="#FFE7B9"/>
            <stop offset="1" stop-color="#CAA969"/>
        </linearGradient>
        <linearGradient id="paint5_linear_9252_411583" x1="37.3598" y1="3.27874" x2="39.7665" y2="7.26292" gradientUnits="userSpaceOnUse">
            <stop stop-color="#FFE7B9"/>
            <stop offset="1" stop-color="#CAA969"/>
        </linearGradient>
    </defs>
</svg>