<svg xmlns="http://www.w3.org/2000/svg" version="1.1" xmlns:xlink="http://www.w3.org/1999/xlink" width="125" height="72"><svg width="125" height="72" viewBox="0 0 125 72" fill="none" xmlns="http://www.w3.org/2000/svg">
<g clip-path="url(#clip0_254_5)">
<mask id="SvgjsMask1003" style="mask-type:luminance" maskUnits="userSpaceOnUse" x="-49" y="0" width="224" height="108">
<path d="M175 0H-49V108H175V0Z" fill="white"></path>
</mask>
<g mask="url(#mask0_254_5)">
<path d="M7.65616 43.2969C7.91666 43.7396 8.12496 44.1953 8.28116 44.6641C8.46346 45.1328 8.65886 45.7448 8.86716 46.5C8.97136 46.7604 9.06246 47.0599 9.14056 47.3984C10.0521 50.3932 11.7839 52.6979 14.3359 54.3125C16.888 55.9271 19.8047 56.7344 23.0859 56.7344C24.8047 56.7344 26.4714 56.4349 28.0859 55.8359C29.7266 55.2109 31.0677 54.2865 32.1094 53.0625C33.1771 51.8125 33.7109 50.3021 33.7109 48.5312C33.7109 46.9948 33.1641 45.5625 32.0703 44.2344C31.0026 42.9062 29.6615 41.7214 28.0469 40.6797C26.4583 39.612 24.2578 38.2969 21.4453 36.7344C18.138 34.9115 15.4557 33.2969 13.3984 31.8906C11.3411 30.4844 9.59636 28.8177 8.16406 26.8906C6.73176 24.9375 6.01556 22.737 6.01556 20.2891C6.01556 17.2682 6.86196 14.7812 8.55466 12.8281C10.2734 10.849 12.4609 9.41667 15.1172 8.53125C17.7995 7.61979 20.625 7.16406 23.5938 7.16406C26.1458 7.16406 28.6849 7.47656 31.2109 8.10156C33.763 8.72656 36.1849 9.625 38.4766 10.7969L38.9844 21.9297H36.5625C36.25 21.3307 35.8854 20.3802 35.4688 19.0781L35.0781 17.9453C34.1927 15.3932 32.6562 13.4661 30.4688 12.1641C28.3073 10.8359 25.8073 10.1719 22.9688 10.1719C21.5104 10.1719 20.0391 10.4193 18.5547 10.9141C17.0703 11.4089 15.8203 12.1771 14.8047 13.2188C13.8151 14.2344 13.3203 15.4974 13.3203 17.0078C13.3203 18.4141 13.8411 19.7292 14.8828 20.9531C15.9245 22.1771 17.2135 23.2969 18.75 24.3125C20.2865 25.3021 22.4089 26.5521 25.1172 28.0625C28.5807 29.9896 31.3802 31.6953 33.5156 33.1797C35.6771 34.638 37.513 36.4089 39.0234 38.4922C40.5599 40.5755 41.3281 42.9323 41.3281 45.5625C41.3281 48.8177 40.4297 51.5391 38.6328 53.7266C36.8359 55.888 34.5052 57.4766 31.6406 58.4922C28.8021 59.5078 25.7812 60.0156 22.5781 60.0156C19.7135 60.0156 16.6276 59.6641 13.3203 58.9609C10.0391 58.2318 7.38276 57.2422 5.35156 55.9922V43.375L7.65616 43.2969ZM73.594 10.1328C72.891 10.4193 72.227 10.6536 71.602 10.8359C70.977 10.9922 70.247 11.1484 69.414 11.3047C68.19 11.5391 67.279 11.8125 66.68 12.125C66.081 12.4115 65.599 13.0234 65.234 13.9609C64.896 14.8724 64.727 16.2917 64.727 18.2188V52.3594C64.727 55.7448 64.323 58.8958 63.516 61.8125C62.708 64.7552 61.289 67.1901 59.258 69.1172C57.253 71.0443 54.557 72.0078 51.172 72.0078C50.026 72.0078 48.8542 71.8516 47.6562 71.5391C46.4583 71.2266 45.4427 70.6927 44.6094 69.9375C43.776 69.2083 43.3594 68.2578 43.3594 67.0859C43.3594 66.0964 43.6979 65.2891 44.375 64.6641C45.026 64.0651 45.8464 63.7656 46.8359 63.7656C47.513 63.7656 48.0729 63.8958 48.5156 64.1562C48.9844 64.4167 49.349 64.7161 49.6094 65.0547C49.8958 65.4193 50.2214 65.9141 50.5859 66.5391C50.9766 67.2943 51.354 67.8542 51.719 68.2188C52.109 68.6094 52.617 68.8047 53.242 68.8047C55.299 68.8047 56.328 65.4583 56.328 58.7656V18.5703C56.328 16.5391 56.146 15.0417 55.781 14.0781C55.443 13.1146 54.948 12.4766 54.297 12.1641C53.672 11.8255 52.669 11.5 51.289 11.1875C49.6745 10.849 48.3854 10.5104 47.4219 10.1719L47.5391 8.14062H73.594V10.1328ZM85.664 18.6094C85.664 16.5 85.495 14.9635 85.156 14C84.818 13.0104 84.323 12.3464 83.672 12.0078C83.021 11.6693 81.966 11.3568 80.508 11.0703C78.737 10.6797 77.461 10.3672 76.68 10.1328L76.758 8.14062H103.164V10.1719C102.409 10.4844 101.732 10.7188 101.133 10.875C100.534 11.0052 99.74 11.1615 98.75 11.3438C97.5 11.5521 96.576 11.8125 95.977 12.125C95.378 12.4115 94.909 13.0234 94.57 13.9609C94.258 14.8984 94.102 16.3698 94.102 18.375V46.8125C94.102 49.9635 94.401 52.151 95 53.375C95.625 54.5729 96.784 55.3281 98.477 55.6406C100.169 55.9531 103.268 56.1094 107.773 56.1094C110.638 56.1094 113.047 55.7448 115 55.0156C116.979 54.2604 118.555 52.763 119.727 50.5234L120.312 49.3516C120.729 48.4922 121.107 47.776 121.445 47.2031C121.784 46.6042 122.174 46.0573 122.617 45.5625L124.961 45.6406L122.5 59.4297C119.01 59.1432 116.159 59 113.945 59H76.719L76.641 56.8906C77.031 56.7604 77.865 56.513 79.141 56.1484C80.625 55.7578 81.797 55.3802 82.656 55.0156C83.516 54.625 84.232 54.013 84.805 53.1797C85.378 52.3203 85.664 51.1354 85.664 49.625V18.6094Z" fill="#B38D22"></path>
</g>
</g>
<defs>
<clipPath id="SvgjsClipPath1002">
<rect width="125" height="72" fill="white"></rect>
</clipPath>
</defs>
</svg><style>@media (prefers-color-scheme: light) { :root { filter: none; } }
@media (prefers-color-scheme: dark) { :root { filter: none; } }
</style></svg>