<svg width="153" height="98" viewBox="0 0 153 98" fill="none" xmlns="http://www.w3.org/2000/svg">
<g clip-path="url(#clip0_115_393)">
<path d="M20.6562 40.2969C20.9167 40.7396 21.125 41.1953 21.2812 41.6641C21.4635 42.1328 21.6589 42.7448 21.8672 43.5C21.9714 43.7604 22.0625 44.0599 22.1406 44.3984C23.0521 47.3932 24.7839 49.6979 27.3359 51.3125C29.888 52.9271 32.8047 53.7344 36.0859 53.7344C37.8047 53.7344 39.4714 53.4349 41.0859 52.8359C42.7266 52.2109 44.0677 51.2865 45.1094 50.0625C46.1771 48.8125 46.7109 47.3021 46.7109 45.5312C46.7109 43.9948 46.1641 42.5625 45.0703 41.2344C44.0026 39.9062 42.6615 38.7214 41.0469 37.6797C39.4583 36.612 37.2578 35.2969 34.4453 33.7344C31.138 31.9115 28.4557 30.2969 26.3984 28.8906C24.3411 27.4844 22.5964 25.8177 21.1641 23.8906C19.7318 21.9375 19.0156 19.737 19.0156 17.2891C19.0156 14.2682 19.862 11.7812 21.5547 9.82812C23.2734 7.84896 25.4609 6.41667 28.1172 5.53125C30.7995 4.61979 33.625 4.16406 36.5938 4.16406C39.1458 4.16406 41.6849 4.47656 44.2109 5.10156C46.763 5.72656 49.1849 6.625 51.4766 7.79688L51.9844 18.9297H49.5625C49.25 18.3307 48.8854 17.3802 48.4688 16.0781L48.0781 14.9453C47.1927 12.3932 45.6562 10.4661 43.4688 9.16406C41.3073 7.83594 38.8073 7.17188 35.9688 7.17188C34.5104 7.17188 33.0391 7.41927 31.5547 7.91406C30.0703 8.40885 28.8203 9.17708 27.8047 10.2188C26.8151 11.2344 26.3203 12.4974 26.3203 14.0078C26.3203 15.4141 26.8411 16.7292 27.8828 17.9531C28.9245 19.1771 30.2135 20.2969 31.75 21.3125C33.2865 22.3021 35.4089 23.5521 38.1172 25.0625C41.5807 26.9896 44.3802 28.6953 46.5156 30.1797C48.6771 31.638 50.513 33.4089 52.0234 35.4922C53.5599 37.5755 54.3281 39.9323 54.3281 42.5625C54.3281 45.8177 53.4297 48.5391 51.6328 50.7266C49.8359 52.888 47.5052 54.4766 44.6406 55.4922C41.8021 56.5078 38.7812 57.0156 35.5781 57.0156C32.7135 57.0156 29.6276 56.6641 26.3203 55.9609C23.0391 55.2318 20.3828 54.2422 18.3516 52.9922V40.375L20.6562 40.2969ZM86.5938 7.13281C85.8906 7.41927 85.2266 7.65365 84.6016 7.83594C83.9766 7.99219 83.2474 8.14844 82.4141 8.30469C81.1901 8.53906 80.2786 8.8125 79.6797 9.125C79.0807 9.41146 78.599 10.0234 78.2344 10.9609C77.8958 11.8724 77.7266 13.2917 77.7266 15.2188V49.3594C77.7266 52.7448 77.3229 55.8958 76.5156 58.8125C75.7083 61.7552 74.2891 64.1901 72.2578 66.1172C70.2526 68.0443 67.5573 69.0078 64.1719 69.0078C63.026 69.0078 61.8542 68.8516 60.6562 68.5391C59.4583 68.2266 58.4427 67.6927 57.6094 66.9375C56.776 66.2083 56.3594 65.2578 56.3594 64.0859C56.3594 63.0964 56.6979 62.2891 57.375 61.6641C58.026 61.0651 58.8464 60.7656 59.8359 60.7656C60.513 60.7656 61.0729 60.8958 61.5156 61.1562C61.9844 61.4167 62.349 61.7161 62.6094 62.0547C62.8958 62.4193 63.2214 62.9141 63.5859 63.5391C63.9766 64.2943 64.3542 64.8542 64.7188 65.2188C65.1094 65.6094 65.6172 65.8047 66.2422 65.8047C68.2995 65.8047 69.3281 62.4583 69.3281 55.7656V15.5703C69.3281 13.5391 69.1458 12.0417 68.7812 11.0781C68.4427 10.1146 67.9479 9.47656 67.2969 9.16406C66.6719 8.82552 65.6693 8.5 64.2891 8.1875C62.6745 7.84896 61.3854 7.51042 60.4219 7.17188L60.5391 5.14062H86.5938V7.13281ZM98.6641 15.6094C98.6641 13.5 98.4948 11.9635 98.1562 11C97.8177 10.0104 97.3229 9.34635 96.6719 9.00781C96.0208 8.66927 94.9661 8.35677 93.5078 8.07031C91.737 7.67969 90.4609 7.36719 89.6797 7.13281L89.7578 5.14062H116.164V7.17188C115.409 7.48438 114.732 7.71875 114.133 7.875C113.534 8.00521 112.74 8.16146 111.75 8.34375C110.5 8.55208 109.576 8.8125 108.977 9.125C108.378 9.41146 107.909 10.0234 107.57 10.9609C107.258 11.8984 107.102 13.3698 107.102 15.375V43.8125C107.102 46.9635 107.401 49.151 108 50.375C108.625 51.5729 109.784 52.3281 111.477 52.6406C113.169 52.9531 116.268 53.1094 120.773 53.1094C123.638 53.1094 126.047 52.7448 128 52.0156C129.979 51.2604 131.555 49.763 132.727 47.5234L133.312 46.3516C133.729 45.4922 134.107 44.776 134.445 44.2031C134.784 43.6042 135.174 43.0573 135.617 42.5625L137.961 42.6406L135.5 56.4297C132.01 56.1432 129.159 56 126.945 56H89.7188L89.6406 53.8906C90.0312 53.7604 90.8646 53.513 92.1406 53.1484C93.625 52.7578 94.7969 52.3802 95.6562 52.0156C96.5156 51.625 97.2318 51.013 97.8047 50.1797C98.3776 49.3203 98.6641 48.1354 98.6641 46.625V15.6094Z" fill="#B38D22"/>
<path d="M5.23828 76.6094C4.51953 76.6094 3.94922 76.6406 3.52734 76.7031C3.25391 76.7422 3.00391 76.8516 2.77734 77.0312C2.55859 77.2109 2.36719 77.4141 2.20312 77.6406C2.04688 77.8672 1.85547 78.1719 1.62891 78.5547C1.39453 78.9688 1.19141 79.2812 1.01953 79.4922H0.480469L0.773438 75.6719C2.0625 75.7266 3.72656 75.7539 5.76562 75.7539L10.3359 75.7422H11.8711C13.4492 75.7422 14.7266 75.7109 15.7031 75.6484L16.0781 79.5039H15.5156C15.3984 79.3633 15.2773 79.1875 15.1523 78.9766C15.0273 78.7578 14.9453 78.6172 14.9062 78.5547C14.5938 78 14.3008 77.5664 14.0273 77.2539C13.7617 76.9414 13.4453 76.7578 13.0781 76.7031C12.8125 76.6641 12.543 76.6406 12.2695 76.6328C12.0039 76.6172 11.668 76.6094 11.2617 76.6094H9.46875V88.1758C9.46875 88.7773 9.57031 89.2266 9.77344 89.5234C9.98438 89.8125 10.2578 90.0078 10.5938 90.1094C10.9375 90.2109 11.4453 90.3047 12.1172 90.3906C12.1172 90.6641 12.1094 90.8672 12.0938 91H4.33594L4.3125 90.3906C4.44531 90.3438 4.65234 90.2812 4.93359 90.2031C5.39453 90.0625 5.75781 89.9297 6.02344 89.8047C6.28906 89.6797 6.50781 89.4883 6.67969 89.2305C6.85938 88.9727 6.94922 88.6211 6.94922 88.1758V76.6094H5.23828ZM20.9414 88.293C20.9414 88.6602 20.9805 88.9883 21.0586 89.2773C21.1445 89.5586 21.3438 89.8086 21.6562 90.0273C21.9688 90.2461 22.4375 90.375 23.0625 90.4141L23.0508 91H16.9453C16.9453 90.9375 16.9414 90.8359 16.9336 90.6953C16.9336 90.5547 16.9375 90.4453 16.9453 90.3672L17.332 90.2617C17.7461 90.1523 18.043 90.0508 18.2227 89.957C18.4023 89.8633 18.5352 89.6992 18.6211 89.4648C18.7148 89.2227 18.7617 88.8555 18.7617 88.3633V82.4688C18.6602 82.2969 18.4727 82.1406 18.1992 82C17.9258 81.8516 17.6406 81.7305 17.3438 81.6367C17.0547 81.543 16.9102 81.5 16.9102 81.5078L16.9336 81.0977L20.0508 80.2656H20.7188L20.9062 82.4219C21.3438 81.6172 21.7969 81.0469 22.2656 80.7109C22.7422 80.375 23.2852 80.207 23.8945 80.207C24.207 80.207 24.4883 80.2734 24.7383 80.4062C24.9961 80.5312 25.1953 80.6953 25.3359 80.8984C25.4844 81.0938 25.5586 81.293 25.5586 81.4961C25.5586 81.6289 25.5195 81.8086 25.4414 82.0352C25.3711 82.2617 25.2578 82.4609 25.1016 82.6328C24.9531 82.8047 24.7695 82.8906 24.5508 82.8906C24.3008 82.8906 24.1055 82.8359 23.9648 82.7266C23.8242 82.6094 23.6797 82.4375 23.5312 82.2109C23.4219 82.0391 23.3164 81.9102 23.2148 81.8242C23.1211 81.7383 23 81.6953 22.8516 81.6953C22.6016 81.6953 22.375 81.7695 22.1719 81.918C21.9766 82.0586 21.8047 82.2344 21.6562 82.4453C21.5078 82.6562 21.3281 82.9375 21.1172 83.2891L20.9414 83.582V88.293ZM31.5586 91.2344C30.6133 91.2344 29.8828 91 29.3672 90.5312C28.8594 90.0547 28.5156 89.4375 28.3359 88.6797C28.1562 87.9219 28.0664 87.0195 28.0664 85.9727V82.4805C27.9648 82.3008 27.7734 82.1406 27.4922 82C27.2188 81.8516 26.9336 81.7305 26.6367 81.6367C26.3477 81.5352 26.2031 81.4883 26.2031 81.4961L26.2266 81.0859L29.5195 80.2891L30.2461 80.2422V85.8438C30.2461 86.8438 30.3086 87.6328 30.4336 88.2109C30.5586 88.7812 30.7695 89.1992 31.0664 89.4648C31.3633 89.7227 31.7773 89.8516 32.3086 89.8516C33.3945 89.8516 34.418 89.375 35.3789 88.4219V82.4805C35.2773 82.3008 35.0859 82.1406 34.8047 82C34.5312 81.8516 34.2461 81.7305 33.9492 81.6367C33.6602 81.5352 33.5156 81.4883 33.5156 81.4961L33.5391 81.0859L36.832 80.2891L37.5586 80.2422V88.6445C37.5586 88.9727 37.6406 89.2266 37.8047 89.4062C37.9688 89.5781 38.1719 89.7031 38.4141 89.7812C38.6562 89.8594 38.9883 89.9336 39.4102 90.0039C39.4102 90.1211 39.4023 90.2422 39.3867 90.3672C39.3789 90.4922 39.375 90.5781 39.375 90.625L35.5312 91.1758L35.4375 89.3008C34.2812 90.5898 32.9883 91.2344 31.5586 91.2344ZM47.8828 83.6055C47.7734 83.6133 47.5898 83.6172 47.332 83.6172C47.1055 82.8281 46.7617 82.1836 46.3008 81.6836C45.8477 81.1836 45.2656 80.9336 44.5547 80.9336C44.0625 80.9336 43.6719 81.0547 43.3828 81.2969C43.1016 81.5391 42.9609 81.8906 42.9609 82.3516C42.9609 82.6719 43.0781 82.9688 43.3125 83.2422C43.5469 83.5156 43.832 83.7578 44.168 83.9688C44.5117 84.1719 44.9609 84.4141 45.5156 84.6953C45.6484 84.7578 45.8477 84.8594 46.1133 85C46.9883 85.4688 47.625 85.9492 48.0234 86.4414C48.4297 86.9258 48.6328 87.5195 48.6328 88.2227C48.6328 88.8711 48.4727 89.4219 48.1523 89.875C47.832 90.3203 47.3906 90.6602 46.8281 90.8945C46.2656 91.1211 45.6211 91.2344 44.8945 91.2344C44.2539 91.2344 43.6055 91.1562 42.9492 91C42.293 90.8516 41.7539 90.6484 41.332 90.3906V87.5312C41.6367 87.4922 41.8438 87.4727 41.9531 87.4727C42.1328 88.3398 42.4492 89.0469 42.9023 89.5938C43.3633 90.1406 43.9922 90.4141 44.7891 90.4141C45.3594 90.4141 45.832 90.2734 46.207 89.9922C46.5898 89.7031 46.7812 89.3242 46.7812 88.8555C46.7812 88.5586 46.6953 88.2969 46.5234 88.0703C46.3516 87.8438 46.1289 87.6445 45.8555 87.4727C45.582 87.3008 45.1719 87.0703 44.625 86.7812C43.8906 86.3906 43.332 86.0742 42.9492 85.832C42.3555 85.4648 41.9062 85.0547 41.6016 84.6016C41.3047 84.1484 41.1562 83.6094 41.1562 82.9844C41.1562 82.3828 41.3086 81.8711 41.6133 81.4492C41.918 81.0195 42.332 80.6953 42.8555 80.4766C43.3789 80.2578 43.9688 80.1484 44.625 80.1484C45.2266 80.1484 45.7969 80.2227 46.3359 80.3711C46.8828 80.5195 47.375 80.7305 47.8125 81.0039L47.8828 83.6055ZM54.0938 87.3203C54.0938 88.1172 54.1211 88.6875 54.1758 89.0312C54.2305 89.3672 54.3633 89.6133 54.5742 89.7695C54.7852 89.918 55.1406 89.9922 55.6406 89.9922C55.9375 89.9922 56.2344 89.9648 56.5312 89.9102C56.8281 89.8555 57.0781 89.7969 57.2812 89.7344L57.375 90.5898C56.9766 90.7852 56.5742 90.9414 56.168 91.0586C55.7617 91.1758 55.2734 91.2344 54.7031 91.2344C53.9453 91.2344 53.3672 91.1094 52.9688 90.8594C52.5703 90.6094 52.293 90.207 52.1367 89.6523C51.9805 89.0898 51.9023 88.3008 51.9023 87.2852V81.3438H50.1562V80.9336C50.6875 80.7227 51.1328 80.4766 51.4922 80.1953C51.8594 79.9062 52.1602 79.6094 52.3945 79.3047C52.6289 79 52.9102 78.5977 53.2383 78.0977C53.3789 77.8711 53.4883 77.7227 53.5664 77.6523C53.6445 77.5742 53.7227 77.5352 53.8008 77.5352C53.8789 77.5352 53.9414 77.5742 53.9883 77.6523C54.043 77.7227 54.0703 77.8359 54.0703 77.9922V80.4648H57.0117V81.3438H54.0938V87.3203ZM60.8438 84.8359C60.8359 84.9141 60.832 85.0273 60.832 85.1758C60.832 86.1602 61.0078 86.9844 61.3594 87.6484C61.7188 88.3047 62.1953 88.793 62.7891 89.1133C63.3906 89.4258 64.0625 89.582 64.8047 89.582C65.7891 89.582 66.7383 89.3008 67.6523 88.7383L67.9922 89.0664C67.8047 89.5195 67.4883 89.9102 67.043 90.2383C66.6055 90.5664 66.1055 90.8164 65.543 90.9883C64.9883 91.1523 64.4492 91.2344 63.9258 91.2344C62.9414 91.2344 62.0547 91.0039 61.2656 90.543C60.4844 90.082 59.8711 89.4375 59.4258 88.6094C58.9883 87.7812 58.7695 86.832 58.7695 85.7617C58.7695 84.6758 59.0078 83.707 59.4844 82.8555C59.9609 81.9961 60.5938 81.332 61.3828 80.8633C62.1797 80.3867 63.0312 80.1484 63.9375 80.1484C64.6797 80.1484 65.3477 80.3008 65.9414 80.6055C66.543 80.9023 67.0312 81.3242 67.4062 81.8711C67.7812 82.4102 68.0195 83.0312 68.1211 83.7344C68.207 84.0938 68.25 84.4258 68.25 84.7305V84.8359H60.8438ZM65.0625 84.0859C65.4062 84.0703 65.6953 84.0078 65.9297 83.8984C65.875 82.9688 65.6562 82.2422 65.2734 81.7188C64.8984 81.1953 64.3633 80.9336 63.668 80.9336C63.1602 80.9336 62.707 81.0859 62.3086 81.3906C61.918 81.6953 61.6016 82.1016 61.3594 82.6094C61.1172 83.1094 60.9609 83.6602 60.8906 84.2617L65.0625 84.0859ZM78.7383 77.2305C78.6367 77.0742 78.4375 76.918 78.1406 76.7617C77.8516 76.6055 77.5664 76.4727 77.2852 76.3633C77.0117 76.2539 76.832 76.1875 76.7461 76.1641L76.7695 75.7539L80.0742 74.957L80.918 74.875V88.668C80.918 89.1367 81.1172 89.4727 81.5156 89.6758C81.9219 89.8789 82.3555 89.9805 82.8164 89.9805V90.625L79.6875 91.1406H78.9023L78.7969 89.3242C78.2422 89.9648 77.6602 90.4453 77.0508 90.7656C76.4414 91.0781 75.7891 91.2344 75.0938 91.2344C74.2109 91.2344 73.4023 91.0234 72.668 90.6016C71.9414 90.1719 71.3672 89.5742 70.9453 88.8086C70.5234 88.0352 70.3125 87.1484 70.3125 86.1484C70.3125 85 70.5469 83.9727 71.0156 83.0664C71.4922 82.1602 72.1445 81.4531 72.9727 80.9453C73.8008 80.4375 74.7266 80.1836 75.75 80.1836C76.2266 80.1836 76.6914 80.2578 77.1445 80.4062C77.5977 80.5469 78.1289 80.7617 78.7383 81.0508V77.2305ZM78.7383 85.0234C78.7383 84.2656 78.6719 83.6562 78.5391 83.1953C78.4062 82.7266 78.1367 82.3125 77.7305 81.9531C77.418 81.6797 77.082 81.4688 76.7227 81.3203C76.3633 81.1641 76 81.0859 75.6328 81.0859C75.0156 81.0859 74.4688 81.2852 73.9922 81.6836C73.5156 82.082 73.1445 82.6133 72.8789 83.2773C72.6211 83.9336 72.4922 84.6445 72.4922 85.4102C72.4922 86.1523 72.6211 86.8633 72.8789 87.543C73.1445 88.2148 73.5391 88.7656 74.0625 89.1953C74.5859 89.625 75.2188 89.8398 75.9609 89.8398C76.5547 89.8398 77.082 89.7109 77.543 89.4531C78.0117 89.1875 78.4102 88.8359 78.7383 88.3984V85.0234ZM97.1836 76.3398C96.9727 76.4258 96.7734 76.4961 96.5859 76.5508C96.3984 76.5977 96.1797 76.6445 95.9297 76.6914C95.5625 76.7617 95.2891 76.8438 95.1094 76.9375C94.9297 77.0234 94.7852 77.207 94.6758 77.4883C94.5742 77.7617 94.5234 78.1875 94.5234 78.7656V89.0078C94.5234 90.0234 94.4023 90.9688 94.1602 91.8438C93.918 92.7266 93.4922 93.457 92.8828 94.0352C92.2812 94.6133 91.4727 94.9023 90.457 94.9023C90.1133 94.9023 89.7617 94.8555 89.4023 94.7617C89.043 94.668 88.7383 94.5078 88.4883 94.2812C88.2383 94.0625 88.1133 93.7773 88.1133 93.4258C88.1133 93.1289 88.2148 92.8867 88.418 92.6992C88.6133 92.5195 88.8594 92.4297 89.1562 92.4297C89.3594 92.4297 89.5273 92.4688 89.6602 92.5469C89.8008 92.625 89.9102 92.7148 89.9883 92.8164C90.0742 92.9258 90.1719 93.0742 90.2812 93.2617C90.3984 93.4883 90.5117 93.6562 90.6211 93.7656C90.7383 93.8828 90.8906 93.9414 91.0781 93.9414C91.6953 93.9414 92.0039 92.9375 92.0039 90.9297V78.8711C92.0039 78.2617 91.9492 77.8125 91.8398 77.5234C91.7383 77.2344 91.5898 77.043 91.3945 76.9492C91.207 76.8477 90.9062 76.75 90.4922 76.6562C90.0078 76.5547 89.6211 76.4531 89.332 76.3516L89.3672 75.7422H97.1836V76.3398ZM100.102 84.8359C100.094 84.9141 100.09 85.0273 100.09 85.1758C100.09 86.1602 100.266 86.9844 100.617 87.6484C100.977 88.3047 101.453 88.793 102.047 89.1133C102.648 89.4258 103.32 89.582 104.062 89.582C105.047 89.582 105.996 89.3008 106.91 88.7383L107.25 89.0664C107.062 89.5195 106.746 89.9102 106.301 90.2383C105.863 90.5664 105.363 90.8164 104.801 90.9883C104.246 91.1523 103.707 91.2344 103.184 91.2344C102.199 91.2344 101.312 91.0039 100.523 90.543C99.7422 90.082 99.1289 89.4375 98.6836 88.6094C98.2461 87.7812 98.0273 86.832 98.0273 85.7617C98.0273 84.6758 98.2656 83.707 98.7422 82.8555C99.2188 81.9961 99.8516 81.332 100.641 80.8633C101.438 80.3867 102.289 80.1484 103.195 80.1484C103.938 80.1484 104.605 80.3008 105.199 80.6055C105.801 80.9023 106.289 81.3242 106.664 81.8711C107.039 82.4102 107.277 83.0312 107.379 83.7344C107.465 84.0938 107.508 84.4258 107.508 84.7305V84.8359H100.102ZM104.32 84.0859C104.664 84.0703 104.953 84.0078 105.188 83.8984C105.133 82.9688 104.914 82.2422 104.531 81.7188C104.156 81.1953 103.621 80.9336 102.926 80.9336C102.418 80.9336 101.965 81.0859 101.566 81.3906C101.176 81.6953 100.859 82.1016 100.617 82.6094C100.375 83.1094 100.219 83.6602 100.148 84.2617L104.32 84.0859ZM114.023 88.1523L116.168 82.9375C116.02 82.4062 115.781 81.9609 115.453 81.6016C115.125 81.2422 114.707 81.0508 114.199 81.0273L114.223 80.4648H119.402C119.418 80.7305 119.426 80.918 119.426 81.0273C119.324 81.0742 119.164 81.1367 118.945 81.2148C118.648 81.3164 118.43 81.418 118.289 81.5195C118.148 81.6211 118.078 81.7812 118.078 82C118.078 82.1641 118.148 82.4375 118.289 82.8203L120.199 88.0586L122.027 83.125C122.176 82.7422 122.25 82.4219 122.25 82.1641C122.25 81.9297 122.215 81.7539 122.145 81.6367C122.074 81.5117 121.977 81.4219 121.852 81.3672C121.727 81.3125 121.531 81.25 121.266 81.1797L120.832 81.0625C120.816 80.9531 120.809 80.8594 120.809 80.7812C120.809 80.7109 120.816 80.6055 120.832 80.4648H124.945V81.0859C124.727 81.1172 124.484 81.2148 124.219 81.3789C123.961 81.543 123.727 81.7422 123.516 81.9766C123.312 82.2031 123.172 82.4219 123.094 82.6328L119.93 91.1641C119.852 91.2109 119.734 91.2344 119.578 91.2344C119.43 91.2344 119.309 91.2109 119.215 91.1641L116.555 84.0156L113.73 91.1641C113.637 91.2109 113.516 91.2344 113.367 91.2344C113.203 91.2344 113.078 91.2109 112.992 91.1641L109.723 82.8086C109.574 82.4258 109.441 82.1289 109.324 81.918C109.207 81.707 109.051 81.5273 108.855 81.3789C108.668 81.2227 108.418 81.1094 108.105 81.0391L108.129 80.4648H112.957C112.965 80.5977 112.969 80.7852 112.969 81.0273C112.594 81.1523 112.301 81.293 112.09 81.4492C111.887 81.6055 111.785 81.8281 111.785 82.1172C111.785 82.25 111.805 82.375 111.844 82.4922C111.844 82.5234 111.848 82.5508 111.855 82.5742L114.023 88.1523ZM127.688 84.8359C127.68 84.9141 127.676 85.0273 127.676 85.1758C127.676 86.1602 127.852 86.9844 128.203 87.6484C128.562 88.3047 129.039 88.793 129.633 89.1133C130.234 89.4258 130.906 89.582 131.648 89.582C132.633 89.582 133.582 89.3008 134.496 88.7383L134.836 89.0664C134.648 89.5195 134.332 89.9102 133.887 90.2383C133.449 90.5664 132.949 90.8164 132.387 90.9883C131.832 91.1523 131.293 91.2344 130.77 91.2344C129.785 91.2344 128.898 91.0039 128.109 90.543C127.328 90.082 126.715 89.4375 126.27 88.6094C125.832 87.7812 125.613 86.832 125.613 85.7617C125.613 84.6758 125.852 83.707 126.328 82.8555C126.805 81.9961 127.438 81.332 128.227 80.8633C129.023 80.3867 129.875 80.1484 130.781 80.1484C131.523 80.1484 132.191 80.3008 132.785 80.6055C133.387 80.9023 133.875 81.3242 134.25 81.8711C134.625 82.4102 134.863 83.0312 134.965 83.7344C135.051 84.0938 135.094 84.4258 135.094 84.7305V84.8359H127.688ZM131.906 84.0859C132.25 84.0703 132.539 84.0078 132.773 83.8984C132.719 82.9688 132.5 82.2422 132.117 81.7188C131.742 81.1953 131.207 80.9336 130.512 80.9336C130.004 80.9336 129.551 81.0859 129.152 81.3906C128.762 81.6953 128.445 82.1016 128.203 82.6094C127.961 83.1094 127.805 83.6602 127.734 84.2617L131.906 84.0859ZM140.543 88.2578C140.543 88.9141 140.676 89.4219 140.941 89.7812C141.215 90.1328 141.664 90.3438 142.289 90.4141C142.289 90.5312 142.285 90.6484 142.277 90.7656C142.27 90.8828 142.266 90.9609 142.266 91H136.5L136.488 90.4141C136.559 90.3672 136.648 90.3242 136.758 90.2852C136.875 90.2461 136.992 90.2109 137.109 90.1797C137.453 90.0859 137.723 89.9844 137.918 89.875C138.113 89.7578 138.23 89.5859 138.27 89.3594C138.332 89.0234 138.363 88.6797 138.363 88.3281L138.352 77.3008C138.258 77.1445 138.066 76.9922 137.777 76.8438C137.496 76.6875 137.219 76.5586 136.945 76.457C136.672 76.3477 136.496 76.2812 136.418 76.2578L136.441 75.8477L139.699 74.957L140.543 74.875V88.2578ZM151.008 83.6055C150.898 83.6133 150.715 83.6172 150.457 83.6172C150.23 82.8281 149.887 82.1836 149.426 81.6836C148.973 81.1836 148.391 80.9336 147.68 80.9336C147.188 80.9336 146.797 81.0547 146.508 81.2969C146.227 81.5391 146.086 81.8906 146.086 82.3516C146.086 82.6719 146.203 82.9688 146.438 83.2422C146.672 83.5156 146.957 83.7578 147.293 83.9688C147.637 84.1719 148.086 84.4141 148.641 84.6953C148.773 84.7578 148.973 84.8594 149.238 85C150.113 85.4688 150.75 85.9492 151.148 86.4414C151.555 86.9258 151.758 87.5195 151.758 88.2227C151.758 88.8711 151.598 89.4219 151.277 89.875C150.957 90.3203 150.516 90.6602 149.953 90.8945C149.391 91.1211 148.746 91.2344 148.02 91.2344C147.379 91.2344 146.73 91.1562 146.074 91C145.418 90.8516 144.879 90.6484 144.457 90.3906V87.5312C144.762 87.4922 144.969 87.4727 145.078 87.4727C145.258 88.3398 145.574 89.0469 146.027 89.5938C146.488 90.1406 147.117 90.4141 147.914 90.4141C148.484 90.4141 148.957 90.2734 149.332 89.9922C149.715 89.7031 149.906 89.3242 149.906 88.8555C149.906 88.5586 149.82 88.2969 149.648 88.0703C149.477 87.8438 149.254 87.6445 148.98 87.4727C148.707 87.3008 148.297 87.0703 147.75 86.7812C147.016 86.3906 146.457 86.0742 146.074 85.832C145.48 85.4648 145.031 85.0547 144.727 84.6016C144.43 84.1484 144.281 83.6094 144.281 82.9844C144.281 82.3828 144.434 81.8711 144.738 81.4492C145.043 81.0195 145.457 80.6953 145.98 80.4766C146.504 80.2578 147.094 80.1484 147.75 80.1484C148.352 80.1484 148.922 80.2227 149.461 80.3711C150.008 80.5195 150.5 80.7305 150.938 81.0039L151.008 83.6055Z" fill="white"/>
</g>
<defs>
<clipPath id="clip0_115_393">
<rect width="153" height="98" fill="white"/>
</clipPath>
</defs>
</svg>
