<svg xmlns="http://www.w3.org/2000/svg" width="50" height="50" viewBox="0 0 50 50" fill="none">
    <path d="M0.224378 49.5048C0.334588 49.658 0.479676 49.7829 0.64766 49.869C0.815644 49.9551 1.0017 50 1.19047 50H48.8095C48.9981 50 49.1841 49.9551 49.352 49.8691C49.5198 49.7831 49.6649 49.6585 49.7751 49.5054C49.8854 49.3524 49.9577 49.1753 49.9861 48.9888C50.0144 48.8023 49.9981 48.6118 49.9384 48.4329L45.1765 34.1471C45.0976 33.9101 44.9461 33.7039 44.7435 33.5579C44.5409 33.4118 44.2974 33.3332 44.0476 33.3333H37.7623L33.2717 19.8614C33.1929 19.6244 33.0414 19.4182 32.8388 19.2722C32.6361 19.1261 32.3926 19.0475 32.1429 19.0476H17.8571C17.6073 19.0475 17.3639 19.1261 17.1612 19.2722C16.9586 19.4182 16.8071 19.6244 16.7283 19.8614L12.2377 33.3333H5.95238C5.70259 33.3332 5.4591 33.4118 5.25648 33.5579C5.05385 33.7039 4.90237 33.9101 4.82352 34.1471L0.061616 48.4329C0.00165726 48.6116 -0.0148537 48.8021 0.0134507 48.9885C0.041755 49.1749 0.11406 49.3519 0.224378 49.5048ZM21.8894 35.7143H28.1106L25 45.0463L21.8894 35.7143ZM43.1896 35.7143L47.1575 47.619H26.652L30.6199 35.7143H43.1896ZM18.7151 21.4286H31.2849L35.2527 33.3333H14.7473L18.7151 21.4286ZM6.81035 35.7143H19.3801L23.348 47.619H2.8425L6.81035 35.7143ZM25 2.00489e-07C25.1564 -9.05679e-05 25.3112 0.03064 25.4557 0.0904349C25.6002 0.15023 25.7314 0.237916 25.842 0.34848C25.9526 0.459044 26.0402 0.590317 26.1 0.734793C26.1598 0.87927 26.1906 1.03412 26.1905 1.19048V10.7143C26.1905 11.03 26.0651 11.3328 25.8418 11.5561C25.6185 11.7793 25.3157 11.9048 25 11.9048C24.6843 11.9048 24.3815 11.7793 24.1582 11.5561C23.9349 11.3328 23.8095 11.03 23.8095 10.7143V1.19048C23.8094 1.03412 23.8402 0.87927 23.9 0.734793C23.9598 0.590317 24.0474 0.459044 24.158 0.34848C24.2686 0.237916 24.3998 0.15023 24.5443 0.0904349C24.6888 0.03064 24.8436 -9.05679e-05 25 2.00489e-07ZM7.20214 5.11067L13.9369 11.8443C14.0493 11.9544 14.1387 12.0857 14.2 12.2306C14.2614 12.3755 14.2933 12.5311 14.2941 12.6885C14.2949 12.8458 14.2645 13.0017 14.2047 13.1472C14.1448 13.2927 14.0567 13.4249 13.9455 13.5362C13.8342 13.6474 13.702 13.7355 13.5565 13.7954C13.411 13.8552 13.2551 13.8856 13.0978 13.8848C12.9404 13.884 12.7848 13.852 12.6399 13.7907C12.495 13.7294 12.3637 13.64 12.2536 13.5276L5.51873 6.7941C5.29922 6.5701 5.17698 6.26853 5.17856 5.95492C5.18015 5.6413 5.30543 5.34098 5.52719 5.11922C5.74896 4.89746 6.04928 4.77217 6.36289 4.77059C6.67651 4.769 6.97815 4.89116 7.20214 5.11067ZM36.4712 13.5277C36.3606 13.4172 36.2729 13.286 36.2131 13.1416C36.1533 12.9972 36.1225 12.8424 36.1225 12.686C36.1225 12.5297 36.1533 12.3749 36.2131 12.2305C36.2729 12.0861 36.3606 11.9549 36.4712 11.8444L43.206 5.11074C43.4305 4.89388 43.7312 4.77389 44.0434 4.7766C44.3555 4.77931 44.6541 4.90452 44.8748 5.12524C45.0955 5.34596 45.2207 5.64455 45.2234 5.95669C45.2262 6.26883 45.1062 6.56954 44.8893 6.79407L38.1545 13.5277C38.044 13.6383 37.9128 13.726 37.7684 13.7858C37.624 13.8456 37.4692 13.8764 37.3129 13.8764C37.1565 13.8764 37.0017 13.8456 36.8573 13.7858C36.7129 13.726 36.5817 13.6383 36.4712 13.5277Z" fill="url(#paint0_linear_9252_411575)"/>
    <defs>
        <linearGradient id="paint0_linear_9252_411575" x1="-12.8283" y1="1.08696" x2="7.86929" y2="35.3486" gradientUnits="userSpaceOnUse">
            <stop stop-color="#FFE7B9"/>
            <stop offset="1" stop-color="#CAA969"/>
        </linearGradient>
    </defs>
</svg>