<svg xmlns="http://www.w3.org/2000/svg" width="41" height="52" viewBox="0 0 41 52" fill="none">
    <path d="M19.3625 42.9893C19.3088 42.9602 19.2095 42.905 19.0697 42.826V46.2125H21.9947V42.8264C21.8547 42.9056 21.7556 42.9602 21.7019 42.9893M19.3625 42.9893C19.3624 42.9892 19.3623 42.9892 19.3622 42.9891L19.4102 42.9014L19.3625 42.9893ZM19.3625 42.9893C19.72 43.1848 20.1251 43.2875 20.5322 43.2875C20.9394 43.2875 21.3444 43.1848 21.7019 42.9893M21.7019 42.9893C21.702 42.9892 21.7022 42.9892 21.7023 42.9891L21.6543 42.9014L21.7019 42.9893ZM3.74776 29.2863L3.83203 29.2324L3.74776 29.2863C5.24017 31.6219 7.31811 33.9755 9.92198 36.2819C12.6936 38.7373 15.4782 40.6286 17.3062 41.7732V46.2135H11.1562C10.8225 46.2135 10.5174 46.4018 10.3677 46.7003L10.3676 46.7004L8.80509 49.8254C8.66858 50.0984 8.68274 50.4233 8.84367 50.6825C9.00452 50.9425 9.28771 51.1 9.59375 51.1H31.4688C31.7739 51.1 32.058 50.9414 32.2187 50.6827L32.2188 50.6825C32.3797 50.4225 32.394 50.0985 32.2574 49.8254L30.695 46.7005C30.5461 46.4018 30.2409 46.2135 29.9062 46.2135H23.7563V41.7732C25.5834 40.6295 28.3689 38.7372 31.1405 36.2819C33.7444 33.9755 35.8223 31.6219 37.3147 29.2863C39.2025 26.3325 40.1625 23.3864 40.1625 20.5312V13.125C40.1625 11.332 38.9558 9.74478 37.2289 9.26498L37.2021 9.36133L37.2289 9.26498L26.1 6.17399V3.34375C26.1 1.99653 25.0035 0.9 23.6562 0.9H17.4062C16.059 0.9 14.9625 1.99653 14.9625 3.34375V6.17399L3.83359 9.26498C2.10571 9.74477 0.9 11.3321 0.9 13.125V20.5312C0.9 23.3864 1.86098 26.3325 3.74776 29.2863ZM14.1616 16.67C12.7106 13.4348 11.6911 10.1572 11.3503 9.00665L15.7149 7.79389L15.7142 7.79466L16.0804 7.69304C16.4616 7.58728 16.726 7.24027 16.726 6.84375V3.34375C16.726 2.96831 17.0318 2.6625 17.4072 2.6625H23.6572C24.0327 2.6625 24.3385 2.96831 24.3385 3.34375V6.84375C24.3385 7.23922 24.6028 7.58725 24.984 7.69304C24.984 7.69304 24.984 7.69304 24.984 7.69304L29.7152 9.00667C29.3753 10.1542 28.3597 13.4214 26.9097 16.6554L26.9097 16.6554C25.793 19.1473 24.6638 21.0734 23.5763 22.3748C22.4852 23.6806 21.4531 24.3375 20.5322 24.3375C19.6114 24.3375 18.5801 23.6818 17.4904 22.3785C16.4043 21.0795 15.2768 19.157 14.1616 16.67L14.0703 16.7109L14.1616 16.67ZM38.402 20.4889L38.401 20.4898V20.5312C38.401 23.4023 37.2609 26.1548 35.6342 28.6201C34.0078 31.085 31.8991 33.2561 29.9728 34.9622C25.5914 38.8426 21.0472 41.3394 20.8587 41.4413L20.8584 41.4415C20.6587 41.5503 20.4047 41.5502 20.2062 41.4416L20.2061 41.4415C20.0172 41.3384 15.473 38.8426 11.0917 34.9613L11.0254 35.0361L11.0917 34.9613C9.16531 33.2552 7.05669 31.084 5.43027 28.6191C3.80359 26.1539 2.66348 23.4013 2.66348 20.5303V13.124C2.66348 12.1201 3.33957 11.2308 4.30699 10.9626L4.30703 10.9626L9.65145 9.47822C9.99447 10.6456 11.0276 13.9853 12.5474 17.3759C14.3602 21.4211 16.2208 24.0853 18.1113 25.3148C17.1467 26.1921 16.527 27.5747 16.527 29.125C16.527 31.7473 18.3074 33.9125 20.5332 33.9125C22.759 33.9125 24.5395 31.7473 24.5395 29.125C24.5395 27.5747 23.9188 26.1914 22.9552 25.3148C24.8456 24.0862 26.7063 21.421 28.519 17.3759L28.4277 17.335L28.519 17.3758C30.0379 13.9852 31.071 10.6454 31.4149 9.4782L36.7584 10.9626C37.7259 11.2318 38.402 12.1202 38.402 13.124V20.4889ZM22.776 29.125C22.776 29.9667 22.5189 30.7264 22.1086 31.2735C21.6983 31.8206 21.1396 32.15 20.5322 32.15C19.9249 32.15 19.3662 31.8206 18.9559 31.2735C18.5456 30.7264 18.2885 29.9667 18.2885 29.125C18.2885 28.2833 18.5456 27.5236 18.9559 26.9765C19.3662 26.4294 19.9249 26.1 20.5322 26.1C21.1396 26.1 21.6983 26.4294 22.1086 26.9765C22.5189 27.5236 22.776 28.2833 22.776 29.125ZM29.363 47.975L30.0443 49.3375H11.0212L11.7024 47.975H29.363Z" fill="url(#paint0_linear_9252_411576)" stroke="url(#paint1_linear_9252_411576)" stroke-width="0.2"/>
    <defs>
        <linearGradient id="paint0_linear_9252_411576" x1="-9.02215" y1="2.08696" x2="13.608" y2="31.3534" gradientUnits="userSpaceOnUse">
            <stop stop-color="#FFE7B9"/>
            <stop offset="1" stop-color="#CAA969"/>
        </linearGradient>
        <linearGradient id="paint1_linear_9252_411576" x1="-9.02215" y1="2.08696" x2="13.608" y2="31.3534" gradientUnits="userSpaceOnUse">
            <stop stop-color="#FFE7B9"/>
            <stop offset="1" stop-color="#CAA969"/>
        </linearGradient>
    </defs>
</svg>