<svg width="50" height="50" viewBox="0 0 50 50" fill="none" xmlns="http://www.w3.org/2000/svg">
<path d="M18.6794 15.3606L19.3496 15.4395V14.7647V9.3751C19.3496 7.03463 20.8772 4.85577 23.5849 3.23099C26.2852 1.61064 30.0799 0.600098 34.3746 0.600098C38.6693 0.600098 42.464 1.61064 45.1643 3.23099C47.872 4.85577 49.3996 7.03463 49.3996 9.3751V34.3751C49.3996 36.7156 47.872 38.8944 45.1643 40.5192C42.464 42.1396 38.6693 43.1501 34.3746 43.1501C33.1078 43.1501 31.8672 43.0307 30.6424 42.8522L30.2161 42.7901L30.0209 43.1741C29.1281 44.9313 27.3039 46.4904 24.7834 47.6141C22.2704 48.7344 19.1099 49.4001 15.6246 49.4001C11.3299 49.4001 7.53522 48.3896 4.83489 46.7692C2.12717 45.1444 0.599609 42.9656 0.599609 40.6251V23.9584C0.599609 21.618 2.12717 19.4391 4.83489 17.8143C7.53522 16.194 11.3299 15.1834 15.6246 15.1834C16.6742 15.1834 17.6946 15.2446 18.6794 15.3606ZM4.49092 29.8747L3.56628 29.2798V30.3793V32.2918C3.56628 33.1106 3.97245 33.8825 4.59522 34.5515C5.22133 35.2241 6.10601 35.838 7.17358 36.3573C9.311 37.3972 12.2674 38.1001 15.6246 38.1001C18.9818 38.1001 21.9382 37.3972 24.0756 36.3573C25.1432 35.838 26.0279 35.2241 26.654 34.5515C27.2768 33.8825 27.6829 33.1106 27.6829 32.2918V30.3793V29.2798L26.7583 29.8747C24.0406 31.6232 20.1112 32.7334 15.6246 32.7334C11.138 32.7334 7.20858 31.6232 4.49092 29.8747ZM4.49092 38.208L3.56628 37.6131V38.7126V40.6251C3.56628 41.4439 3.97245 42.2159 4.59522 42.8848C5.22134 43.5574 6.10601 44.1713 7.17358 44.6907C9.311 45.7305 12.2674 46.4334 15.6246 46.4334C18.9818 46.4334 21.9382 45.7305 24.0756 44.6907C25.1432 44.1713 26.0279 43.5574 26.654 42.8848C27.2768 42.2159 27.6829 41.4439 27.6829 40.6251V38.7126V37.6131L26.7583 38.208C24.0406 39.9565 20.1112 41.0668 15.6246 41.0668C11.138 41.0668 7.20858 39.9565 4.49092 38.208ZM30.6496 39.3418V39.8629L31.1656 39.9359C32.2005 40.0822 33.2674 40.1834 34.3746 40.1834C37.7318 40.1834 40.6882 39.4805 42.8256 38.4407C43.8932 37.9213 44.7779 37.3074 45.404 36.6348C46.0268 35.9659 46.4329 35.1939 46.4329 34.3751V32.4626V31.3631L45.5083 31.958C42.7906 33.7065 38.8612 34.8168 34.3746 34.8168C33.3418 34.8168 32.3286 34.7398 31.3198 34.6209L30.6496 34.5419V35.2168V39.3418ZM30.6496 31.0084V31.5296L31.1656 31.6025C32.2005 31.7489 33.2674 31.8501 34.3746 31.8501C37.7318 31.8501 40.6882 31.1472 42.8256 30.1073C43.8932 29.588 44.7779 28.9741 45.404 28.3015C46.0268 27.6326 46.4329 26.8606 46.4329 26.0418V24.1293V23.0298L45.5083 23.6247C42.7906 25.3732 38.8612 26.4834 34.3746 26.4834C33.3418 26.4834 32.3286 26.4065 31.3198 26.2876L30.6496 26.2085V26.8834V31.0084ZM30.5015 22.7829L30.5913 23.1852L30.999 23.2457C31.8981 23.3791 32.8217 23.4773 33.7746 23.5073V23.5189H34.3746C37.7318 23.5189 40.6882 22.816 42.8256 21.7761C43.8932 21.2567 44.7779 20.6428 45.404 19.9703C46.0268 19.3013 46.4329 18.5293 46.4329 17.7105V15.798V14.6985L45.5083 15.2934C42.7906 17.0419 38.8612 18.1522 34.3746 18.1522C31.9437 18.1522 29.6787 17.818 27.6674 17.2401L27.1581 18.3087C28.974 19.577 30.1307 21.1219 30.5015 22.7829ZM46.4329 9.3751C46.4329 8.55627 46.0268 7.78432 45.404 7.11535C44.7779 6.44281 43.8932 5.82889 42.8256 5.30952C40.6882 4.26967 37.7318 3.56677 34.3746 3.56677C31.0174 3.56677 28.061 4.26967 25.9236 5.30952C24.856 5.82889 23.9713 6.44281 23.3452 7.11535C22.7224 7.78432 22.3163 8.55627 22.3163 9.3751C22.3163 10.1939 22.7224 10.9659 23.3452 11.6348C23.9713 12.3074 24.856 12.9213 25.9236 13.4407C28.061 14.4805 31.0174 15.1834 34.3746 15.1834C37.7318 15.1834 40.6882 14.4805 42.8256 13.4407C43.8932 12.9213 44.7779 12.3074 45.404 11.6348C46.0268 10.9659 46.4329 10.1939 46.4329 9.3751ZM27.6829 23.9584C27.6829 23.1396 27.2768 22.3676 26.654 21.6987C26.0279 21.0261 25.1432 20.4122 24.0756 19.8929C21.9382 18.853 18.9818 18.1501 15.6246 18.1501C12.2674 18.1501 9.311 18.853 7.17358 19.8929C6.10601 20.4122 5.22134 21.0261 4.59522 21.6987C3.97245 22.3676 3.56628 23.1396 3.56628 23.9584C3.56628 24.7773 3.97245 25.5492 4.59522 26.2182C5.22133 26.8907 6.10601 27.5046 7.17358 28.024C9.311 29.0639 12.2674 29.7668 15.6246 29.7668C18.9818 29.7668 21.9382 29.0639 24.0756 28.024C25.1432 27.5046 26.0279 26.8907 26.654 26.2182C27.2768 25.5492 27.6829 24.7773 27.6829 23.9584Z" fill="url(#paint0_linear_267_8)"/>
<defs>
<linearGradient id="paint0_linear_267_8" x1="-12.8288" y1="1.08706" x2="7.86872" y2="35.3488" gradientUnits="userSpaceOnUse">
<stop stop-color="#FFE7B9"/>
<stop offset="1" stop-color="#CAA969"/>
</linearGradient>
</defs>
</svg>
