<svg xmlns="http://www.w3.org/2000/svg" width="50" height="50" viewBox="0 0 50 50" fill="none">
    <path d="M18.6798 15.3605L19.35 15.4394V14.7646V9.375C19.35 7.03453 20.8776 4.85567 23.5853 3.23089C26.2856 1.61054 30.0803 0.6 34.375 0.6C38.6697 0.6 42.4644 1.61054 45.1647 3.23089C47.8724 4.85567 49.4 7.03453 49.4 9.375V34.375C49.4 36.7155 47.8724 38.8943 45.1647 40.5191C42.4644 42.1395 38.6697 43.15 34.375 43.15C33.1082 43.15 31.8676 43.0306 30.6428 42.8521L30.2165 42.79L30.0213 43.174C29.1285 44.9312 27.3043 46.4903 24.7838 47.614C22.2708 48.7343 19.1103 49.4 15.625 49.4C11.3303 49.4 7.53561 48.3895 4.83528 46.7691C2.12756 45.1443 0.6 42.9655 0.6 40.625V23.9583C0.6 21.6179 2.12756 19.439 4.83528 17.8142C7.53561 16.1939 11.3303 15.1833 15.625 15.1833C16.6746 15.1833 17.695 15.2445 18.6798 15.3605ZM4.49131 29.8746L3.56667 29.2797V30.3792V32.2917C3.56667 33.1105 3.97284 33.8824 4.59561 34.5514C5.22172 35.224 6.1064 35.8379 7.17397 36.3572C9.31139 37.3971 12.2678 38.1 15.625 38.1C18.9822 38.1 21.9386 37.3971 24.076 36.3572C25.1436 35.8379 26.0283 35.224 26.6544 34.5514C27.2772 33.8824 27.6833 33.1105 27.6833 32.2917V30.3792V29.2797L26.7587 29.8746C24.041 31.6231 20.1116 32.7333 15.625 32.7333C11.1384 32.7333 7.20897 31.6231 4.49131 29.8746ZM4.49131 38.2079L3.56667 37.613V38.7125V40.625C3.56667 41.4438 3.97284 42.2158 4.59561 42.8847C5.22173 43.5573 6.1064 44.1712 7.17397 44.6906C9.31139 45.7304 12.2678 46.4333 15.625 46.4333C18.9822 46.4333 21.9386 45.7304 24.076 44.6906C25.1436 44.1712 26.0283 43.5573 26.6544 42.8847C27.2772 42.2158 27.6833 41.4438 27.6833 40.625V38.7125V37.613L26.7587 38.2079C24.041 39.9564 20.1116 41.0667 15.625 41.0667C11.1384 41.0667 7.20897 39.9564 4.49131 38.2079ZM30.65 39.3417V39.8628L31.166 39.9358C32.2009 40.0821 33.2678 40.1833 34.375 40.1833C37.7322 40.1833 40.6886 39.4804 42.826 38.4406C43.8936 37.9212 44.7783 37.3073 45.4044 36.6347C46.0272 35.9658 46.4333 35.1938 46.4333 34.375V32.4625V31.363L45.5087 31.9579C42.791 33.7064 38.8616 34.8167 34.375 34.8167C33.3422 34.8167 32.329 34.7397 31.3202 34.6208L30.65 34.5418V35.2167V39.3417ZM30.65 31.0083V31.5295L31.166 31.6024C32.2009 31.7488 33.2678 31.85 34.375 31.85C37.7322 31.85 40.6886 31.1471 42.826 30.1072C43.8936 29.5879 44.7783 28.974 45.4044 28.3014C46.0272 27.6325 46.4333 26.8605 46.4333 26.0417V24.1292V23.0297L45.5087 23.6246C42.791 25.3731 38.8616 26.4833 34.375 26.4833C33.3422 26.4833 32.329 26.4064 31.3202 26.2875L30.65 26.2084V26.8833V31.0083ZM30.5019 22.7828L30.5917 23.1851L30.9994 23.2456C31.8985 23.379 32.8221 23.4772 33.775 23.5072V23.5188H34.375C37.7322 23.5188 40.6886 22.8159 42.826 21.776C43.8936 21.2566 44.7783 20.6427 45.4044 19.9702C46.0272 19.3012 46.4333 18.5292 46.4333 17.7104V15.7979V14.6984L45.5087 15.2933C42.791 17.0418 38.8616 18.1521 34.375 18.1521C31.9441 18.1521 29.6791 17.8179 27.6678 17.24L27.1585 18.3086C28.9744 19.5769 30.1311 21.1218 30.5019 22.7828ZM46.4333 9.375C46.4333 8.55617 46.0272 7.78422 45.4044 7.11525C44.7783 6.44271 43.8936 5.82879 42.826 5.30942C40.6886 4.26957 37.7322 3.56667 34.375 3.56667C31.0178 3.56667 28.0614 4.26957 25.924 5.30942C24.8564 5.82879 23.9717 6.44271 23.3456 7.11525C22.7228 7.78422 22.3167 8.55617 22.3167 9.375C22.3167 10.1938 22.7228 10.9658 23.3456 11.6347C23.9717 12.3073 24.8564 12.9212 25.924 13.4406C28.0614 14.4804 31.0178 15.1833 34.375 15.1833C37.7322 15.1833 40.6886 14.4804 42.826 13.4406C43.8936 12.9212 44.7783 12.3073 45.4044 11.6347C46.0272 10.9658 46.4333 10.1938 46.4333 9.375ZM27.6833 23.9583C27.6833 23.1395 27.2772 22.3675 26.6544 21.6986C26.0283 21.026 25.1436 20.4121 24.076 19.8928C21.9386 18.8529 18.9822 18.15 15.625 18.15C12.2678 18.15 9.31139 18.8529 7.17397 19.8928C6.1064 20.4121 5.22173 21.026 4.59561 21.6986C3.97284 22.3675 3.56667 23.1395 3.56667 23.9583C3.56667 24.7772 3.97284 25.5491 4.59561 26.2181C5.22172 26.8906 6.1064 27.5045 7.17397 28.0239C9.31139 29.0638 12.2678 29.7667 15.625 29.7667C18.9822 29.7667 21.9386 29.0638 24.076 28.0239C25.1436 27.5045 26.0283 26.8906 26.6544 26.2181C27.2772 25.5491 27.6833 24.7772 27.6833 23.9583Z" fill="url(#paint0_linear_9252_411574)" stroke="#201F22" stroke-width="1.2"/>
    <defs>
        <linearGradient id="paint0_linear_9252_411574" x1="-12.8284" y1="1.08696" x2="7.86911" y2="35.3487" gradientUnits="userSpaceOnUse">
            <stop stop-color="#FFE7B9"/>
            <stop offset="1" stop-color="#CAA969"/>
        </linearGradient>
    </defs>
</svg>