<svg xmlns="http://www.w3.org/2000/svg" width="35" height="50" viewBox="0 0 35 50" fill="none">
    <path d="M35 25C35 19.07 32.0275 13.825 27.5 10.66V6.25C27.5 2.8025 24.695 0 21.25 0H13.75C10.305 0 7.5 2.8025 7.5 6.25V10.66C2.9725 13.8275 0 19.07 0 25C0 30.93 2.9725 36.175 7.5 39.34V43.75C7.5 47.1975 10.305 50 13.75 50H21.25C24.695 50 27.5 47.1975 27.5 43.75V39.34C32.0275 36.175 35 30.93 35 25ZM10 6.25C10 4.1825 11.6825 2.5 13.75 2.5H21.25C23.3175 2.5 25 4.1825 25 6.25V9.215C22.7225 8.1275 20.1875 7.5 17.5 7.5C14.8125 7.5 12.2775 8.1275 10 9.215V6.25ZM25 43.75C25 45.8175 23.3175 47.5 21.25 47.5H13.75C11.6825 47.5 10 45.8175 10 43.75V40.785C12.2775 41.8725 14.8125 42.5 17.5 42.5C20.1875 42.5 22.7225 41.8725 25 40.785V43.75ZM17.5 40C9.2275 40 2.5 33.2725 2.5 25C2.5 16.7275 9.2275 10 17.5 10C25.7725 10 32.5 16.7275 32.5 25C32.5 33.2725 25.7725 40 17.5 40Z" fill="url(#paint0_linear_9252_411596)"/>
    <path d="M18.75 24.4825V15C18.75 14.31 18.19 13.75 17.5 13.75C16.81 13.75 16.25 14.31 16.25 15V25C16.25 25.3325 16.3825 25.65 16.615 25.885L21.615 30.885C21.86 31.1275 22.18 31.25 22.5 31.25C22.82 31.25 23.14 31.1275 23.385 30.885C23.8725 30.3975 23.8725 29.605 23.385 29.1175L18.75 24.4825Z" fill="url(#paint1_linear_9252_411596)"/>
    <defs>
        <linearGradient id="paint0_linear_9252_411596" x1="-8.97985" y1="1.08696" x2="14.1511" y2="27.8901" gradientUnits="userSpaceOnUse">
            <stop stop-color="#FFE7B9"/>
            <stop offset="1" stop-color="#CAA969"/>
        </linearGradient>
        <linearGradient id="paint1_linear_9252_411596" x1="14.3256" y1="14.1304" x2="22.0501" y2="19.611" gradientUnits="userSpaceOnUse">
            <stop stop-color="#FFE7B9"/>
            <stop offset="1" stop-color="#CAA969"/>
        </linearGradient>
    </defs>
</svg>