<svg width="133" height="100" viewBox="0 0 133 100" fill="none" xmlns="http://www.w3.org/2000/svg">
<path d="M132.447 1.53241C121.727 -0.908525 111.006 4.30591 108.825 13.9567C103.889 17.1255 99.3245 20.6489 95.0836 24.4452C99.0053 17.9412 99.9059 9.45446 94.9699 2.63679C94.9393 2.53325 94.9087 2.44854 94.8213 2.44854C94.795 2.345 94.677 2.26029 94.677 2.26029C94.5021 1.96851 94.2136 2.11597 94.1567 2.42972C94.1567 2.42972 94.1567 2.42972 94.0387 2.44854C89.2732 9.05914 85.3209 19.1492 92.4123 26.6131C92.3249 26.7167 92.3555 26.8202 92.2374 26.8422C92.15 26.9457 92.1806 27.0524 92.2068 27.1559C87.3276 31.9499 83.113 37.2679 79.6591 43C81.6615 34.9933 80.7915 26.3433 73.3809 19.8174C73.3547 19.7108 73.2366 19.6292 73.1229 19.6512C73.0049 19.67 72.8868 19.5884 72.8868 19.5884C72.8868 19.5884 72.8868 19.5884 72.7732 19.6072L72.6551 19.6292L72.5677 19.7327C69.6909 27.4257 71.4047 37.6224 78.2644 44.1044C78.2907 44.2111 78.177 44.2111 78.2032 44.3146C78.1464 44.5217 78.2907 44.7099 78.4393 44.7946C75.2696 50.3793 73.0049 56.3844 71.5534 62.6812C71.3479 54.6556 68.0383 45.899 61.1217 40.5403C61.0911 40.4367 60.9775 40.352 60.8332 40.2704C60.8026 40.1638 60.6845 40.1857 60.6845 40.0822C60.4266 39.9159 60.0768 40.2704 60.3392 40.4367C60.3392 40.4367 60.3654 40.5403 60.4834 40.5183C57.8121 49.4224 62.2847 60.6795 70.5041 66.8917C70.5653 67.0799 70.5041 67.3089 70.5347 67.4972C70.5915 67.6854 70.5915 67.789 70.7402 67.8737C70.5347 69.3326 70.3336 70.7695 70.2462 72.2096C69.5466 81.1733 70.8276 90.4947 74.6007 99.2074C74.6619 99.4991 75.1822 99.3328 75.1253 99.0411C71.6977 88.973 70.6221 78.6947 71.8419 68.749C77.5649 69.1663 82.8245 67.789 87.59 65.141C91.1925 63.1612 95.0574 60.5352 95.9274 56.4471C96.4783 56.4879 96.5963 55.5498 95.9274 55.531C90.6679 55.1764 85.4083 56.24 80.9051 58.4268C77.5649 60.074 74.1066 62.6404 72.2485 65.8312C73.0617 61.0341 74.369 56.3844 76.2314 51.8602C77.1583 49.4004 78.3781 47.1069 79.6853 44.7946C80.704 45.3782 82.3872 45.4817 83.2879 45.5633C85.7887 45.8551 88.4294 45.9398 90.8733 45.5445C95.3459 44.8762 99.7923 42.8965 102.669 39.6869C103.102 39.6241 103.163 39.0186 102.582 38.8711C102.464 38.8931 102.35 38.8084 102.232 38.8084C102.088 38.7268 102.088 38.7268 101.882 38.7456C94.5896 37.2052 86.6893 38.206 81.0538 42.2721C84.4508 36.7471 88.6043 31.6362 93.3129 27.0712C98.9791 31.7617 108.073 30.742 113.708 28.1976C113.708 28.1976 113.822 28.1756 113.796 28.094C113.997 27.9685 114.028 27.6548 113.765 27.4885C108.654 23.6326 100.518 22.82 95.0836 25.3425C98.7736 21.9227 102.813 18.6691 107.085 15.7921C107.837 15.2932 108.506 14.7913 109.262 14.3959C109.262 14.3959 109.406 14.4806 109.494 14.4587C115.191 14.7724 120.301 12.708 124.949 10.1855C128.057 8.47557 132.04 5.82757 132.591 2.20068C133.173 2.65875 133.142 1.63594 132.447 1.53241ZM61.1217 41.3309C61.1524 41.4376 61.266 41.4156 61.266 41.5191C62.4596 45.9618 63.8805 50.464 65.5069 54.8627C66.8447 58.5743 68.1257 62.493 70.0975 66.0163C62.6607 58.9916 59.8145 50.464 61.1217 41.3309ZM70.3598 64.8492C68.8515 61.3666 67.2513 57.906 66.0315 54.2791C64.6062 50.1722 63.299 46.15 61.8475 42.0619C64.9298 45.2527 67.2251 48.7353 68.6198 52.7355C70.0713 56.9491 70.2724 60.8897 70.3598 64.8492ZM85.7012 65.0782C82.1555 66.8509 78.3519 67.9364 74.3121 68.04C75.5319 67.5819 76.5506 66.8509 77.7398 66.2893C79.8034 65.2257 81.9544 64.1401 83.9874 62.951C86.051 61.8906 88.0534 60.7015 90.0864 59.5344C91.2493 58.888 93.1687 57.3036 94.8213 56.8016C93.3129 60.6607 89.4175 63.1832 85.7012 65.0782ZM81.6047 59.4716C85.2378 57.699 89.3038 56.7828 93.4878 56.7609C93.1074 57.0119 92.7314 57.2597 92.3555 57.5107C90.117 58.6998 87.9966 59.9924 85.7581 61.1815C81.3729 63.5566 76.8392 66.5811 72.0168 67.9992C72.0168 67.9992 72.0168 67.9992 71.8988 68.018C74.6881 64.5166 77.3638 61.536 81.6047 59.4716ZM78.4655 43.4581C73.0355 36.4961 70.5041 28.7592 73.0923 20.881C73.3547 24.6115 74.369 28.4674 75.3002 32.2229C76.2008 35.8906 77.2151 39.6241 78.5268 43.2291C78.5268 43.2291 78.553 43.3326 78.4655 43.4581ZM76.026 32.0346C75.1559 28.4674 74.6007 24.8625 73.7613 21.2952C76.3757 24.3416 78.3781 27.6548 79.1913 31.4291C79.9477 35.0152 79.6853 38.4978 78.8721 41.8737C77.9715 38.6233 76.8392 35.3917 76.026 32.0346ZM100.199 39.5175C97.0291 40.5183 93.8944 41.6258 90.6416 42.2502C89.0721 42.542 87.3582 42.771 85.7581 42.9592C84.8006 43.0847 83.8125 43.1036 82.737 43.2291C82.4179 43.2698 82.0681 43.2102 81.7489 43.251C81.6353 43.2698 81.5478 43.2698 81.3992 43.1883C86.7462 39.872 93.2823 38.2248 100.199 39.5175ZM81.9544 44.2299C84.4508 44.1264 86.921 43.8126 89.33 43.4173C93.4572 42.7082 97.8161 41.6446 101.563 39.8532C98.5987 42.1655 95.5208 43.9789 91.6559 44.8574C89.6798 45.3155 87.7342 45.441 85.6138 45.3155C84.8268 45.3155 83.9306 45.2088 83.113 45.0237C82.9993 45.0425 81.3423 44.5217 80.21 44.3774C80.7915 44.3774 81.5172 44.1891 81.9544 44.2299ZM92.8495 26.0515C87.59 18.8574 89.4787 11.2679 93.5446 4.84555C92.4997 7.82926 92.1806 11.0389 91.8308 14.1449C91.3674 18.0856 91.1051 21.9854 93.02 25.8194C92.9326 25.9449 92.8189 25.9449 92.8495 26.0515ZM111.82 27.5512C106.617 26.9677 101.213 26.9457 96.0454 26.0515C101.388 24.4671 106.56 24.944 111.82 27.5512ZM111.645 28.1976C108.855 28.9474 106.328 29.8855 103.163 29.5529C99.6742 29.2831 97.1778 27.9466 94.2136 26.6979C94.4147 26.6759 94.5021 26.5504 94.7338 26.5284C100.199 27.7803 106.009 27.6767 111.645 28.1976ZM93.3129 25.2797C91.6559 21.6089 92.1194 17.6683 92.526 13.8532C92.8757 10.3518 93.5752 6.89116 94.6508 3.59685C95.6082 5.30675 96.5963 7.01666 97.0597 8.99639C97.6106 11.2679 97.4095 13.6461 97.0597 15.8329C96.5963 19.2527 95.1448 22.4027 93.3129 25.2797ZM128.551 6.28564C127.131 7.6818 125.329 8.8301 123.471 9.7682C119.663 11.7699 115.365 13.5394 110.775 13.7088C116.992 9.87174 123.642 6.49271 130.676 3.67842C130.095 4.47219 129.452 5.47304 128.551 6.28564ZM131.371 2.57404C123.847 5.55461 116.555 9.12189 109.787 13.3323C112.952 5.07772 121.521 0.446851 131.546 2.345C131.546 2.345 131.459 2.4705 131.371 2.57404Z" fill="#503B29"/>
<path d="M0.342972 61.6808C2.29289 63.4754 5.60252 63.9335 8.01587 64.0998C11.6184 64.3288 15.2778 64.2253 18.124 62.7224C18.1852 62.7036 18.2114 62.6189 18.2114 62.6189C18.8235 62.6409 19.3744 62.7444 20.0127 62.8479C23.5584 63.3687 27.1915 64.1406 30.7066 65.0787C26.6975 65.0379 22.7714 67.3721 21.814 70.6037C21.7571 70.7512 21.9014 70.9174 22.0763 70.9394C22.1069 71.0021 22.1637 70.9802 22.1637 70.9802C26.3171 71.0021 31.5767 69.3958 32.4205 65.5806C37.0111 66.8733 41.5143 68.602 45.8426 70.7072C41.0202 69.8758 36.399 71.2092 33.2337 73.7537C33.1156 73.7945 33.1156 73.7945 33.085 73.8572C33.0282 73.8792 33.002 73.9608 32.9408 73.9608C32.6784 74.171 33.0282 74.4816 33.2599 74.4C36.2241 75.4197 39.5075 75.4197 42.1526 74.7106C43.6347 74.3561 44.9988 73.6909 46.1617 72.9411C46.5946 72.6901 47.4384 72.232 47.7007 71.6892C49.4451 72.6054 51.1284 73.5247 52.7547 74.6071C55.8064 76.546 58.6264 78.6952 61.2408 81.0294C58.7969 79.7776 55.8064 79.2348 53.2794 79.1532C49.878 79.0497 46.6252 79.7368 44.0107 81.1549C43.6609 81.3212 44.155 81.7793 44.4173 81.635C46.7432 83.5927 49.996 84.0508 52.7853 84.261C56.5016 84.5308 59.903 84.01 62.7492 82.4664C67.9213 87.4298 72.0485 93.0992 74.8378 99.2297C74.9253 99.396 75.2706 99.3772 75.1832 99.189C73.207 93.7047 69.6045 88.4934 65.1625 83.9284C64.463 83.1974 63.6804 82.4664 62.9241 81.7573C62.9547 81.6757 62.9241 81.635 62.8672 81.5095C62.806 81.384 62.6617 81.2992 62.6049 81.1737C64.1176 75.9625 61.3283 68.9565 55.8632 64.8904C55.9245 64.8716 55.8939 64.8088 55.8939 64.8088C55.9507 64.6614 55.6009 64.5578 55.5441 64.7053C55.5747 64.768 55.5179 64.7869 55.5441 64.8308C55.5179 64.9124 55.4873 64.9751 55.5179 65.0379C54.3243 69.4993 56.5628 74.8989 60.1041 79.194C56.4753 76.2134 52.523 73.5874 48.3128 71.3755C48.339 71.2939 48.339 71.1684 48.2253 71.0618C48.1947 71.0021 48.1379 71.021 48.1073 70.9582C48.7762 65.9132 44.9988 60.1372 39.971 56.7613L39.8835 56.7205L39.8267 56.7393C39.7698 56.7613 39.7698 56.7613 39.7698 56.7613C39.7698 56.7613 39.7392 56.8429 39.6824 56.8648C39.6256 56.8868 39.595 56.9684 39.6256 57.0123C38.6943 62.2016 42.1788 66.9768 46.8875 70.7292C42.4412 68.5204 37.7937 66.707 33.0282 65.3077C33.002 65.2449 32.9714 65.1853 32.8533 65.1634C32.7965 65.1853 32.7659 65.1226 32.6522 65.0787C32.9714 59.472 26.3171 55.0733 20.7691 52.6952C20.7122 52.7171 20.7122 52.7171 20.7122 52.7171C20.5373 52.5697 20.3318 52.5508 20.3624 52.7579C20.3624 52.7579 20.3318 52.8426 20.3624 52.8834C20.3056 52.9054 20.3318 52.965 20.3624 53.0089C20.8565 57.7841 25.2154 62.0353 30.2694 64.5578C26.2909 63.557 22.2774 62.7664 18.242 62.2455C12.6939 57.6586 4.64504 57.4296 0.111259 61.2227C-0.207901 61.5145 0.255531 62.0573 0.342972 61.6808ZM62.4606 80.6529C61.8791 78.3406 60.773 75.9624 59.7849 73.6909C58.6264 71.0021 57.3191 68.2694 55.9245 65.6622C55.8939 65.5995 55.9507 65.5806 55.9245 65.5367C60.8036 70.0421 63.1864 75.2126 62.4606 80.6529ZM57.1705 73.3144C56.095 70.8766 55.6884 68.4985 55.8632 66.0795C56.9694 68.5832 58.1323 71.021 59.2341 73.5247C60.2528 75.7115 60.9785 77.9234 61.7917 80.1321C60.021 78.0049 58.3334 75.8777 57.1705 73.3144ZM45.2043 81.613C46.306 81.4875 48.0198 81.864 48.9511 81.9456C50.5469 82.093 52.147 82.2373 53.7428 82.3221C55.343 82.4664 56.9694 82.5291 58.5652 82.6138C59.4396 82.6358 60.3402 82.7801 61.1796 82.7393C59.0024 83.6335 56.5016 83.9692 53.8303 83.8657C50.9841 83.7182 47.7575 83.3009 45.2043 81.613ZM62.43 82.1558C62.3732 82.1746 62.3732 82.1746 62.3732 82.1746C59.1772 82.573 55.3998 82.0303 51.9984 81.8012C50.2583 81.6946 48.5707 81.5095 46.8307 81.4028C46.5115 81.362 46.188 81.3212 45.8688 81.2804C48.0767 80.2984 50.6343 79.8403 53.3931 79.925C56.589 80.0066 59.3784 80.9447 62.43 82.1558ZM47.6132 70.6257C46.6558 68.4169 45.4928 66.183 44.273 64.059C43.0226 61.8471 41.8334 59.5756 40.2639 57.5519C45.2305 61.0972 47.4121 65.7877 47.7313 70.7292C47.6439 70.6884 47.6132 70.6257 47.6132 70.6257ZM46.8307 69.9793C44.8545 68.3949 43.1101 66.6003 41.8903 64.539C40.583 62.3491 40.1458 60.1372 40.1196 57.9064C41.2782 59.9929 42.6466 62.0134 43.8096 64.0998C44.9113 66.0795 45.812 68.0624 46.8307 69.9793ZM46.0743 71.272C46.0437 71.3535 45.9869 71.3755 45.93 71.3755C45.7551 71.4383 45.5803 71.5418 45.4054 71.6045C44.7671 71.7928 44.2424 71.9999 43.6915 72.1693C42.7603 72.4391 41.746 72.7309 40.7842 72.9411C38.7818 73.3772 36.6307 73.5435 34.4797 73.7537C37.5314 71.4602 41.746 70.77 46.0743 71.272ZM47.2373 71.6045C46.7126 71.9591 46.0743 72.6273 45.9869 72.6273C45.6371 72.9191 45.2043 73.1889 44.7933 73.3772C43.7484 73.9608 42.6466 74.3373 41.3962 74.5663C38.9566 75.0024 36.4865 74.7734 33.872 74.2525C36.6613 74.3153 39.4507 73.8572 41.9471 73.2517C43.4292 72.8972 44.8545 72.4799 46.2186 71.9402C46.4809 71.8336 46.9443 71.752 47.2373 71.6045ZM32.0139 64.8308C31.2838 62.3491 29.3382 60.3474 27.3052 58.3865C25.7094 56.824 24.0787 55.2177 22.1637 53.8842C27.2484 56.322 31.6947 59.8674 32.215 64.9124C32.1844 64.8716 32.1013 64.8716 32.0139 64.8308ZM30.5318 65.6842C28.2059 67.3721 25.3597 68.6647 22.8895 70.1864C24.459 67.5604 26.9861 66.1015 30.5318 65.6842ZM31.4324 65.6214C31.5461 65.5806 31.6641 65.6214 31.7778 65.5806C30.7941 66.936 30.064 68.2286 28.3501 69.1856C26.8418 70.1048 25.0667 70.2084 23.2655 70.4594C25.998 68.875 29.1065 67.5604 31.4324 65.6214ZM25.3028 60.5137C24.1093 59.4501 22.9463 58.2422 22.1943 56.9056C21.5516 55.7385 21.2631 54.6121 21.0008 53.4889C23.0644 54.9667 25.0099 56.6358 26.8112 58.4084C28.7567 60.3254 30.8203 62.3051 31.6073 64.6206C29.312 63.5382 27.1303 62.2236 25.3028 60.5137ZM2.03057 61.9945C7.02779 61.8283 12.0818 62.0573 17.1097 62.6189C14.6089 63.5978 11.531 63.6825 8.62358 63.5382C7.20267 63.4754 5.72056 63.2872 4.35212 62.8919C3.48209 62.6597 2.69949 62.2863 2.03057 61.9945ZM0.955055 61.5145C5.3708 58.1574 12.025 58.5747 17.4551 62.2016C11.9376 61.5773 6.47692 61.411 1.15617 61.5992C1.0425 61.5553 0.955055 61.5145 0.955055 61.5145Z" fill="#503B29"/>
</svg>
