<svg width="166" height="225" viewBox="0 0 166 225" fill="none" xmlns="http://www.w3.org/2000/svg">
<path d="M34.5466 1.19072C47.3947 4.99073 53.1217 19.3165 46.297 34.0421C48.2196 41.6941 49.4457 49.5854 50.0988 57.6361C52.2793 46.0756 59.2852 33.8055 70.4974 27.7266C70.6239 27.6047 70.7329 27.5086 70.8192 27.567C70.9414 27.4421 71.1367 27.4045 71.1367 27.4045C71.5806 27.12 71.7282 27.5154 71.4924 27.9847C71.4924 27.9847 71.4924 27.9847 71.5914 28.0894C70.1442 40.3598 64.658 56.8714 50.7178 62.4002C50.7078 62.6009 50.5813 62.7228 50.6773 62.8318C50.6673 63.0325 50.5379 63.1588 50.4157 63.2836C50.7704 73.1322 49.9821 83.2576 48.0579 93.4445C53.5302 81.099 62.435 69.7865 75.8174 65.7607C75.9425 65.6315 76.1348 65.5981 76.2266 65.7042C76.3255 65.8089 76.5179 65.7755 76.5179 65.7755C76.5179 65.7755 76.5179 65.7755 76.6125 65.8773L76.7086 65.9863L76.6985 66.187C72.3809 78.6849 61.2047 91.5608 48.4067 95.894C48.2816 96.0232 48.3938 96.099 48.2716 96.2239C48.135 96.5465 47.8176 96.7091 47.5921 96.7263C45.5247 106.521 42.1732 116.289 37.748 125.916C45.4163 115.018 56.8274 105.188 68.6366 102.437C68.7631 102.315 68.9541 102.274 69.1723 102.259C69.3018 102.132 69.3978 102.241 69.4941 102.099C69.9033 102.043 69.9186 102.763 69.5051 102.817C69.5051 102.817 69.3829 102.942 69.2869 102.833C63.6399 116.859 48.7553 129.351 34.8667 132.406C34.6312 132.624 34.4785 132.979 34.2732 133.218C34.042 133.439 33.9457 133.581 33.7202 133.598C32.5659 135.741 31.4276 137.851 30.1743 139.89C22.5264 152.681 12.5916 164.643 0.764047 174.103C0.432235 174.464 0.0735671 173.888 0.401063 173.525C13.1486 161.97 23.7708 148.555 31.8189 134.066C25.7839 130.82 21.8756 125.415 19.6368 118.593C17.9237 113.466 16.5531 107.276 19.4975 101.074C18.916 100.762 19.6721 99.3936 20.3497 99.8142C25.869 102.838 30.0692 107.811 32.4782 113.824C34.2417 118.318 35.2667 124.156 34.1319 129.783C37.7919 122.644 40.8273 115.379 43.1981 107.915C44.5717 103.914 45.5015 99.9465 46.3626 95.8945C44.8147 96.0169 43.0576 95.0356 42.093 94.5466C39.3541 93.2784 36.6697 91.6321 34.626 89.4571C30.8346 85.5526 28.2891 79.8625 28.4362 73.5291C28.0675 73.1539 28.5704 72.2804 29.2813 72.4658C29.3773 72.5748 29.5683 72.5342 29.6848 72.613C29.903 72.5972 29.903 72.5972 30.0882 72.7602C38.7167 75.5102 45.5808 82.1601 47.3589 91.5127C49.1465 81.6484 49.8026 71.8486 49.4031 62.4288C39.4492 65.0956 31.4249 57.6231 28.2313 50.3626C28.2313 50.3626 28.1396 50.2565 28.2414 50.1619C28.1597 49.8551 28.4213 49.4033 28.8348 49.3498C37.4645 47.4598 46.2485 51.7738 49.2641 58.8699C48.8044 51.7046 47.8449 44.5344 46.3065 37.7273C46.0286 36.5394 45.8355 35.4027 45.457 34.3542C45.457 34.3542 45.2358 34.3744 45.17 34.2858C39.2572 30.9144 36.1347 24.6642 33.8956 18.0935C32.4191 13.6674 30.9524 7.36777 33.7826 2.01326C32.7828 2.25491 33.7644 0.869037 34.5466 1.19072ZM67.9012 103.524C67.7717 103.65 67.68 103.544 67.5837 103.687C62.2734 108.998 56.6834 114.24 50.9869 119.202C46.2143 123.412 41.3051 127.945 36.0821 131.474C49.9545 126.779 60.6952 116.954 67.9012 103.524ZM36.909 129.694C41.6368 125.912 46.4347 122.222 51.0121 118.05C56.2387 113.354 61.2701 108.697 66.5051 104.045C60.4957 106.374 54.9914 109.63 49.8942 114.2C44.5425 119.024 40.6784 124.308 36.909 129.694ZM21.5587 119.768C23.4083 124.572 26.1515 128.603 30.0412 131.442C29.2637 129.998 28.9386 128.313 28.2876 126.747C27.2409 123.907 26.1283 120.979 25.2285 117.987C24.1788 115.151 23.3092 112.18 22.3889 109.218C21.8427 107.553 21.4227 104.093 20.2591 102.3C18.1576 108.613 19.6547 114.681 21.5587 119.768ZM30.8161 114.793C28.8803 109.931 25.7206 105.957 21.6127 103.134C21.7546 103.733 21.895 104.325 22.0325 104.921C23.1351 108.05 24.0248 111.243 25.1274 114.372C27.2449 120.565 28.9049 127.75 32.3439 132.919C32.3439 132.919 32.3439 132.919 32.4428 133.023C32.9476 126.347 33.0802 120.463 30.8161 114.793ZM48.8095 94.8711C60.6434 88.9235 70.3381 79.9754 75.1127 67.4157C71.3838 72.3697 66.7961 76.9943 62.3838 81.5363C58.0835 85.9779 53.6096 90.4343 48.9621 94.5153C48.9621 94.5153 48.8399 94.6402 48.8095 94.8711ZM61.8429 80.793C66.0197 76.469 69.9209 71.883 74.0675 67.5386C68.6539 69.982 63.5963 73.2007 59.2829 77.8474C55.2008 82.2732 52.2201 87.2367 49.8821 92.4212C53.7944 88.5533 57.9177 84.8659 61.8429 80.793ZM31.0311 74.9451C33.2276 78.4371 35.2904 82.0524 37.9191 85.0823C39.1963 86.5312 40.6743 87.9901 42.0781 89.3171C42.9061 90.1289 43.8635 90.8143 44.8079 91.7048C45.0849 91.9739 45.4855 92.1255 45.7624 92.3946C45.8571 92.4964 45.9433 92.5547 46.1659 92.5418C43.9749 84.4128 39.058 77.7848 31.0311 74.9451ZM44.6491 93.6033C42.2822 91.7945 40.1368 89.7142 38.1276 87.5625C34.7149 83.8326 31.4034 79.4604 29.3729 74.4961C30.1467 79.6541 31.4968 84.2021 34.493 87.99C36.0168 89.9389 37.8197 91.4102 40.0286 92.6531C40.8051 93.1785 41.7887 93.6301 42.7676 93.9213C42.8622 94.0231 44.9816 94.4131 46.2331 94.9706C45.6594 94.5824 45.1184 93.8391 44.6491 93.6033ZM50.8088 61.3361C62.6905 54.9555 67.8868 43.2596 69.8491 31.715C68.1046 36.5149 65.4339 41.141 62.8897 45.6452C59.6813 51.3727 56.3124 56.9099 50.8566 60.9031C50.8261 61.134 50.9383 61.2099 50.8088 61.3361ZM30.6961 50.7348C36.3724 53.4054 41.7247 56.9825 47.6554 59.2027C43.8578 53.4578 38.3109 50.6609 30.6961 50.7348ZM30.2675 51.7401C32.3222 54.6332 33.9429 57.6099 37.3755 59.2656C41.0689 61.2236 44.7754 61.0524 48.8617 61.3142C48.6837 61.1498 48.7142 60.9188 48.506 60.734C41.9492 58.807 36.3124 54.786 30.2675 51.7401ZM51.0695 59.9656C56.1191 56.0245 59.3275 50.297 62.4752 44.78C65.3871 39.7322 67.916 34.5071 69.9193 29.2597C67.384 30.9716 64.8184 32.663 62.5196 35.0757C59.8631 37.8311 57.8493 41.2353 56.1602 44.4755C53.4363 49.4869 51.9383 54.7869 51.0695 59.9656ZM33.9687 10.3266C34.072 13.1947 34.7811 15.976 35.7418 18.5062C37.6372 23.8004 40.2316 29.1023 44.6036 32.3997C42.0386 22.9738 38.6205 13.8887 34.2975 5.32337C34.1328 6.80293 33.836 8.60806 33.9687 10.3266ZM34.6389 3.34086C39.2904 12.4617 43.1675 22.2346 45.9287 32.5416C50.4841 19.0789 46.3367 6.99148 34.6794 2.90921C34.6794 2.90921 34.6489 3.14014 34.6389 3.34086Z" fill="#503B29"/>
<path d="M108.943 172.076C105.349 173.242 101.658 171.663 99.1219 170.28C95.3542 168.191 91.8399 165.605 90.4295 161.639C90.3866 161.572 90.4396 161.438 90.4396 161.438C89.8152 161.06 89.1753 160.835 88.4492 160.551C84.4662 158.9 80.1635 157.536 75.8225 156.479C79.8162 159.1 81.5187 164.93 79.4574 170.012C79.3763 170.253 79.0792 170.385 78.8863 170.299C78.7977 170.365 78.762 170.296 78.762 170.296C74.6435 167.554 70.9482 161.834 73.6646 156.026C67.9326 154.738 61.8813 154.109 55.6523 154.115C61.1838 156.19 64.5032 161.109 65.2595 166.72C65.338 166.855 65.338 166.855 65.3098 166.962C65.3455 167.03 65.2955 167.16 65.3559 167.2C65.4192 167.665 64.7851 167.858 64.6324 167.591C60.7591 167.015 57.5194 164.823 55.5691 162.082C54.4365 160.605 53.7094 158.78 53.2594 156.973C53.0658 156.339 52.6593 155.146 52.9054 154.224C50.332 154.32 47.816 154.46 45.2044 154.862C40.3897 155.491 35.6081 156.564 30.8571 158.028C34.433 157.938 37.8886 159.188 40.4579 160.763C43.9103 162.891 46.4807 166.007 47.7412 169.702C47.9316 170.165 47.018 170.465 46.8934 170.091C42.7773 171.23 39.1418 169.689 36.194 168.116C32.2763 166.006 29.4046 163.019 28.0322 158.997C18.3118 162.369 8.96586 167.409 0.510892 173.976C0.269933 174.146 -0.053349 173.89 0.208038 173.689C7.25943 167.468 15.6617 162.708 24.2909 159.396C25.6611 158.858 27.1133 158.375 28.5192 157.905C28.5649 157.773 28.633 157.737 28.8058 157.602C28.983 157.471 29.2041 157.451 29.377 157.316C32.732 149.141 42.0012 141.37 51.1759 139.427C51.133 139.361 51.2216 139.295 51.2216 139.295C51.3027 139.054 51.7441 139.145 51.663 139.386C51.5744 139.452 51.613 139.516 51.5463 139.559C51.4963 139.688 51.4681 139.795 51.3795 139.861C48.4071 146.792 41.1757 152.722 33.686 156.263C40.0391 154.587 46.3816 153.615 52.5933 153.384C52.6433 153.255 52.7601 153.082 52.9715 153.011C53.0571 152.95 53.0957 153.014 53.1842 152.948C57.2172 145.565 66.3173 140.145 74.4185 138.859L74.5427 138.861L74.5813 138.925C74.6169 138.993 74.6169 138.993 74.6169 138.993C74.6169 138.993 74.5712 139.126 74.6069 139.194C74.6425 139.262 74.5969 139.395 74.5258 139.435C70.6174 147.191 62.7374 151.431 54.6008 153.447C61.0426 153.378 67.3151 153.987 73.3188 155.245C73.4031 155.176 73.4887 155.114 73.6256 155.163C73.6613 155.231 73.7499 155.165 73.9029 155.181C78.8033 147.259 89.4607 145.653 97.1472 146.086C97.1828 146.155 97.1828 146.155 97.1828 146.155C97.4926 146.069 97.7128 146.18 97.49 146.444C97.49 146.444 97.4414 146.581 97.3733 146.617C97.4089 146.685 97.3276 146.749 97.2565 146.789C92.3271 153.025 84.0716 155.961 76.7384 156.055C81.595 157.335 86.2905 158.927 90.7567 160.905C100.498 158.301 108.653 163.359 109.598 171.601C109.641 172.216 108.679 172.653 108.943 172.076ZM30.0038 156.696C32.7285 153.905 36.0321 151.373 39.12 148.91C42.7643 145.986 46.5962 143.102 50.3975 140.448C50.4861 140.382 50.4475 140.318 50.5143 140.275C41.5091 143.213 34.3484 148.731 30.0038 156.696ZM42.0499 150.137C45.3788 147.504 47.9922 144.505 50.0698 141.062C46.6494 143.766 43.2343 146.342 39.8182 149.049C36.7789 151.376 34.0053 153.932 31.1483 156.427C34.8741 154.684 38.518 152.886 42.0499 150.137ZM46.1374 169.535C45.167 168.627 43.1258 168.001 42.1311 167.492C40.4194 166.629 38.7062 165.759 37.0529 164.811C35.3398 163.941 33.6767 162.941 32.0233 161.993C31.1401 161.439 30.1172 161.036 29.3269 160.42C30.6434 163.103 32.7987 165.234 35.5307 166.875C38.4762 168.572 42.048 170.152 46.1374 169.535ZM28.636 158.783C28.6746 158.847 28.6746 158.847 28.6746 158.847C31.4573 161.528 35.6894 163.303 39.2586 165.259C41.0747 166.274 42.912 167.146 44.7282 168.161C45.081 168.318 45.4382 168.478 45.791 168.635C44.5261 165.811 42.4286 163.473 39.6277 161.748C36.3985 159.727 32.7736 159.155 28.636 158.783ZM53.9811 152.82C56.9804 150.423 60.2059 148.127 63.3852 146.021C66.6765 143.815 69.9629 141.485 73.394 139.751C65.1956 141.31 58.6798 146.303 53.7683 152.884C53.8925 152.886 53.9811 152.82 53.9811 152.82ZM55.3544 152.454C58.7781 151.595 62.1687 150.292 65.2898 148.272C68.6167 146.133 71.1056 143.384 73.2066 140.334C70.1226 142.43 66.8929 144.294 63.8046 146.387C60.8759 148.373 58.1428 150.498 55.3544 152.454ZM54.8983 154.736C54.8526 154.869 54.8883 154.937 54.9444 154.975C55.0585 155.178 55.1348 155.437 55.249 155.64C55.7037 156.325 56.0287 156.96 56.4147 157.561C57.0825 158.553 57.8119 159.632 58.5654 160.563C60.1355 162.499 62.1032 164.164 64.03 165.888C63.1524 160.698 59.636 156.935 54.8983 154.736ZM53.4415 154.417C53.6293 155.255 53.6375 156.6 53.7238 156.658C53.7975 157.293 53.9736 157.953 54.204 158.486C54.6921 159.986 55.429 161.239 56.4497 162.389C58.4511 164.617 61.1015 165.951 64.1656 166.98C61.355 165.204 59.0289 162.712 57.129 160.213C55.9964 158.737 54.9782 157.211 54.1343 155.559C53.9747 155.237 53.5933 154.816 53.4415 154.417ZM74.7633 155.266C77.7922 152.341 81.5739 150.888 85.4039 149.549C88.4318 148.466 91.5351 147.345 94.665 146.79C87.3803 146.748 79.6952 148.655 74.4889 155.244C74.5571 155.208 74.639 155.264 74.7633 155.266ZM75.4318 157.429C76.1566 161.302 77.7625 164.979 78.7843 168.721C79.6785 164.062 78.5422 160.369 75.4318 157.429ZM74.6015 156.741C74.5273 156.609 74.3729 156.587 74.2987 156.455C74.0085 158.975 73.5265 161.239 74.3274 163.699C74.9605 165.97 76.6156 167.297 78.1594 168.845C76.9371 164.842 75.0929 160.96 74.6015 156.741ZM85.4008 153.81C87.5679 153.144 89.839 152.26 91.8242 150.924C93.5441 149.748 94.8765 148.392 96.1802 147.023C92.7694 147.677 89.2971 148.674 85.8709 149.909C82.168 151.246 78.2903 152.59 75.36 155.248C78.6316 155.292 82.0071 154.941 85.4008 153.81ZM106.986 171.381C102.21 167.817 97.0099 164.758 91.5266 162.174C93.0836 165.189 96.0417 167.36 99.0446 169.103C100.505 169.965 102.143 170.695 103.86 171.065C104.935 171.327 106.054 171.336 106.986 171.381ZM108.494 171.439C107.259 163.876 100.306 160.008 91.574 161.37C97.5988 164.194 103.141 167.611 108.216 171.421C108.369 171.437 108.494 171.439 108.494 171.439Z" fill="#503B29"/>
</svg>
