<svg width="224" height="108" viewBox="0 0 224 108" fill="none" xmlns="http://www.w3.org/2000/svg">
<g clip-path="url(#clip0_109_348)">
<path d="M56.6562 43.2969C56.9167 43.7396 57.125 44.1953 57.2812 44.6641C57.4635 45.1328 57.6589 45.7448 57.8672 46.5C57.9714 46.7604 58.0625 47.0599 58.1406 47.3984C59.0521 50.3932 60.7839 52.6979 63.3359 54.3125C65.888 55.9271 68.8047 56.7344 72.0859 56.7344C73.8047 56.7344 75.4714 56.4349 77.0859 55.8359C78.7266 55.2109 80.0677 54.2865 81.1094 53.0625C82.1771 51.8125 82.7109 50.3021 82.7109 48.5312C82.7109 46.9948 82.1641 45.5625 81.0703 44.2344C80.0026 42.9062 78.6615 41.7214 77.0469 40.6797C75.4583 39.612 73.2578 38.2969 70.4453 36.7344C67.138 34.9115 64.4557 33.2969 62.3984 31.8906C60.3411 30.4844 58.5964 28.8177 57.1641 26.8906C55.7318 24.9375 55.0156 22.737 55.0156 20.2891C55.0156 17.2682 55.862 14.7812 57.5547 12.8281C59.2734 10.849 61.4609 9.41667 64.1172 8.53125C66.7995 7.61979 69.625 7.16406 72.5938 7.16406C75.1458 7.16406 77.6849 7.47656 80.2109 8.10156C82.763 8.72656 85.1849 9.625 87.4766 10.7969L87.9844 21.9297H85.5625C85.25 21.3307 84.8854 20.3802 84.4688 19.0781L84.0781 17.9453C83.1927 15.3932 81.6562 13.4661 79.4688 12.1641C77.3073 10.8359 74.8073 10.1719 71.9688 10.1719C70.5104 10.1719 69.0391 10.4193 67.5547 10.9141C66.0703 11.4089 64.8203 12.1771 63.8047 13.2188C62.8151 14.2344 62.3203 15.4974 62.3203 17.0078C62.3203 18.4141 62.8411 19.7292 63.8828 20.9531C64.9245 22.1771 66.2135 23.2969 67.75 24.3125C69.2865 25.3021 71.4089 26.5521 74.1172 28.0625C77.5807 29.9896 80.3802 31.6953 82.5156 33.1797C84.6771 34.638 86.513 36.4089 88.0234 38.4922C89.5599 40.5755 90.3281 42.9323 90.3281 45.5625C90.3281 48.8177 89.4297 51.5391 87.6328 53.7266C85.8359 55.888 83.5052 57.4766 80.6406 58.4922C77.8021 59.5078 74.7812 60.0156 71.5781 60.0156C68.7135 60.0156 65.6276 59.6641 62.3203 58.9609C59.0391 58.2318 56.3828 57.2422 54.3516 55.9922V43.375L56.6562 43.2969ZM122.594 10.1328C121.891 10.4193 121.227 10.6536 120.602 10.8359C119.977 10.9922 119.247 11.1484 118.414 11.3047C117.19 11.5391 116.279 11.8125 115.68 12.125C115.081 12.4115 114.599 13.0234 114.234 13.9609C113.896 14.8724 113.727 16.2917 113.727 18.2188V52.3594C113.727 55.7448 113.323 58.8958 112.516 61.8125C111.708 64.7552 110.289 67.1901 108.258 69.1172C106.253 71.0443 103.557 72.0078 100.172 72.0078C99.026 72.0078 97.8542 71.8516 96.6562 71.5391C95.4583 71.2266 94.4427 70.6927 93.6094 69.9375C92.776 69.2083 92.3594 68.2578 92.3594 67.0859C92.3594 66.0964 92.6979 65.2891 93.375 64.6641C94.026 64.0651 94.8464 63.7656 95.8359 63.7656C96.513 63.7656 97.0729 63.8958 97.5156 64.1562C97.9844 64.4167 98.349 64.7161 98.6094 65.0547C98.8958 65.4193 99.2214 65.9141 99.5859 66.5391C99.9766 67.2943 100.354 67.8542 100.719 68.2188C101.109 68.6094 101.617 68.8047 102.242 68.8047C104.299 68.8047 105.328 65.4583 105.328 58.7656V18.5703C105.328 16.5391 105.146 15.0417 104.781 14.0781C104.443 13.1146 103.948 12.4766 103.297 12.1641C102.672 11.8255 101.669 11.5 100.289 11.1875C98.6745 10.849 97.3854 10.5104 96.4219 10.1719L96.5391 8.14062H122.594V10.1328ZM134.664 18.6094C134.664 16.5 134.495 14.9635 134.156 14C133.818 13.0104 133.323 12.3464 132.672 12.0078C132.021 11.6693 130.966 11.3568 129.508 11.0703C127.737 10.6797 126.461 10.3672 125.68 10.1328L125.758 8.14062H152.164V10.1719C151.409 10.4844 150.732 10.7188 150.133 10.875C149.534 11.0052 148.74 11.1615 147.75 11.3438C146.5 11.5521 145.576 11.8125 144.977 12.125C144.378 12.4115 143.909 13.0234 143.57 13.9609C143.258 14.8984 143.102 16.3698 143.102 18.375V46.8125C143.102 49.9635 143.401 52.151 144 53.375C144.625 54.5729 145.784 55.3281 147.477 55.6406C149.169 55.9531 152.268 56.1094 156.773 56.1094C159.638 56.1094 162.047 55.7448 164 55.0156C165.979 54.2604 167.555 52.763 168.727 50.5234L169.312 49.3516C169.729 48.4922 170.107 47.776 170.445 47.2031C170.784 46.6042 171.174 46.0573 171.617 45.5625L173.961 45.6406L171.5 59.4297C168.01 59.1432 165.159 59 162.945 59H125.719L125.641 56.8906C126.031 56.7604 126.865 56.513 128.141 56.1484C129.625 55.7578 130.797 55.3802 131.656 55.0156C132.516 54.625 133.232 54.013 133.805 53.1797C134.378 52.3203 134.664 51.1354 134.664 49.625V18.6094Z" fill="#F1C465"/>
<path d="M41.2383 79.6094C40.5195 79.6094 39.9492 79.6406 39.5273 79.7031C39.2539 79.7422 39.0039 79.8516 38.7773 80.0312C38.5586 80.2109 38.3672 80.4141 38.2031 80.6406C38.0469 80.8672 37.8555 81.1719 37.6289 81.5547C37.3945 81.9688 37.1914 82.2812 37.0195 82.4922H36.4805L36.7734 78.6719C38.0625 78.7266 39.7266 78.7539 41.7656 78.7539L46.3359 78.7422H47.8711C49.4492 78.7422 50.7266 78.7109 51.7031 78.6484L52.0781 82.5039H51.5156C51.3984 82.3633 51.2773 82.1875 51.1523 81.9766C51.0273 81.7578 50.9453 81.6172 50.9062 81.5547C50.5938 81 50.3008 80.5664 50.0273 80.2539C49.7617 79.9414 49.4453 79.7578 49.0781 79.7031C48.8125 79.6641 48.543 79.6406 48.2695 79.6328C48.0039 79.6172 47.668 79.6094 47.2617 79.6094H45.4688V91.1758C45.4688 91.7773 45.5703 92.2266 45.7734 92.5234C45.9844 92.8125 46.2578 93.0078 46.5938 93.1094C46.9375 93.2109 47.4453 93.3047 48.1172 93.3906C48.1172 93.6641 48.1094 93.8672 48.0938 94H40.3359L40.3125 93.3906C40.4453 93.3438 40.6523 93.2812 40.9336 93.2031C41.3945 93.0625 41.7578 92.9297 42.0234 92.8047C42.2891 92.6797 42.5078 92.4883 42.6797 92.2305C42.8594 91.9727 42.9492 91.6211 42.9492 91.1758V79.6094H41.2383ZM56.9414 91.293C56.9414 91.6602 56.9805 91.9883 57.0586 92.2773C57.1445 92.5586 57.3438 92.8086 57.6562 93.0273C57.9688 93.2461 58.4375 93.375 59.0625 93.4141L59.0508 94H52.9453C52.9453 93.9375 52.9414 93.8359 52.9336 93.6953C52.9336 93.5547 52.9375 93.4453 52.9453 93.3672L53.332 93.2617C53.7461 93.1523 54.043 93.0508 54.2227 92.957C54.4023 92.8633 54.5352 92.6992 54.6211 92.4648C54.7148 92.2227 54.7617 91.8555 54.7617 91.3633V85.4688C54.6602 85.2969 54.4727 85.1406 54.1992 85C53.9258 84.8516 53.6406 84.7305 53.3438 84.6367C53.0547 84.543 52.9102 84.5 52.9102 84.5078L52.9336 84.0977L56.0508 83.2656H56.7188L56.9062 85.4219C57.3438 84.6172 57.7969 84.0469 58.2656 83.7109C58.7422 83.375 59.2852 83.207 59.8945 83.207C60.207 83.207 60.4883 83.2734 60.7383 83.4062C60.9961 83.5312 61.1953 83.6953 61.3359 83.8984C61.4844 84.0938 61.5586 84.293 61.5586 84.4961C61.5586 84.6289 61.5195 84.8086 61.4414 85.0352C61.3711 85.2617 61.2578 85.4609 61.1016 85.6328C60.9531 85.8047 60.7695 85.8906 60.5508 85.8906C60.3008 85.8906 60.1055 85.8359 59.9648 85.7266C59.8242 85.6094 59.6797 85.4375 59.5312 85.2109C59.4219 85.0391 59.3164 84.9102 59.2148 84.8242C59.1211 84.7383 59 84.6953 58.8516 84.6953C58.6016 84.6953 58.375 84.7695 58.1719 84.918C57.9766 85.0586 57.8047 85.2344 57.6562 85.4453C57.5078 85.6562 57.3281 85.9375 57.1172 86.2891L56.9414 86.582V91.293ZM67.5586 94.2344C66.6133 94.2344 65.8828 94 65.3672 93.5312C64.8594 93.0547 64.5156 92.4375 64.3359 91.6797C64.1562 90.9219 64.0664 90.0195 64.0664 88.9727V85.4805C63.9648 85.3008 63.7734 85.1406 63.4922 85C63.2188 84.8516 62.9336 84.7305 62.6367 84.6367C62.3477 84.5352 62.2031 84.4883 62.2031 84.4961L62.2266 84.0859L65.5195 83.2891L66.2461 83.2422V88.8438C66.2461 89.8438 66.3086 90.6328 66.4336 91.2109C66.5586 91.7812 66.7695 92.1992 67.0664 92.4648C67.3633 92.7227 67.7773 92.8516 68.3086 92.8516C69.3945 92.8516 70.418 92.375 71.3789 91.4219V85.4805C71.2773 85.3008 71.0859 85.1406 70.8047 85C70.5312 84.8516 70.2461 84.7305 69.9492 84.6367C69.6602 84.5352 69.5156 84.4883 69.5156 84.4961L69.5391 84.0859L72.832 83.2891L73.5586 83.2422V91.6445C73.5586 91.9727 73.6406 92.2266 73.8047 92.4062C73.9688 92.5781 74.1719 92.7031 74.4141 92.7812C74.6562 92.8594 74.9883 92.9336 75.4102 93.0039C75.4102 93.1211 75.4023 93.2422 75.3867 93.3672C75.3789 93.4922 75.375 93.5781 75.375 93.625L71.5312 94.1758L71.4375 92.3008C70.2812 93.5898 68.9883 94.2344 67.5586 94.2344ZM83.8828 86.6055C83.7734 86.6133 83.5898 86.6172 83.332 86.6172C83.1055 85.8281 82.7617 85.1836 82.3008 84.6836C81.8477 84.1836 81.2656 83.9336 80.5547 83.9336C80.0625 83.9336 79.6719 84.0547 79.3828 84.2969C79.1016 84.5391 78.9609 84.8906 78.9609 85.3516C78.9609 85.6719 79.0781 85.9688 79.3125 86.2422C79.5469 86.5156 79.832 86.7578 80.168 86.9688C80.5117 87.1719 80.9609 87.4141 81.5156 87.6953C81.6484 87.7578 81.8477 87.8594 82.1133 88C82.9883 88.4688 83.625 88.9492 84.0234 89.4414C84.4297 89.9258 84.6328 90.5195 84.6328 91.2227C84.6328 91.8711 84.4727 92.4219 84.1523 92.875C83.832 93.3203 83.3906 93.6602 82.8281 93.8945C82.2656 94.1211 81.6211 94.2344 80.8945 94.2344C80.2539 94.2344 79.6055 94.1562 78.9492 94C78.293 93.8516 77.7539 93.6484 77.332 93.3906V90.5312C77.6367 90.4922 77.8438 90.4727 77.9531 90.4727C78.1328 91.3398 78.4492 92.0469 78.9023 92.5938C79.3633 93.1406 79.9922 93.4141 80.7891 93.4141C81.3594 93.4141 81.832 93.2734 82.207 92.9922C82.5898 92.7031 82.7812 92.3242 82.7812 91.8555C82.7812 91.5586 82.6953 91.2969 82.5234 91.0703C82.3516 90.8438 82.1289 90.6445 81.8555 90.4727C81.582 90.3008 81.1719 90.0703 80.625 89.7812C79.8906 89.3906 79.332 89.0742 78.9492 88.832C78.3555 88.4648 77.9062 88.0547 77.6016 87.6016C77.3047 87.1484 77.1562 86.6094 77.1562 85.9844C77.1562 85.3828 77.3086 84.8711 77.6133 84.4492C77.918 84.0195 78.332 83.6953 78.8555 83.4766C79.3789 83.2578 79.9688 83.1484 80.625 83.1484C81.2266 83.1484 81.7969 83.2227 82.3359 83.3711C82.8828 83.5195 83.375 83.7305 83.8125 84.0039L83.8828 86.6055ZM90.0938 90.3203C90.0938 91.1172 90.1211 91.6875 90.1758 92.0312C90.2305 92.3672 90.3633 92.6133 90.5742 92.7695C90.7852 92.918 91.1406 92.9922 91.6406 92.9922C91.9375 92.9922 92.2344 92.9648 92.5312 92.9102C92.8281 92.8555 93.0781 92.7969 93.2812 92.7344L93.375 93.5898C92.9766 93.7852 92.5742 93.9414 92.168 94.0586C91.7617 94.1758 91.2734 94.2344 90.7031 94.2344C89.9453 94.2344 89.3672 94.1094 88.9688 93.8594C88.5703 93.6094 88.293 93.207 88.1367 92.6523C87.9805 92.0898 87.9023 91.3008 87.9023 90.2852V84.3438H86.1562V83.9336C86.6875 83.7227 87.1328 83.4766 87.4922 83.1953C87.8594 82.9062 88.1602 82.6094 88.3945 82.3047C88.6289 82 88.9102 81.5977 89.2383 81.0977C89.3789 80.8711 89.4883 80.7227 89.5664 80.6523C89.6445 80.5742 89.7227 80.5352 89.8008 80.5352C89.8789 80.5352 89.9414 80.5742 89.9883 80.6523C90.043 80.7227 90.0703 80.8359 90.0703 80.9922V83.4648H93.0117V84.3438H90.0938V90.3203ZM96.8438 87.8359C96.8359 87.9141 96.832 88.0273 96.832 88.1758C96.832 89.1602 97.0078 89.9844 97.3594 90.6484C97.7188 91.3047 98.1953 91.793 98.7891 92.1133C99.3906 92.4258 100.062 92.582 100.805 92.582C101.789 92.582 102.738 92.3008 103.652 91.7383L103.992 92.0664C103.805 92.5195 103.488 92.9102 103.043 93.2383C102.605 93.5664 102.105 93.8164 101.543 93.9883C100.988 94.1523 100.449 94.2344 99.9258 94.2344C98.9414 94.2344 98.0547 94.0039 97.2656 93.543C96.4844 93.082 95.8711 92.4375 95.4258 91.6094C94.9883 90.7812 94.7695 89.832 94.7695 88.7617C94.7695 87.6758 95.0078 86.707 95.4844 85.8555C95.9609 84.9961 96.5938 84.332 97.3828 83.8633C98.1797 83.3867 99.0312 83.1484 99.9375 83.1484C100.68 83.1484 101.348 83.3008 101.941 83.6055C102.543 83.9023 103.031 84.3242 103.406 84.8711C103.781 85.4102 104.02 86.0312 104.121 86.7344C104.207 87.0938 104.25 87.4258 104.25 87.7305V87.8359H96.8438ZM101.062 87.0859C101.406 87.0703 101.695 87.0078 101.93 86.8984C101.875 85.9688 101.656 85.2422 101.273 84.7188C100.898 84.1953 100.363 83.9336 99.668 83.9336C99.1602 83.9336 98.707 84.0859 98.3086 84.3906C97.918 84.6953 97.6016 85.1016 97.3594 85.6094C97.1172 86.1094 96.9609 86.6602 96.8906 87.2617L101.062 87.0859ZM114.738 80.2305C114.637 80.0742 114.438 79.918 114.141 79.7617C113.852 79.6055 113.566 79.4727 113.285 79.3633C113.012 79.2539 112.832 79.1875 112.746 79.1641L112.77 78.7539L116.074 77.957L116.918 77.875V91.668C116.918 92.1367 117.117 92.4727 117.516 92.6758C117.922 92.8789 118.355 92.9805 118.816 92.9805V93.625L115.688 94.1406H114.902L114.797 92.3242C114.242 92.9648 113.66 93.4453 113.051 93.7656C112.441 94.0781 111.789 94.2344 111.094 94.2344C110.211 94.2344 109.402 94.0234 108.668 93.6016C107.941 93.1719 107.367 92.5742 106.945 91.8086C106.523 91.0352 106.312 90.1484 106.312 89.1484C106.312 88 106.547 86.9727 107.016 86.0664C107.492 85.1602 108.145 84.4531 108.973 83.9453C109.801 83.4375 110.727 83.1836 111.75 83.1836C112.227 83.1836 112.691 83.2578 113.145 83.4062C113.598 83.5469 114.129 83.7617 114.738 84.0508V80.2305ZM114.738 88.0234C114.738 87.2656 114.672 86.6562 114.539 86.1953C114.406 85.7266 114.137 85.3125 113.73 84.9531C113.418 84.6797 113.082 84.4688 112.723 84.3203C112.363 84.1641 112 84.0859 111.633 84.0859C111.016 84.0859 110.469 84.2852 109.992 84.6836C109.516 85.082 109.145 85.6133 108.879 86.2773C108.621 86.9336 108.492 87.6445 108.492 88.4102C108.492 89.1523 108.621 89.8633 108.879 90.543C109.145 91.2148 109.539 91.7656 110.062 92.1953C110.586 92.625 111.219 92.8398 111.961 92.8398C112.555 92.8398 113.082 92.7109 113.543 92.4531C114.012 92.1875 114.41 91.8359 114.738 91.3984V88.0234ZM133.184 79.3398C132.973 79.4258 132.773 79.4961 132.586 79.5508C132.398 79.5977 132.18 79.6445 131.93 79.6914C131.562 79.7617 131.289 79.8438 131.109 79.9375C130.93 80.0234 130.785 80.207 130.676 80.4883C130.574 80.7617 130.523 81.1875 130.523 81.7656V92.0078C130.523 93.0234 130.402 93.9688 130.16 94.8438C129.918 95.7266 129.492 96.457 128.883 97.0352C128.281 97.6133 127.473 97.9023 126.457 97.9023C126.113 97.9023 125.762 97.8555 125.402 97.7617C125.043 97.668 124.738 97.5078 124.488 97.2812C124.238 97.0625 124.113 96.7773 124.113 96.4258C124.113 96.1289 124.215 95.8867 124.418 95.6992C124.613 95.5195 124.859 95.4297 125.156 95.4297C125.359 95.4297 125.527 95.4688 125.66 95.5469C125.801 95.625 125.91 95.7148 125.988 95.8164C126.074 95.9258 126.172 96.0742 126.281 96.2617C126.398 96.4883 126.512 96.6562 126.621 96.7656C126.738 96.8828 126.891 96.9414 127.078 96.9414C127.695 96.9414 128.004 95.9375 128.004 93.9297V81.8711C128.004 81.2617 127.949 80.8125 127.84 80.5234C127.738 80.2344 127.59 80.043 127.395 79.9492C127.207 79.8477 126.906 79.75 126.492 79.6562C126.008 79.5547 125.621 79.4531 125.332 79.3516L125.367 78.7422H133.184V79.3398ZM136.102 87.8359C136.094 87.9141 136.09 88.0273 136.09 88.1758C136.09 89.1602 136.266 89.9844 136.617 90.6484C136.977 91.3047 137.453 91.793 138.047 92.1133C138.648 92.4258 139.32 92.582 140.062 92.582C141.047 92.582 141.996 92.3008 142.91 91.7383L143.25 92.0664C143.062 92.5195 142.746 92.9102 142.301 93.2383C141.863 93.5664 141.363 93.8164 140.801 93.9883C140.246 94.1523 139.707 94.2344 139.184 94.2344C138.199 94.2344 137.312 94.0039 136.523 93.543C135.742 93.082 135.129 92.4375 134.684 91.6094C134.246 90.7812 134.027 89.832 134.027 88.7617C134.027 87.6758 134.266 86.707 134.742 85.8555C135.219 84.9961 135.852 84.332 136.641 83.8633C137.438 83.3867 138.289 83.1484 139.195 83.1484C139.938 83.1484 140.605 83.3008 141.199 83.6055C141.801 83.9023 142.289 84.3242 142.664 84.8711C143.039 85.4102 143.277 86.0312 143.379 86.7344C143.465 87.0938 143.508 87.4258 143.508 87.7305V87.8359H136.102ZM140.32 87.0859C140.664 87.0703 140.953 87.0078 141.188 86.8984C141.133 85.9688 140.914 85.2422 140.531 84.7188C140.156 84.1953 139.621 83.9336 138.926 83.9336C138.418 83.9336 137.965 84.0859 137.566 84.3906C137.176 84.6953 136.859 85.1016 136.617 85.6094C136.375 86.1094 136.219 86.6602 136.148 87.2617L140.32 87.0859ZM150.023 91.1523L152.168 85.9375C152.02 85.4062 151.781 84.9609 151.453 84.6016C151.125 84.2422 150.707 84.0508 150.199 84.0273L150.223 83.4648H155.402C155.418 83.7305 155.426 83.918 155.426 84.0273C155.324 84.0742 155.164 84.1367 154.945 84.2148C154.648 84.3164 154.43 84.418 154.289 84.5195C154.148 84.6211 154.078 84.7812 154.078 85C154.078 85.1641 154.148 85.4375 154.289 85.8203L156.199 91.0586L158.027 86.125C158.176 85.7422 158.25 85.4219 158.25 85.1641C158.25 84.9297 158.215 84.7539 158.145 84.6367C158.074 84.5117 157.977 84.4219 157.852 84.3672C157.727 84.3125 157.531 84.25 157.266 84.1797L156.832 84.0625C156.816 83.9531 156.809 83.8594 156.809 83.7812C156.809 83.7109 156.816 83.6055 156.832 83.4648H160.945V84.0859C160.727 84.1172 160.484 84.2148 160.219 84.3789C159.961 84.543 159.727 84.7422 159.516 84.9766C159.312 85.2031 159.172 85.4219 159.094 85.6328L155.93 94.1641C155.852 94.2109 155.734 94.2344 155.578 94.2344C155.43 94.2344 155.309 94.2109 155.215 94.1641L152.555 87.0156L149.73 94.1641C149.637 94.2109 149.516 94.2344 149.367 94.2344C149.203 94.2344 149.078 94.2109 148.992 94.1641L145.723 85.8086C145.574 85.4258 145.441 85.1289 145.324 84.918C145.207 84.707 145.051 84.5273 144.855 84.3789C144.668 84.2227 144.418 84.1094 144.105 84.0391L144.129 83.4648H148.957C148.965 83.5977 148.969 83.7852 148.969 84.0273C148.594 84.1523 148.301 84.293 148.09 84.4492C147.887 84.6055 147.785 84.8281 147.785 85.1172C147.785 85.25 147.805 85.375 147.844 85.4922C147.844 85.5234 147.848 85.5508 147.855 85.5742L150.023 91.1523ZM163.688 87.8359C163.68 87.9141 163.676 88.0273 163.676 88.1758C163.676 89.1602 163.852 89.9844 164.203 90.6484C164.562 91.3047 165.039 91.793 165.633 92.1133C166.234 92.4258 166.906 92.582 167.648 92.582C168.633 92.582 169.582 92.3008 170.496 91.7383L170.836 92.0664C170.648 92.5195 170.332 92.9102 169.887 93.2383C169.449 93.5664 168.949 93.8164 168.387 93.9883C167.832 94.1523 167.293 94.2344 166.77 94.2344C165.785 94.2344 164.898 94.0039 164.109 93.543C163.328 93.082 162.715 92.4375 162.27 91.6094C161.832 90.7812 161.613 89.832 161.613 88.7617C161.613 87.6758 161.852 86.707 162.328 85.8555C162.805 84.9961 163.438 84.332 164.227 83.8633C165.023 83.3867 165.875 83.1484 166.781 83.1484C167.523 83.1484 168.191 83.3008 168.785 83.6055C169.387 83.9023 169.875 84.3242 170.25 84.8711C170.625 85.4102 170.863 86.0312 170.965 86.7344C171.051 87.0938 171.094 87.4258 171.094 87.7305V87.8359H163.688ZM167.906 87.0859C168.25 87.0703 168.539 87.0078 168.773 86.8984C168.719 85.9688 168.5 85.2422 168.117 84.7188C167.742 84.1953 167.207 83.9336 166.512 83.9336C166.004 83.9336 165.551 84.0859 165.152 84.3906C164.762 84.6953 164.445 85.1016 164.203 85.6094C163.961 86.1094 163.805 86.6602 163.734 87.2617L167.906 87.0859ZM176.543 91.2578C176.543 91.9141 176.676 92.4219 176.941 92.7812C177.215 93.1328 177.664 93.3438 178.289 93.4141C178.289 93.5312 178.285 93.6484 178.277 93.7656C178.27 93.8828 178.266 93.9609 178.266 94H172.5L172.488 93.4141C172.559 93.3672 172.648 93.3242 172.758 93.2852C172.875 93.2461 172.992 93.2109 173.109 93.1797C173.453 93.0859 173.723 92.9844 173.918 92.875C174.113 92.7578 174.23 92.5859 174.27 92.3594C174.332 92.0234 174.363 91.6797 174.363 91.3281L174.352 80.3008C174.258 80.1445 174.066 79.9922 173.777 79.8438C173.496 79.6875 173.219 79.5586 172.945 79.457C172.672 79.3477 172.496 79.2812 172.418 79.2578L172.441 78.8477L175.699 77.957L176.543 77.875V91.2578ZM187.008 86.6055C186.898 86.6133 186.715 86.6172 186.457 86.6172C186.23 85.8281 185.887 85.1836 185.426 84.6836C184.973 84.1836 184.391 83.9336 183.68 83.9336C183.188 83.9336 182.797 84.0547 182.508 84.2969C182.227 84.5391 182.086 84.8906 182.086 85.3516C182.086 85.6719 182.203 85.9688 182.438 86.2422C182.672 86.5156 182.957 86.7578 183.293 86.9688C183.637 87.1719 184.086 87.4141 184.641 87.6953C184.773 87.7578 184.973 87.8594 185.238 88C186.113 88.4688 186.75 88.9492 187.148 89.4414C187.555 89.9258 187.758 90.5195 187.758 91.2227C187.758 91.8711 187.598 92.4219 187.277 92.875C186.957 93.3203 186.516 93.6602 185.953 93.8945C185.391 94.1211 184.746 94.2344 184.02 94.2344C183.379 94.2344 182.73 94.1562 182.074 94C181.418 93.8516 180.879 93.6484 180.457 93.3906V90.5312C180.762 90.4922 180.969 90.4727 181.078 90.4727C181.258 91.3398 181.574 92.0469 182.027 92.5938C182.488 93.1406 183.117 93.4141 183.914 93.4141C184.484 93.4141 184.957 93.2734 185.332 92.9922C185.715 92.7031 185.906 92.3242 185.906 91.8555C185.906 91.5586 185.82 91.2969 185.648 91.0703C185.477 90.8438 185.254 90.6445 184.98 90.4727C184.707 90.3008 184.297 90.0703 183.75 89.7812C183.016 89.3906 182.457 89.0742 182.074 88.832C181.48 88.4648 181.031 88.0547 180.727 87.6016C180.43 87.1484 180.281 86.6094 180.281 85.9844C180.281 85.3828 180.434 84.8711 180.738 84.4492C181.043 84.0195 181.457 83.6953 181.98 83.4766C182.504 83.2578 183.094 83.1484 183.75 83.1484C184.352 83.1484 184.922 83.2227 185.461 83.3711C186.008 83.5195 186.5 83.7305 186.938 84.0039L187.008 86.6055Z" fill="#1C1B19"/>
</g>
<defs>
<clipPath id="clip0_109_348">
<rect width="224" height="108" fill="white"/>
</clipPath>
</defs>
</svg>
