<svg width="1200" height="1200" viewBox="0 0 1200 1200" fill="none" xmlns="http://www.w3.org/2000/svg">
<rect width="1200" height="1200" fill="white"/>
<g clip-path="url(#clip0_600_7)">
<mask id="mask0_600_7" style="mask-type:luminance" maskUnits="userSpaceOnUse" x="163" y="325" width="874" height="550">
<path d="M1037 325H163V875H1037V325Z" fill="white"/>
</mask>
<g mask="url(#mask0_600_7)">
<mask id="mask1_600_7" style="mask-type:luminance" maskUnits="userSpaceOnUse" x="163" y="325" width="874" height="550">
<path d="M1037 325H163V875H1037V325Z" fill="white"/>
</mask>
<g mask="url(#mask1_600_7)">
<path d="M384.06 545.494C385.077 547.748 385.89 550.069 386.499 552.456C387.21 554.843 387.973 557.96 388.785 561.806C389.192 563.132 389.547 564.657 389.852 566.381C393.409 581.632 400.166 593.369 410.123 601.592C420.081 609.814 431.461 613.926 444.264 613.926C450.97 613.926 457.473 612.4 463.773 609.35C470.174 606.167 475.407 601.459 479.471 595.226C483.637 588.86 485.72 581.169 485.72 572.15C485.72 564.326 483.587 557.032 479.319 550.268C475.153 543.504 469.92 537.47 463.62 532.166C457.422 526.728 448.836 520.031 437.862 512.074C424.958 502.79 414.492 494.568 406.465 487.406C398.438 480.245 391.631 471.757 386.042 461.943C380.454 451.997 377.659 440.791 377.659 428.324C377.659 412.94 380.962 400.275 387.566 390.329C394.272 380.25 402.807 372.956 413.172 368.446C423.637 363.805 434.662 361.484 446.245 361.484C456.203 361.484 466.11 363.075 475.966 366.258C485.923 369.441 495.373 374.016 504.315 379.984L506.296 436.679H496.847C495.627 433.629 494.205 428.788 492.579 422.157L491.055 416.388C487.6 403.392 481.605 393.578 473.07 386.947C464.637 380.183 454.882 376.802 443.807 376.802C438.116 376.802 432.376 378.062 426.584 380.581C420.792 383.101 415.915 387.013 411.952 392.318C408.091 397.49 406.16 403.922 406.16 411.614C406.16 418.776 408.193 425.473 412.257 431.706C416.321 437.939 421.351 443.642 427.346 448.814C433.341 453.854 441.622 460.219 452.189 467.911C465.703 477.725 476.626 486.412 484.958 493.971C493.392 501.398 500.555 510.416 506.448 521.025C512.444 531.635 515.441 543.637 515.441 557.032C515.441 573.609 511.936 587.468 504.924 598.608C497.913 609.615 488.819 617.705 477.642 622.877C466.567 628.049 454.78 630.635 442.282 630.635C431.105 630.635 419.065 628.845 406.16 625.264C393.358 621.551 382.994 616.512 375.068 610.146V545.892L384.06 545.494ZM641.336 376.602C638.593 378.062 636.002 379.255 633.563 380.183C631.125 380.979 628.276 381.775 625.026 382.57C620.25 383.764 616.696 385.157 614.359 386.748C612.021 388.207 610.141 391.323 608.717 396.097C607.398 400.739 606.738 407.967 606.738 417.781V591.646C606.738 608.886 605.162 624.933 602.013 639.786C598.861 654.772 593.324 667.172 585.4 676.986C577.576 686.8 567.057 691.707 553.85 691.707C549.378 691.707 544.806 690.911 540.132 689.32C535.458 687.729 531.495 685.01 528.244 681.164C524.992 677.45 523.367 672.61 523.367 666.642C523.367 661.603 524.687 657.491 527.329 654.308C529.869 651.258 533.07 649.733 536.931 649.733C539.573 649.733 541.758 650.396 543.485 651.722C545.314 653.048 546.737 654.573 547.753 656.298C548.87 658.154 550.141 660.674 551.563 663.857C553.087 667.703 554.56 670.554 555.984 672.411C557.506 674.4 559.488 675.395 561.926 675.395C569.952 675.395 573.967 658.353 573.967 624.27V419.571C573.967 409.227 573.257 401.602 571.833 396.694C570.514 391.788 568.583 388.539 566.043 386.947C563.604 385.223 559.691 383.565 554.306 381.974C548.007 380.25 542.977 378.525 539.218 376.802L539.675 366.457H641.336V376.602ZM688.43 419.77C688.43 409.028 687.771 401.203 686.448 396.297C685.129 391.257 683.198 387.875 680.658 386.151C678.118 384.427 674.001 382.836 668.312 381.377C661.402 379.388 656.424 377.796 653.376 376.602L653.681 366.457H756.711V376.802C753.765 378.393 751.124 379.587 748.787 380.382C746.45 381.045 743.352 381.841 739.489 382.77C734.612 383.83 731.006 385.157 728.669 386.748C726.332 388.207 724.502 391.323 723.179 396.097C721.962 400.872 721.353 408.365 721.353 418.577V563.397C721.353 579.444 722.52 590.584 724.857 596.818C727.296 602.918 731.818 606.764 738.424 608.355C745.026 609.947 757.117 610.743 774.695 610.743C785.873 610.743 795.273 608.886 802.893 605.172C810.615 601.327 816.764 593.701 821.337 582.296L823.619 576.328C825.246 571.951 826.721 568.304 828.04 565.387C829.363 562.337 830.884 559.551 832.613 557.032L841.759 557.429L832.156 627.652C818.539 626.193 807.415 625.463 798.777 625.463H653.529L653.224 614.721C654.746 614.058 658 612.798 662.979 610.941C668.769 608.952 673.342 607.029 676.694 605.172C680.049 603.183 682.843 600.067 685.078 595.823C687.314 591.446 688.43 585.412 688.43 577.72V419.77Z" fill="#B38D22"/>
<path d="M323.903 730.419C321.098 730.419 318.873 730.578 317.227 730.897C316.16 731.096 315.185 731.653 314.301 732.568C313.447 733.483 312.701 734.517 312.06 735.671C311.451 736.825 310.704 738.377 309.82 740.326C308.905 742.435 308.113 744.026 307.442 745.1H305.339L306.482 725.645C311.512 725.924 318.005 726.063 325.96 726.063L343.793 726.003H349.783C355.94 726.003 360.924 725.844 364.734 725.526L366.198 745.16H364.003C363.546 744.444 363.073 743.549 362.585 742.475C362.098 741.36 361.778 740.644 361.625 740.326C360.406 737.501 359.263 735.293 358.196 733.702C357.16 732.11 355.925 731.175 354.492 730.897C353.456 730.698 352.404 730.578 351.337 730.539C350.301 730.459 348.99 730.419 347.405 730.419H340.41V789.322C340.41 792.385 340.806 794.674 341.598 796.185C342.421 797.657 343.488 798.652 344.799 799.169C346.14 799.686 348.121 800.164 350.743 800.601C350.743 801.994 350.713 803.028 350.652 803.705H320.382L320.291 800.601C320.809 800.363 321.617 800.044 322.714 799.646C324.512 798.93 325.93 798.254 326.966 797.618C328.003 796.981 328.856 796.006 329.527 794.693C330.228 793.381 330.579 791.59 330.579 789.322V730.419H323.903ZM385.173 789.919C385.173 791.789 385.326 793.46 385.63 794.932C385.966 796.364 386.743 797.637 387.962 798.751C389.182 799.865 391.011 800.522 393.449 800.721L393.404 803.705H369.581C369.581 803.386 369.566 802.869 369.536 802.153C369.536 801.437 369.551 800.88 369.581 800.482L371.09 799.945C372.706 799.388 373.864 798.871 374.565 798.393C375.266 797.916 375.785 797.08 376.12 795.887C376.485 794.654 376.668 792.784 376.668 790.277V760.259C376.272 759.384 375.541 758.588 374.474 757.872C373.407 757.116 372.294 756.499 371.136 756.021C370.008 755.544 369.444 755.325 369.444 755.365L369.536 753.277L381.698 749.039H384.305L385.036 760.02C386.743 755.922 388.511 753.018 390.34 751.307C392.199 749.596 394.318 748.741 396.696 748.741C397.915 748.741 399.012 749.079 399.988 749.755C400.994 750.392 401.771 751.227 402.32 752.262C402.899 753.257 403.188 754.271 403.188 755.305C403.188 755.982 403.036 756.897 402.731 758.051C402.457 759.204 402.015 760.219 401.405 761.094C400.826 761.97 400.11 762.407 399.256 762.407C398.281 762.407 397.519 762.128 396.97 761.572C396.421 760.975 395.857 760.1 395.278 758.946C394.852 758.071 394.44 757.414 394.043 756.976C393.678 756.539 393.205 756.32 392.626 756.32C391.651 756.32 390.767 756.698 389.974 757.454C389.212 758.17 388.542 759.065 387.962 760.139C387.383 761.213 386.682 762.646 385.859 764.436L385.173 765.928V789.919ZM426.599 804.898C422.911 804.898 420.061 803.705 418.049 801.317C416.068 798.891 414.726 795.748 414.025 791.888C413.324 788.029 412.973 783.434 412.973 778.103V760.319C412.577 759.403 411.83 758.588 410.733 757.872C409.666 757.116 408.553 756.499 407.395 756.021C406.267 755.505 405.703 755.266 405.703 755.305L405.795 753.216L418.643 749.159L421.478 748.92V777.446C421.478 782.539 421.722 786.557 422.21 789.501C422.697 792.405 423.52 794.534 424.679 795.887C425.837 797.2 427.453 797.856 429.526 797.856C433.762 797.856 437.756 795.429 441.505 790.576V760.319C441.109 759.403 440.362 758.588 439.265 757.872C438.198 757.116 437.085 756.499 435.927 756.021C434.799 755.505 434.235 755.266 434.235 755.305L434.327 753.216L447.175 749.159L450.01 748.92V791.709C450.01 793.381 450.33 794.674 450.97 795.588C451.61 796.464 452.403 797.1 453.348 797.498C454.293 797.896 455.588 798.274 457.234 798.632C457.234 799.229 457.204 799.846 457.143 800.482C457.112 801.119 457.097 801.556 457.097 801.795L442.099 804.6L441.734 795.051C437.222 801.616 432.178 804.898 426.599 804.898ZM490.293 766.048C489.866 766.087 489.15 766.107 488.144 766.107C487.26 762.089 485.918 758.807 484.12 756.26C482.352 753.714 480.081 752.441 477.307 752.441C475.387 752.441 473.863 753.058 472.735 754.291C471.638 755.524 471.089 757.314 471.089 759.662C471.089 761.293 471.546 762.805 472.46 764.198C473.375 765.59 474.487 766.823 475.798 767.898C477.139 768.932 478.892 770.166 481.056 771.598C481.575 771.916 482.352 772.433 483.389 773.149C486.803 775.537 489.287 777.983 490.841 780.49C492.427 782.957 493.219 785.98 493.219 789.561C493.219 792.863 492.594 795.668 491.344 797.976C490.095 800.243 488.372 801.974 486.178 803.167C483.983 804.321 481.468 804.898 478.633 804.898C476.134 804.898 473.604 804.5 471.043 803.705C468.483 802.949 466.379 801.914 464.733 800.601V786.04C465.922 785.841 466.73 785.742 467.156 785.742C467.857 790.157 469.092 793.758 470.86 796.544C472.659 799.328 475.112 800.721 478.222 800.721C480.447 800.721 482.291 800.005 483.754 798.572C485.248 797.1 485.995 795.171 485.995 792.784C485.995 791.272 485.659 789.939 484.989 788.785C484.318 787.632 483.449 786.617 482.383 785.742C481.316 784.866 479.715 783.692 477.581 782.22C474.716 780.231 472.537 778.62 471.043 777.386C468.726 775.516 466.973 773.428 465.785 771.12C464.626 768.812 464.047 766.068 464.047 762.885C464.047 759.821 464.642 757.215 465.83 755.067C467.019 752.878 468.635 751.227 470.677 750.114C472.719 748.999 475.021 748.442 477.581 748.442C479.929 748.442 482.154 748.821 484.257 749.576C486.391 750.332 488.311 751.407 490.018 752.799L490.293 766.048ZM514.527 784.966C514.527 789.024 514.633 791.928 514.847 793.678C515.06 795.39 515.578 796.643 516.401 797.438C517.224 798.195 518.611 798.572 520.562 798.572C521.72 798.572 522.879 798.433 524.037 798.155C525.195 797.876 526.171 797.578 526.963 797.26L527.329 801.616C525.775 802.611 524.205 803.406 522.62 804.003C521.035 804.6 519.129 804.898 516.904 804.898C513.947 804.898 511.692 804.262 510.137 802.989C508.582 801.716 507.5 799.666 506.891 796.841C506.281 793.977 505.976 789.959 505.976 784.787V754.53H499.163V752.441C501.236 751.367 502.974 750.113 504.376 748.681C505.809 747.209 506.982 745.697 507.896 744.146C508.811 742.594 509.909 740.545 511.189 737.999C511.737 736.845 512.164 736.089 512.469 735.731C512.774 735.333 513.079 735.134 513.383 735.134C513.688 735.134 513.932 735.333 514.115 735.731C514.329 736.089 514.435 736.666 514.435 737.462V750.053H525.912V754.53H514.527V784.966ZM540.864 772.314C540.833 772.712 540.818 773.288 540.818 774.045C540.818 779.058 541.504 783.255 542.876 786.636C544.278 789.979 546.137 792.465 548.454 794.097C550.801 795.688 553.421 796.483 556.32 796.483C560.159 796.483 563.862 795.051 567.428 792.187L568.755 793.858C568.025 796.165 566.788 798.155 565.052 799.826C563.343 801.497 561.392 802.77 559.199 803.645C557.034 804.48 554.93 804.898 552.889 804.898C549.048 804.898 545.588 803.725 542.51 801.377C539.461 799.03 537.069 795.748 535.331 791.53C533.624 787.313 532.77 782.479 532.77 777.028C532.77 771.498 533.7 766.565 535.56 762.228C537.419 757.852 539.888 754.47 542.967 752.083C546.076 749.656 549.399 748.442 552.935 748.442C555.832 748.442 558.438 749.218 560.752 750.77C563.101 752.281 565.005 754.43 566.468 757.215C567.931 759.961 568.864 763.123 569.258 766.704C569.593 768.534 569.761 770.225 569.761 771.777V772.314H540.864ZM557.322 768.494C558.664 768.415 559.792 768.096 560.709 767.539C560.494 762.805 559.64 759.105 558.146 756.44C556.682 753.774 554.595 752.441 551.883 752.441C549.902 752.441 548.134 753.216 546.579 754.768C545.055 756.32 543.821 758.389 542.876 760.975C541.931 763.521 541.321 766.326 541.046 769.389L557.322 768.494ZM610.683 733.582C610.289 732.787 609.513 731.991 608.354 731.195C607.226 730.4 606.11 729.723 605.014 729.166C603.949 728.609 603.246 728.271 602.911 728.152L603.004 726.063L615.896 722.005L619.189 721.587V791.829C619.189 794.216 619.965 795.927 621.522 796.961C623.106 797.995 624.796 798.513 626.595 798.513V801.795L614.39 804.421H611.323L610.913 795.171C608.748 798.433 606.477 800.88 604.101 802.511C601.721 804.102 599.177 804.898 596.465 804.898C593.02 804.898 589.863 803.824 586.999 801.676C584.163 799.488 581.923 796.444 580.277 792.545C578.63 788.606 577.807 784.09 577.807 778.998C577.807 773.149 578.724 767.918 580.554 763.302C582.411 758.687 584.959 755.086 588.189 752.5C591.42 749.914 595.033 748.621 599.025 748.621C600.886 748.621 602.696 748.999 604.468 749.755C606.235 750.471 608.307 751.565 610.683 753.038V733.582ZM610.683 773.268C610.683 769.409 610.426 766.306 609.907 763.959C609.388 761.572 608.338 759.463 606.75 757.633C605.533 756.24 604.222 755.166 602.821 754.41C601.416 753.615 600 753.216 598.568 753.216C596.161 753.216 594.026 754.231 592.165 756.26C590.308 758.289 588.86 760.995 587.823 764.376C586.816 767.719 586.313 771.339 586.313 775.238C586.313 779.017 586.816 782.638 587.823 786.1C588.86 789.521 590.398 792.326 592.438 794.514C594.483 796.702 596.953 797.796 599.848 797.796C602.166 797.796 604.222 797.14 606.02 795.827C607.85 794.474 609.403 792.684 610.683 790.456V773.268ZM682.655 729.047C681.832 729.484 681.052 729.842 680.322 730.121C679.589 730.36 678.738 730.598 677.763 730.837C676.327 731.195 675.262 731.613 674.559 732.09C673.861 732.528 673.295 733.463 672.87 734.895C672.472 736.288 672.273 738.456 672.273 741.4V793.559C672.273 798.731 671.801 803.546 670.856 808.002C669.912 812.498 668.25 816.217 665.874 819.162C663.525 822.106 660.372 823.578 656.408 823.578C655.066 823.578 653.696 823.339 652.292 822.862C650.891 822.384 649.701 821.568 648.726 820.415C647.75 819.301 647.262 817.848 647.262 816.058C647.262 814.546 647.66 813.313 648.452 812.358C649.213 811.443 650.173 810.986 651.332 810.986C652.124 810.986 652.78 811.185 653.298 811.582C653.849 811.98 654.274 812.438 654.578 812.955C654.914 813.512 655.296 814.268 655.721 815.223C656.178 816.377 656.623 817.232 657.048 817.789C657.505 818.386 658.102 818.684 658.831 818.684C661.239 818.684 662.444 813.572 662.444 803.347V741.937C662.444 738.834 662.23 736.546 661.804 735.074C661.406 733.602 660.829 732.628 660.068 732.15C659.334 731.633 658.16 731.135 656.545 730.658C654.656 730.141 653.146 729.624 652.019 729.107L652.155 726.003H682.655V729.047ZM694.041 772.314C694.01 772.712 693.994 773.288 693.994 774.045C693.994 779.058 694.681 783.255 696.05 786.636C697.455 789.979 699.312 792.465 701.63 794.097C703.975 795.688 706.597 796.483 709.492 796.483C713.335 796.483 717.038 795.051 720.604 792.187L721.931 793.858C721.197 796.165 719.964 798.155 718.228 799.826C716.519 801.497 714.568 802.77 712.375 803.645C710.21 804.48 708.107 804.898 706.066 804.898C702.223 804.898 698.762 803.725 695.684 801.377C692.636 799.03 690.244 795.748 688.508 791.53C686.799 787.313 685.945 782.479 685.945 777.028C685.945 771.498 686.877 766.565 688.734 762.228C690.596 757.852 693.065 754.47 696.144 752.083C699.254 749.656 702.574 748.442 706.109 748.442C709.008 748.442 711.611 749.218 713.928 750.77C716.277 752.281 718.181 754.43 719.644 757.215C721.108 759.961 722.036 763.123 722.434 766.704C722.77 768.534 722.937 770.225 722.937 771.777V772.314H694.041ZM710.499 768.494C711.841 768.415 712.968 768.096 713.885 767.539C713.671 762.805 712.816 759.105 711.322 756.44C709.859 753.774 707.771 752.441 705.059 752.441C703.077 752.441 701.31 753.216 699.753 754.768C698.231 756.32 696.995 758.389 696.05 760.975C695.106 763.521 694.497 766.326 694.22 769.389L710.499 768.494ZM748.358 789.203L756.727 762.646C756.149 759.94 755.217 757.672 753.937 755.843C752.657 754.012 751.026 753.038 749.044 752.918L749.138 750.053H769.345C769.408 751.407 769.439 752.361 769.439 752.918C769.041 753.157 768.417 753.475 767.562 753.873C766.403 754.39 765.553 754.908 765.003 755.425C764.453 755.942 764.179 756.757 764.179 757.872C764.179 758.707 764.453 760.1 765.003 762.049L772.455 788.725L779.587 763.601C780.169 761.651 780.458 760.02 780.458 758.707C780.458 757.514 780.321 756.618 780.048 756.021C779.771 755.385 779.392 754.928 778.905 754.649C778.417 754.37 777.652 754.052 776.618 753.694L774.925 753.097C774.862 752.54 774.835 752.063 774.835 751.665C774.835 751.307 774.862 750.77 774.925 750.053H790.973V753.216C790.122 753.376 789.174 753.873 788.14 754.709C787.134 755.544 786.221 756.559 785.397 757.752C784.601 758.906 784.055 760.02 783.751 761.094L771.405 804.54C771.101 804.779 770.641 804.898 770.032 804.898C769.455 804.898 768.982 804.779 768.616 804.54L758.237 768.136L747.214 804.54C746.852 804.779 746.379 804.898 745.798 804.898C745.158 804.898 744.67 804.779 744.335 804.54L731.58 761.989C730.999 760.04 730.48 758.528 730.023 757.454C729.567 756.379 728.958 755.464 728.193 754.709C727.464 753.913 726.488 753.336 725.267 752.978L725.36 750.053H744.198C744.23 750.73 744.245 751.685 744.245 752.918C742.782 753.555 741.639 754.271 740.815 755.067C740.023 755.863 739.625 756.996 739.625 758.468C739.625 759.145 739.703 759.781 739.856 760.378C739.856 760.537 739.871 760.677 739.899 760.796L748.358 789.203ZM801.676 772.314C801.644 772.712 801.629 773.288 801.629 774.045C801.629 779.058 802.315 783.255 803.685 786.636C805.086 789.979 806.947 792.465 809.264 794.097C811.609 795.688 814.231 796.483 817.127 796.483C820.97 796.483 824.673 795.051 828.239 792.187L829.565 793.858C828.832 796.165 827.599 798.155 825.863 799.826C824.154 801.497 822.203 802.77 820.01 803.645C817.845 804.48 815.741 804.898 813.701 804.898C809.858 804.898 806.397 803.725 803.318 801.377C800.271 799.03 797.879 795.748 796.143 791.53C794.434 787.313 793.579 782.479 793.579 777.028C793.579 771.498 794.512 766.565 796.369 762.228C798.23 757.852 800.7 754.47 803.779 752.083C806.884 749.656 810.209 748.442 813.744 748.442C816.639 748.442 819.245 749.218 821.563 750.77C823.912 752.281 825.816 754.43 827.279 757.215C828.742 759.961 829.671 763.123 830.069 766.704C830.404 768.534 830.572 770.225 830.572 771.777V772.314H801.676ZM818.133 768.494C819.476 768.415 820.603 768.096 821.516 767.539C821.305 762.805 820.451 759.105 818.957 756.44C817.493 753.774 815.406 752.441 812.694 752.441C810.712 752.441 808.945 753.216 807.388 754.768C805.866 756.32 804.629 758.389 803.685 760.975C802.741 763.521 802.132 766.326 801.855 769.389L818.133 768.494ZM851.833 789.74C851.833 793.082 852.352 795.668 853.386 797.498C854.455 799.288 856.207 800.363 858.646 800.721C858.646 801.317 858.63 801.914 858.599 802.511C858.571 803.108 858.556 803.506 858.556 803.705H836.058L836.011 800.721C836.288 800.482 836.636 800.263 837.065 800.065C837.521 799.865 837.978 799.686 838.434 799.527C839.776 799.05 840.83 798.533 841.591 797.976C842.352 797.379 842.808 796.503 842.964 795.35C843.206 793.639 843.327 791.888 843.327 790.098L843.284 733.94C842.917 733.145 842.168 732.369 841.041 731.613C839.944 730.817 838.863 730.161 837.794 729.643C836.729 729.087 836.042 728.748 835.738 728.629L835.828 726.54L848.54 722.005L851.833 721.587V789.74ZM892.665 766.048C892.236 766.087 891.522 766.107 890.515 766.107C889.63 762.089 888.291 758.807 886.493 756.26C884.725 753.714 882.454 752.441 879.68 752.441C877.76 752.441 876.235 753.058 875.107 754.291C874.011 755.524 873.461 757.314 873.461 759.662C873.461 761.293 873.917 762.805 874.834 764.198C875.747 765.59 876.859 766.823 878.17 767.898C879.512 768.932 881.264 770.166 883.43 771.598C883.945 771.916 884.725 772.433 885.759 773.149C889.173 775.537 891.659 777.983 893.211 780.49C894.799 782.957 895.592 785.98 895.592 789.561C895.592 792.863 894.967 795.668 893.715 797.976C892.466 800.243 890.746 801.974 888.549 803.167C886.356 804.321 883.839 804.898 881.007 804.898C878.506 804.898 875.973 804.5 873.414 803.705C870.854 802.949 868.751 801.914 867.105 800.601V786.04C868.295 785.841 869.102 785.742 869.528 785.742C870.23 790.157 871.463 793.758 873.23 796.544C875.029 799.328 877.483 800.721 880.593 800.721C882.817 800.721 884.663 800.005 886.126 798.572C887.62 797.1 888.365 795.171 888.365 792.784C888.365 791.272 888.03 789.939 887.359 788.785C886.692 787.632 885.821 786.617 884.752 785.742C883.687 784.866 882.087 783.692 879.953 782.22C877.089 780.231 874.908 778.62 873.414 777.386C871.096 775.516 869.344 773.428 868.158 771.12C866.999 768.812 866.418 766.068 866.418 762.885C866.418 759.821 867.015 757.215 868.201 755.067C869.391 752.878 871.006 751.227 873.047 750.114C875.092 748.999 877.394 748.442 879.953 748.442C882.302 748.442 884.526 748.821 886.629 749.576C888.763 750.332 890.683 751.407 892.392 752.799L892.665 766.048Z" fill="#1C1B19"/>
</g>
</g>
</g>
<defs>
<clipPath id="clip0_600_7">
<rect width="874" height="550" fill="white" transform="translate(163 325)"/>
</clipPath>
</defs>
</svg>
