<svg width="512" height="512" viewBox="0 0 512 512" fill="none" xmlns="http://www.w3.org/2000/svg">
<path d="M169.375 279.438C170.181 279.449 170.987 279.461 171.817 279.473C187.101 280.027 198.886 287.438 211.352 295.526C214.11 297.061 216.562 297.878 219.613 298.67C221.265 299.106 221.265 299.106 222.951 299.55C224.721 300.005 224.721 300.005 226.527 300.469C227.749 300.79 228.971 301.112 230.229 301.443C234.13 302.47 238.033 303.486 241.938 304.5C245.838 305.514 249.737 306.532 253.635 307.557C256.058 308.194 258.484 308.826 260.91 309.45C270.179 311.887 276.291 314.039 282 322C284.693 326.773 284.655 331.824 283.57 337.082C281.561 343.57 277.373 347.047 271.625 350.375C262.517 352.544 254.05 349.705 245.312 347.266C242.851 346.579 240.386 345.906 237.921 345.237C232.694 343.817 227.472 342.378 222.25 340.938C216.182 339.264 210.112 337.597 204.038 335.949C201.613 335.287 199.192 334.612 196.771 333.936C195.284 333.531 193.797 333.126 192.31 332.722C191.64 332.532 190.971 332.341 190.282 332.145C186.525 331.141 183.72 330.743 180 332C179.01 332.99 179.01 332.99 178 334C178.323 337.597 178.323 337.597 179 341C189.348 344.301 199.721 347.388 210.211 350.207C211.229 350.482 211.229 350.482 212.268 350.762C215.845 351.725 219.423 352.684 223.001 353.64C226.662 354.619 230.318 355.613 233.974 356.61C236.825 357.384 239.68 358.147 242.535 358.908C243.884 359.269 245.232 359.635 246.579 360.005C257.8 363.08 268.066 364.927 279 360C287.75 354.608 292.644 348.445 295.422 338.625C296.124 335.436 296.55 332.233 297 329C313.525 323.641 330.143 318.637 346.814 313.755C349.421 312.991 352.026 312.221 354.632 311.451C357.79 310.52 360.95 309.594 364.109 308.668C365.257 308.328 366.406 307.989 367.588 307.639C377.672 304.699 387.104 302.64 397.625 302.625C398.514 302.601 399.404 302.576 400.32 302.551C406.374 302.524 410.964 303.531 416 307C420.897 312.273 421.358 315.79 421.273 322.832C420.561 331.083 416.038 337.549 410 343C402.232 347.892 393.112 350.754 384.554 353.958C379.922 355.692 375.298 357.445 370.672 359.195C369.674 359.572 368.676 359.95 367.648 360.338C355.881 364.79 344.149 369.332 332.415 373.871C325.14 376.684 317.862 379.492 310.584 382.3C305.693 384.188 300.801 386.076 295.913 387.971C264.244 400.241 242.018 406.547 208.875 396.375C204.708 395.126 200.537 393.888 196.367 392.648C195.346 392.344 194.325 392.039 193.273 391.725C186.022 389.57 178.752 387.499 171.445 385.539C170.511 385.281 169.578 385.024 168.615 384.758C154.985 381.17 143.735 384.113 131.496 390.793C129 392 129 392 126 392C120.3 378.681 114.636 365.346 109 352C108.603 351.062 108.207 350.124 107.798 349.158C105.5 343.719 103.214 338.275 100.948 332.823C100.234 331.11 99.5156 329.399 98.7937 327.69C97.7865 325.303 96.7939 322.91 95.8047 320.516C95.5035 319.81 95.2023 319.105 94.892 318.378C93.826 315.763 92.9911 313.536 93.0383 310.69C94.4361 308.234 96.029 307.621 98.582 306.441C99.5633 305.979 100.545 305.517 101.556 305.041C102.63 304.553 103.705 304.065 104.813 303.563C105.919 303.048 107.026 302.533 108.167 302.002C110.54 300.899 112.915 299.803 115.293 298.711C118.4 297.283 121.491 295.823 124.577 294.351C127.631 292.893 130.691 291.448 133.75 290C134.878 289.461 136.005 288.921 137.167 288.366C147.466 283.544 157.838 279.205 169.375 279.438Z" fill="white"/>
<path d="M325 159C375.82 159 426.64 159 479 159C480.448 163.343 481.543 167.232 482.42 171.676C482.547 172.314 482.675 172.953 482.806 173.61C483.221 175.7 483.63 177.791 484.039 179.883C484.327 181.344 484.616 182.806 484.905 184.268C485.507 187.322 486.107 190.376 486.705 193.431C487.471 197.344 488.244 201.255 489.019 205.166C489.615 208.18 490.208 211.195 490.8 214.21C491.083 215.653 491.368 217.095 491.654 218.538C492.052 220.552 492.446 222.567 492.838 224.583C493.063 225.728 493.288 226.874 493.52 228.054C494 231 494 231 494 235C414.881 237.9 414.881 237.9 380.218 239.059C377.685 239.144 375.152 239.229 372.62 239.316C350.698 240.066 350.698 240.066 339.914 240.113C339.212 240.119 338.51 240.124 337.787 240.129C333.122 240.122 333.122 240.122 332 239C331.698 236.844 331.459 234.678 331.244 232.512C331.175 231.834 331.107 231.155 331.037 230.457C330.81 228.201 330.59 225.944 330.371 223.688C330.216 222.119 330.06 220.55 329.905 218.981C329.578 215.682 329.255 212.384 328.934 209.084C328.524 204.875 328.106 200.667 327.686 196.459C327.363 193.213 327.044 189.967 326.726 186.72C326.574 185.17 326.421 183.62 326.266 182.07C326.048 179.888 325.837 177.706 325.627 175.523C325.505 174.285 325.384 173.047 325.259 171.771C324.967 167.523 325 163.258 325 159Z" fill="white"/>
<path d="M258 66C291.638 66.6422 325.267 67.4943 358.897 68.4594C365.034 68.6351 371.171 68.8086 377.309 68.9824C389.206 69.3196 401.103 69.659 413 70C413.056 70.5702 413.112 71.1405 413.17 71.728C413.665 76.511 414.353 81.1489 415.399 85.8491C415.819 87.7556 415.819 87.7556 416.248 89.7005C416.552 91.0582 416.856 92.4158 417.16 93.7734C417.473 95.1882 417.786 96.603 418.098 98.018C418.914 101.717 419.735 105.414 420.559 109.111C421.88 115.048 423.197 120.987 424.508 126.926C424.967 128.996 425.429 131.064 425.891 133.133C426.307 135.011 426.307 135.011 426.731 136.927C426.976 138.03 427.222 139.134 427.475 140.27C428 143 428 143 428 146C374.21 146 320.42 146 265 146C258 75 258 75 258 66Z" fill="white"/>
<path d="M67.625 290.375C76.2405 295.978 79.6074 311.507 83.355 320.672C85.4466 325.787 87.5505 330.897 89.6524 336.008C90.0885 337.069 90.5246 338.131 90.9739 339.224C96.2204 351.986 101.538 364.718 106.857 377.45C107.255 378.401 107.652 379.351 108.061 380.331C108.452 381.268 108.844 382.206 109.248 383.171C110.398 385.93 111.544 388.692 112.688 391.453C114.297 395.328 115.934 399.19 117.585 403.047C118.419 405.021 119.252 406.995 120.086 408.969C120.676 410.325 120.676 410.325 121.277 411.708C123.349 416.655 124.573 420.532 124 426C120.269 434.445 111.698 437.105 103.727 440.374C101.763 441.182 99.8096 442.011 97.8555 442.842C82.2542 449.365 82.2542 449.365 74.6875 446.938C68.9566 442.806 66.7157 436.393 64.1563 430.039C63.7945 429.157 63.4328 428.275 63.0601 427.366C61.8675 424.455 60.6839 421.54 59.5 418.625C58.2312 415.522 56.9599 412.421 55.6886 409.319C54.8059 407.165 53.924 405.011 53.0429 402.856C48.6727 392.177 44.2312 381.528 39.7816 370.882C37.2915 364.919 34.8115 358.951 32.3297 352.985C30.2841 348.071 28.2281 343.162 26.155 338.26C25.3328 336.312 24.5158 334.362 23.7012 332.411C22.7747 330.193 21.8394 327.98 20.8926 325.771C18.117 319.077 16.6878 314.38 19.418 307.348C22.2658 302.878 26.5498 301.354 31.3125 299.438C32.2003 299.062 33.088 298.686 34.0027 298.299C35.8049 297.541 37.6113 296.793 39.4219 296.055C41.7639 295.097 44.0864 294.104 46.4063 293.094C59.7845 287.401 59.7845 287.401 67.625 290.375Z" fill="white"/>
<path d="M185 64C215.195 64.495 215.195 64.495 246 65C246 68.3 246 71.6 246 75C246.145 77.2002 246.325 79.3987 246.551 81.592C246.671 82.7835 246.791 83.975 246.915 85.2025C247.046 86.457 247.177 87.7114 247.312 89.0039C247.448 90.3356 247.582 91.6674 247.716 92.9993C248.139 97.1876 248.569 101.375 249 105.562C249.5 110.425 249.997 115.288 250.487 120.152C250.683 122.081 250.884 124.009 251.085 125.936C251.732 132.331 252.145 138.573 252 145C243.358 143.994 234.716 142.986 226.075 141.974C222.061 141.505 218.048 141.036 214.033 140.569C210.149 140.117 206.265 139.663 202.382 139.207C200.911 139.035 199.439 138.864 197.968 138.693C188.947 137.647 179.965 136.454 171 135C172.302 125.942 173.941 116.998 175.82 108.043C176.054 106.916 176.288 105.789 176.529 104.628C177.391 100.48 178.258 96.3339 179.125 92.1875C181.064 82.8856 183.003 73.5837 185 64Z" fill="white"/>
<path d="M252 159C272.031 158.86 291.985 159.193 312 160C312.918 168.971 313.831 177.942 314.738 186.914C315.159 191.081 315.582 195.248 316.009 199.414C316.422 203.44 316.83 207.467 317.235 211.493C317.389 213.024 317.546 214.554 317.704 216.085C318.492 223.739 319.211 231.297 319 239C308.646 238.415 298.389 237.432 288.098 236.152C286.639 235.974 285.181 235.796 283.723 235.619C279.94 235.157 276.157 234.69 272.375 234.223C268.493 233.744 264.611 233.27 260.729 232.795C253.152 231.868 245.576 230.936 238 230C239.388 221.259 241.041 212.591 242.82 203.922C243.084 202.629 243.347 201.337 243.619 200.005C244.311 196.612 245.005 193.219 245.7 189.826C246.412 186.346 247.122 182.867 247.832 179.387C249.219 172.591 250.609 165.795 252 159Z" fill="white"/>
<path d="M137 147C141.849 147.071 146.697 147.159 151.545 147.262C153.182 147.295 154.819 147.323 156.457 147.346C170.135 147.545 183.471 149.007 197 151C197.916 160.153 198.829 169.307 199.738 178.461C200.16 182.712 200.584 186.962 201.009 191.213C201.42 195.317 201.829 199.421 202.235 203.526C202.39 205.09 202.546 206.653 202.704 208.217C202.924 210.411 203.141 212.606 203.357 214.801C203.482 216.049 203.606 217.297 203.734 218.583C203.98 221.74 204.05 224.835 204 228C185.243 225.953 166.491 223.855 147.752 221.644C145.877 221.423 144.001 221.203 142.126 220.985C139.488 220.677 136.851 220.364 134.215 220.051C133.031 219.913 133.031 219.913 131.824 219.773C128.742 219.403 125.954 218.985 123 218C123.699 210.048 125.278 202.357 126.941 194.559C127.232 193.181 127.522 191.804 127.812 190.427C128.569 186.831 129.331 183.236 130.095 179.641C130.876 175.961 131.651 172.28 132.428 168.6C133.947 161.399 135.472 154.199 137 147Z" fill="white"/>
<path d="M210 153C220.093 153.544 229.998 154.539 240 156C237.051 172.752 233.728 189.414 230.25 206.062C230.048 207.035 229.846 208.007 229.637 209.008C229.059 211.789 228.475 214.568 227.891 217.348C227.627 218.615 227.627 218.615 227.358 219.907C226.115 225.769 226.115 225.769 225 228C222.36 228 219.72 228 217 228C216.324 221.53 215.649 215.061 214.974 208.591C214.745 206.399 214.516 204.208 214.287 202.017C213.626 195.687 212.968 189.358 212.314 183.028C212.009 180.087 211.7 177.146 211.39 174.205C211.205 172.423 211.02 170.641 210.836 168.859C210.751 168.062 210.665 167.264 210.578 166.442C210.116 161.933 209.92 157.532 210 153Z" fill="white"/>
</svg>
