<svg width="60" height="60" viewBox="0 0 60 60" fill="none" xmlns="http://www.w3.org/2000/svg">
<path d="M14.3333 42.0001H7.66667C6.74653 42.0001 6 41.5525 6 41.0001C6 40.4482 6.74653 40.0001 7.66667 40.0001H14.3333C15.2525 40.0001 16 40.4482 16 41.0001C16 41.5525 15.2525 42.0001 14.3333 42.0001Z" fill="#B38D22"/>
<path d="M55.143 42.0001H52.2861C51.6551 42.0001 51.1433 41.453 51.1433 40.7779C51.1433 40.1035 51.6551 39.5558 52.2861 39.5558H54.194L55.7349 30.775C55.7144 26.282 52.126 22.4443 47.7149 22.4443H40.2107L36.5747 39.5558H41.6364C42.2666 39.5558 42.7273 40.2257 42.7273 40.9001C42.7273 41.5752 41.8502 42.0001 41.2199 42.0001H35.1442C34.7963 42.0001 34.4677 41.8316 34.2501 41.5408C34.0332 41.2521 33.9512 40.8713 34.0285 40.509L38.1837 20.9533C38.3028 20.3935 38.7644 20.0001 39.2994 20.0001H47.7149C53.3852 20.0001 58 24.9353 58 31.0001L56.2647 41.003C56.1641 41.5825 55.6933 42.0001 55.143 42.0001Z" fill="#B38D22"/>
<path d="M46 48.0001C42.6924 48.0001 40 45.3098 40 41.9997C40 38.6904 42.6924 36.0001 46 36.0001C49.3069 36.0001 52 38.6904 52 41.9997C52 45.3098 49.3069 48.0001 46 48.0001ZM46 38.3999C44.0146 38.3999 42.4 40.0153 42.4 41.9997C42.4 43.9848 44.0146 45.6002 46 45.6002C47.9847 45.6002 49.6 43.9848 49.6 41.9997C49.6 40.0153 47.9847 38.3999 46 38.3999Z" fill="#B38D22"/>
<path d="M20 48.0001C16.6924 48.0001 14 45.3098 14 41.9997C14 38.6904 16.6924 36.0001 20 36.0001C23.3069 36.0001 26 38.6904 26 41.9997C26 45.3098 23.3069 48.0001 20 48.0001ZM20 38.3999C18.0146 38.3999 16.4 40.0153 16.4 41.9997C16.4 43.9848 18.0146 45.6002 20 45.6002C21.9847 45.6002 23.6 43.9848 23.6 41.9997C23.6 40.0153 21.9847 38.3999 20 38.3999Z" fill="#B38D22"/>
<path d="M18.6 20.0001H7.4C6.62708 20.0001 6 19.5519 6 19.0001C6 18.4477 6.62708 18.0001 7.4 18.0001H18.6C19.3721 18.0001 20 18.4477 20 19.0001C20 19.5519 19.3721 20.0001 18.6 20.0001Z" fill="#B38D22"/>
<path d="M18.6667 26.0001H5.33333C4.59722 26.0001 4 25.552 4 25.0004C4 24.4481 4.59722 24.0001 5.33333 24.0001H18.6667C19.402 24.0001 20 24.4481 20 25.0004C20 25.552 19.402 26.0001 18.6667 26.0001Z" fill="#B38D22"/>
<path d="M18.7143 32.0001H3.28571C2.57589 32.0001 2 31.552 2 30.9998C2 30.4481 2.57589 30.0001 3.28571 30.0001H18.7143C19.4234 30.0001 20 30.4481 20 30.9998C20 31.552 19.4234 32.0001 18.7143 32.0001Z" fill="#B38D22"/>
<path d="M33.0761 42.0001H26.0714C25.4344 42.0001 25 41.5676 25 40.9231C25 40.2794 25.4344 39.8462 26.0714 39.8462L32.1553 39.6669L37.3982 16.3332H11.1538C10.5168 16.3332 10 15.8111 10 15.1666C10 14.5229 10.5168 14.0001 11.1538 14.0001H38.8451C39.1957 14.0001 39.5282 14.1608 39.7472 14.4385C39.9662 14.7141 40.0497 15.0782 39.9709 15.4233L34.2019 41.0902C34.0817 41.6245 33.6136 42.0001 33.0761 42.0001Z" fill="#B38D22"/>
</svg>
