<svg width="60" height="60" viewBox="0 0 60 60" fill="none" xmlns="http://www.w3.org/2000/svg">
<path d="M46.9073 40.3872C44.999 38.3715 42.365 37.1198 39.469 37.1198H35.8271C35.828 37.0693 35.8309 37.0183 35.8309 36.9679V35.1214C35.9891 34.9766 36.142 34.8258 36.29 34.6693C36.74 34.1938 37.1431 33.6668 37.4899 33.0995C39.3133 32.8788 40.7369 32.2071 41.101 30.4187C41.6802 30.2984 42.1981 29.9962 42.6003 29.5716C43.1289 29.013 43.4582 28.2409 43.4582 27.3928V23.9735C43.4582 23.1244 43.1289 22.3532 42.6003 21.7947L42.5588 21.7544C42.2102 21.3992 41.779 21.1362 41.3011 20.997C41.3021 20.9843 41.303 20.9726 41.303 20.9598C41.303 17.938 40.0579 15.194 38.0522 13.2058C36.0552 11.2273 33.3058 10 30.285 10H29.716C26.6951 10 23.9463 11.2273 21.9502 13.2058C19.9441 15.194 18.6989 17.938 18.6989 20.9598C18.6989 20.9726 18.6998 20.9843 18.7013 20.997C18.206 21.1408 17.7609 21.4185 17.405 21.7931L17.4021 21.7967C16.8731 22.3563 16.5442 23.1274 16.5442 23.9735V27.3928C16.5442 28.2185 16.8572 28.9718 17.364 29.5283L17.4021 29.5716C17.9311 30.1307 18.6613 30.4778 19.4652 30.4778C20.1413 30.4778 20.7639 30.2322 21.2601 29.8219C21.6059 31.6929 22.4802 33.3702 23.7109 34.6703C23.9419 34.9144 24.185 35.1438 24.4401 35.3604V36.9699C24.4401 37.0204 24.442 37.0713 24.444 37.1218H20.5319C17.635 37.1218 15.0019 38.3735 13.0941 40.3893C11.1849 42.4024 10 45.1847 10 48.2437V49.3186C10 49.6947 10.2889 50 10.6453 50H49.3552C49.7111 50 50 49.6947 50 49.3186V48.2437C50 45.1847 48.8151 42.4024 46.9073 40.3872ZM38.2533 31.5461C38.465 30.9946 38.6299 30.4167 38.7399 29.8198C39.0369 30.066 39.3813 30.253 39.7541 30.3631C39.5091 30.964 38.9718 31.3295 38.2533 31.5461ZM41.686 22.7569C41.9821 23.0693 42.1663 23.4995 42.1663 23.9725V27.3918C42.1663 27.8648 41.9821 28.2959 41.686 28.6073C41.3899 28.9203 40.9819 29.1145 40.5339 29.1145C40.0858 29.1145 39.6779 28.9203 39.3832 28.6073H39.3803C39.0861 28.297 38.9029 27.8658 38.9029 27.3918V23.9725C38.9029 23.4969 39.0861 23.0673 39.3803 22.7569L39.3832 22.7533C39.6769 22.443 40.0849 22.2498 40.5353 22.2498C40.9703 22.2498 41.3672 22.4302 41.658 22.7238L41.686 22.7569ZM22.8313 14.1956C24.5949 12.4474 27.0312 11.3628 29.715 11.3628H30.284C32.9673 11.3628 35.4041 12.4474 37.1682 14.1956C38.9169 15.9289 40.0053 18.3162 40.0101 20.9389C39.5901 21.02 39.2009 21.1978 38.8628 21.4491C38.6632 19.2137 37.7151 17.1995 36.2881 15.6924C34.675 13.9886 32.4479 12.9301 29.999 12.9301C27.5502 12.9301 25.3231 13.9886 23.71 15.6924C22.283 17.1995 21.3349 19.2137 21.1352 21.4491C20.7972 21.1978 20.408 21.02 19.9879 20.9389C19.9952 18.3162 21.0822 15.9289 22.8313 14.1956ZM37.555 21.3558C36.0349 21.3497 34.5751 21.1438 33.178 20.7402C31.5779 20.2774 30.0511 19.5511 28.5991 18.5613C28.3502 18.3921 28.0131 18.4227 27.7961 18.6541C27.1533 19.3345 26.3281 19.9018 25.3202 20.3549C24.4903 20.7274 23.5349 21.021 22.46 21.2386C22.6919 19.4635 23.4761 17.8672 24.6238 16.6547C26.0041 15.197 27.908 14.2919 30.001 14.2919C32.0939 14.2919 33.9979 15.197 35.3781 16.6547C36.55 17.8937 37.3433 19.5338 37.555 21.3558ZM19.4652 29.1145C19.0172 29.1145 18.6092 28.9203 18.314 28.6073L18.2841 28.5778C18.0059 28.2694 17.8352 27.851 17.8352 27.3918V23.9725C17.8352 23.4969 18.0179 23.0673 18.3121 22.7569L18.315 22.7533C18.6092 22.443 19.0172 22.2498 19.4671 22.2498C19.9171 22.2498 20.3241 22.443 20.6182 22.7533V22.7569C20.9139 23.0693 21.0981 23.4995 21.0981 23.9725V27.3918C21.0981 27.8648 20.9139 28.2959 20.6182 28.6073C20.3212 28.9203 19.9132 29.1145 19.4652 29.1145ZM22.3862 28.0263V22.6371C23.6791 22.3976 24.8249 22.0541 25.8222 21.6056C26.7978 21.1667 27.6331 20.626 28.328 19.9859C29.7589 20.9048 31.263 21.5938 32.84 22.049C34.3682 22.4903 35.9592 22.7126 37.6143 22.7136V28.0253C37.6143 29.3871 37.2883 30.6715 36.7173 31.7984C35.7263 31.8682 34.6012 31.8249 33.4939 31.7805L33.2682 31.7718C33.167 31.4222 32.989 31.1088 32.7551 30.855C32.3761 30.4452 31.8519 30.1909 31.276 30.1909C30.7002 30.1909 30.176 30.4442 29.797 30.855C29.4232 31.2596 29.1913 31.8172 29.1913 32.4314C29.1913 33.045 29.4232 33.6026 29.797 34.0072C30.176 34.417 30.7002 34.6713 31.276 34.6713C31.8519 34.6713 32.3761 34.418 32.7551 34.0072C32.9798 33.7631 33.152 33.4639 33.2552 33.1316L33.4491 33.1388C34.2453 33.1704 35.0482 33.202 35.8203 33.1959C35.679 33.3722 35.5319 33.5434 35.3781 33.707C33.9979 35.1647 32.0939 36.0699 30.001 36.0699C28.7302 36.0699 27.5299 35.735 26.4742 35.1468C26.1241 34.946 25.7909 34.7157 25.4789 34.4603C25.4369 34.4262 25.3921 34.3992 25.3463 34.3767C25.0931 34.1688 24.851 33.9456 24.6238 33.707C23.2432 32.2484 22.3862 30.2372 22.3862 28.0263ZM32.0703 32.4314C32.0703 32.678 31.9792 32.9013 31.8321 33.0598C31.6903 33.2137 31.4921 33.309 31.2741 33.309C31.0561 33.309 30.8579 33.2137 30.7161 33.0598C30.5691 32.9013 30.4779 32.678 30.4779 32.4314C30.4779 32.1842 30.5691 31.9609 30.7161 31.8024C30.8579 31.6485 31.0561 31.5532 31.2741 31.5532C31.4921 31.5532 31.6903 31.6485 31.8321 31.8024C31.9792 31.9609 32.0703 32.1842 32.0703 32.4314ZM26.3532 36.6014C26.6151 36.7288 26.8832 36.8451 27.1581 36.9444C27.9779 37.2426 28.8542 37.4092 29.7622 37.4271C29.7709 37.4271 29.7801 37.4271 29.7893 37.4281C29.8322 37.4296 29.8741 37.4317 29.9171 37.4317H30.3511C31.3141 37.4317 32.243 37.2604 33.111 36.9455C33.6082 36.765 34.0861 36.5357 34.539 36.2645V36.9679C34.539 38.2079 34.0582 39.3348 33.2841 40.1523C32.5101 40.9703 31.4419 41.4779 30.2691 41.4779H30C28.8262 41.4779 27.759 40.9703 26.985 40.1523C26.2109 39.3348 25.7301 38.2069 25.7301 36.9679V36.2717C25.9332 36.3889 26.141 36.5 26.3532 36.6014ZM11.29 48.2437C11.29 45.5598 12.3302 43.1195 14.0051 41.3495C15.68 39.5799 17.9909 38.4816 20.5319 38.4816H24.6301C24.8872 39.4912 25.3921 40.3954 26.073 41.1145C26.9362 42.0263 28.0821 42.641 29.3552 42.7984V48.6367H11.29V48.2437ZM48.71 48.6377H30.6453V42.826C32.0259 42.7276 33.2731 42.0931 34.197 41.116C34.878 40.3964 35.3829 39.4912 35.6399 38.4826H39.4681C42.0091 38.4826 44.3191 39.5809 45.9939 41.3505C47.6693 43.1195 48.709 45.5608 48.709 48.2447V48.6377H48.71Z" fill="#B38D22"/>
</svg>
