<svg width="60" height="60" viewBox="0 0 60 60" fill="none" xmlns="http://www.w3.org/2000/svg">
<path d="M48.9824 38.1194L50.4878 39.6122L37.1613 52.8249C36.2243 53.7553 35.1741 54.2509 33.8636 54.3845L33.559 54.4129L18.0933 54.6317C17.7839 54.6364 17.4977 54.795 17.3314 55.0536L15.4287 58L10 52.6129L13.6596 46.9241C13.7993 46.7067 13.9335 46.4933 14.063 46.2861C15.3047 44.3099 16.053 43.1176 18.5138 43.1176H33.2012C34.3761 43.1176 35.3315 44.0648 35.3315 45.2281C35.3315 45.7311 35.1462 46.2179 34.8109 46.6041C34.4061 47.0692 33.8241 47.3407 33.2012 47.3407H26.3959C25.8868 47.3407 25.4752 47.7485 25.4752 48.2521C25.4752 48.7571 25.8868 49.1656 26.3959 49.1656H33.2012C34.3393 49.1656 35.4017 48.6842 36.1507 47.8565L45.3671 38.7176C46.2489 37.8419 48.2348 37.3781 48.9824 38.1194ZM13.1117 12.2934C13.1805 12.2934 13.25 12.286 13.3182 12.2704L20.2489 10.6838C20.5692 10.6102 20.8254 10.3733 20.9215 10.0613C21.0183 9.74942 20.9392 9.41049 20.715 9.17216L19.0972 7.45187C22.4371 5.07668 26.3638 3.82562 30.5168 3.82562C41.3477 3.82562 50.1593 12.5628 50.1593 23.3031C50.1593 26.1111 49.5712 28.8178 48.4106 31.3483C48.2 31.8074 48.4052 32.3482 48.8679 32.5575C48.9912 32.6128 49.1207 32.6392 49.2482 32.6392C49.5978 32.6392 49.9324 32.4407 50.0864 32.1045C51.3567 29.335 52 26.3737 52 23.3031C52 11.5561 42.3631 2 30.5168 2C25.8943 2 21.5273 3.41715 17.8323 6.10629L15.8635 4.01196C15.6393 3.77363 15.304 3.67168 14.983 3.74527C14.6627 3.81887 14.4058 4.05584 14.3097 4.36777L12.2312 11.1139C12.1351 11.4258 12.2141 11.7648 12.4384 12.0031C12.6142 12.1908 12.8595 12.2934 13.1117 12.2934ZM44.8703 14.5585C45.1558 14.7213 45.3303 15.0224 45.3303 15.3478V31.2578C45.3303 31.5832 45.1552 31.8857 44.8703 32.0484L30.9775 40.0031C30.8344 40.0841 30.6763 40.1253 30.5175 40.1253C30.3574 40.1253 30.1993 40.0841 30.0568 40.0031L16.1634 32.0484C15.8785 31.8857 15.7034 31.5832 15.7034 31.2578V15.3478C15.7034 15.0224 15.8792 14.7213 16.1634 14.5585L23.1104 10.5839L30.0568 6.60725C30.3417 6.44387 30.692 6.44387 30.9775 6.60725L37.9232 10.5839L44.8703 14.5585ZM18.4627 15.3498L21.6977 17.2024C25.7137 14.9015 29.7338 12.5992 33.7498 10.301L30.5175 8.4511L24.0298 12.1644L18.4634 15.3492L18.4627 15.3498ZM29.5968 23.8304L26.3611 21.9792V29.0609C26.3611 29.3863 26.1867 29.6867 25.9025 29.8501C25.7601 29.9318 25.5999 29.973 25.4404 29.973C25.283 29.973 25.127 29.9332 24.9852 29.8535L21.2418 27.7376C20.9542 27.5748 20.7763 27.2724 20.7763 26.9443V18.783L17.5441 16.931V30.7312L29.5968 37.6313V23.8304ZM42.5689 15.3492L39.3325 13.4972L27.2825 20.3986L30.5168 22.2492L42.5689 15.3492ZM43.4903 16.929L31.4375 23.8298V37.6313L43.4903 30.7312V16.929Z" fill="#B38D22"/>
</svg>
