<svg width="60" height="60" viewBox="0 0 60 60" fill="none" xmlns="http://www.w3.org/2000/svg">
<path d="M30.0007 57.9993C29.71 57.9993 29.4194 57.9444 29.145 57.8359C13.6356 51.6606 4 39.7921 4 26.8623V17.0514C4 14.115 5.81496 11.4539 8.62318 10.2725L26.8111 2.62357C28.7806 1.79486 31.0415 1.79215 33.0131 2.61544L51.3577 10.2752C54.178 11.4525 56 14.1163 56 17.0616V26.863C56 39.7928 46.3651 51.6612 30.855 57.8366C30.5814 57.9457 30.2907 58 29.9993 58L30.0007 57.9993ZM29.922 6.26257C29.4718 6.26257 29.0223 6.35074 28.6026 6.52638L10.4155 14.176C9.22439 14.6772 8.45516 15.8056 8.45516 17.0507V26.8617C8.45516 37.8044 16.6856 47.9653 30.0007 53.5492C43.3151 47.966 51.5463 37.8051 51.5463 26.8617V17.0609C51.5463 15.8117 50.7735 14.6826 49.5775 14.1828L31.2329 6.52299C30.816 6.3487 30.3687 6.2619 29.9213 6.2619L29.922 6.26257Z" fill="#B38D22"/>
<path d="M28.1914 37.9993C27.7683 37.9993 27.3428 37.8329 26.991 37.4931L20.6976 31.4147C19.8852 30.63 19.765 29.2165 20.4286 28.2562C21.0917 27.2967 22.2879 27.1539 23.1002 27.9385L27.9659 32.6376L36.6668 20.7742C37.3534 19.8375 38.5526 19.7368 39.345 20.5486C40.1374 21.361 40.2227 22.7782 39.536 23.7156L29.6269 37.2254C29.2522 37.7366 28.7239 38 28.1914 38V37.9993Z" fill="#B38D22"/>
</svg>
